<svg width="16" height="14" viewBox="0 0 16 14" fill="none" xmlns="http://www.w3.org/2000/svg">
<g clip-path="url(#clip0_53_2)">
<path fill-rule="evenodd" clip-rule="evenodd" d="M11.9999 0.500023C12.4059 0.500023 12.7349 0.832023 12.7349 1.24002V10.972L14.7449 8.94502C14.8129 8.87609 14.8938 8.82135 14.9831 8.78398C15.0723 8.74661 15.1682 8.72737 15.2649 8.72737C15.3617 8.72737 15.4575 8.74661 15.5468 8.78398C15.6361 8.82135 15.717 8.87609 15.7849 8.94502C15.9226 9.08446 15.9999 9.27255 15.9999 9.46853C15.9999 9.6645 15.9226 9.85259 15.7849 9.99202L12.5199 13.283C12.4526 13.3514 12.3724 13.4058 12.2841 13.4431C12.1957 13.4805 12.1008 13.5 12.0049 13.5007C11.9089 13.5013 11.8138 13.483 11.7249 13.4469C11.6361 13.4108 11.5552 13.3574 11.4869 13.29L11.4799 13.283L8.21493 9.99202C8.07722 9.85259 8 9.6645 8 9.46853C8 9.27255 8.07722 9.08446 8.21493 8.94502C8.28285 8.87609 8.3638 8.82135 8.45307 8.78398C8.54235 8.74661 8.63816 8.72737 8.73493 8.72737C8.83171 8.72737 8.92752 8.74661 9.01679 8.78398C9.10606 8.82135 9.18701 8.87609 9.25493 8.94502L11.2649 10.972V1.24002C11.2649 0.830023 11.5949 0.500023 11.9999 0.500023ZM3.99993 13.5C4.19549 13.4992 4.38273 13.4209 4.52055 13.2821C4.65836 13.1434 4.73546 12.9556 4.73493 12.76V3.02702L6.74493 5.05402C6.81285 5.12296 6.8938 5.1777 6.98307 5.21507C7.07235 5.25243 7.16816 5.27168 7.26493 5.27168C7.36171 5.27168 7.45752 5.25243 7.54679 5.21507C7.63606 5.1777 7.71701 5.12296 7.78493 5.05402C7.92264 4.91459 7.99986 4.7265 7.99986 4.53052C7.99986 4.33455 7.92264 4.14646 7.78493 4.00702L4.51993 0.717023C4.45201 0.648087 4.37106 0.593344 4.28179 0.555979C4.19252 0.518613 4.09671 0.499371 3.99993 0.499371C3.90316 0.499371 3.80735 0.518613 3.71807 0.555979C3.6288 0.593344 3.54785 0.648087 3.47993 0.717023L0.214931 4.00802C0.0772212 4.14746 0 4.33555 0 4.53152C0 4.7275 0.0772212 4.91559 0.214931 5.05502C0.282853 5.12396 0.363804 5.1787 0.453075 5.21607C0.542346 5.25343 0.638156 5.27268 0.734931 5.27268C0.831707 5.27268 0.927517 5.25343 1.01679 5.21607C1.10606 5.1787 1.18701 5.12396 1.25493 5.05502L3.26493 3.02802V12.759C3.26493 13.169 3.59493 13.5 3.99993 13.5Z" fill="#CECECE"/>
</g>
<defs>
<clipPath id="clip0_53_2">
<rect width="16" height="14" fill="white"/>
</clipPath>
</defs>
</svg>
