<svg width="64" height="65" viewBox="0 0 64 65" fill="none" xmlns="http://www.w3.org/2000/svg">
<path d="M15.6992 0.49641C15.1761 0.563373 14.5665 0.768728 14.1212 1.02319C12.8631 1.75086 11.4147 3.71066 10.4247 6.0276C10.3728 6.14814 10.3036 6.30885 10.269 6.38474C10.0399 6.92045 9.55568 8.32222 9.38274 8.974C9.23575 9.52757 9.0801 10.1302 9.04552 10.3133C8.6175 12.3847 8.44457 14.0409 8.49212 15.6748C8.53103 16.9962 8.60021 17.6391 8.82935 18.9337L8.88555 19.2507L8.57859 19.7819C8.40998 20.0766 8.22407 20.4069 8.15922 20.523L8.04681 20.7328L7.88252 20.6614C7.79606 20.6257 7.66636 20.5676 7.59286 20.5364C7.52368 20.5051 7.37669 20.456 7.2686 20.4248C7.16052 20.3935 7.01785 20.3489 6.94435 20.3266C6.87517 20.3042 6.65036 20.273 6.44716 20.2596C5.53924 20.1971 4.54054 20.6078 3.81853 21.331C3.31702 21.8355 3.03168 22.3623 2.82848 23.1703C2.72039 23.6033 2.72039 24.8399 2.82848 25.3801C3.10517 26.7819 3.68883 28.0586 4.61836 29.3041C4.76968 29.505 4.89074 29.6791 4.88209 29.6836C4.87344 29.6925 4.63566 29.7193 4.35031 29.7506C2.75498 29.9202 1.8341 30.2774 1.03859 31.0363C-0.219517 32.2416 -0.344896 34.005 0.718659 35.4514C1.10344 35.9693 1.67845 36.4068 2.31832 36.6657C3.00141 36.9425 3.52887 37.0317 4.44543 37.0317C5.14149 37.0317 5.15014 37.0317 5.16743 37.13C5.1804 37.188 5.21931 37.4648 5.2539 37.746C5.39225 38.7683 5.43116 38.9424 5.57383 39.0808C5.66895 39.1746 5.72947 39.2014 5.81594 39.188C5.87647 39.1746 5.92835 39.179 5.92835 39.2014C5.92835 39.2192 5.87215 39.3665 5.80297 39.5273C5.34469 40.5897 4.90371 41.9022 4.76103 42.6344C4.73509 42.7817 4.69618 42.9826 4.67457 43.0808C4.52757 43.7772 4.48001 45.362 4.58377 46.0718C4.79562 47.5361 5.07232 48.6432 5.56951 50.0227C5.7338 50.478 6.35204 52.0584 6.49472 52.3753C6.74547 52.9423 7.61447 55.1923 7.61447 55.2726C7.61447 55.2816 7.50207 55.2905 7.36804 55.2905C6.6028 55.2905 5.61274 55.6432 4.91235 56.161C4.052 56.7949 3.37322 57.8797 3.15705 58.9735C3.05762 59.469 3.04897 60.2369 3.13976 60.7235C3.49428 62.6609 4.94262 64.1074 6.8622 64.4466C7.27725 64.5181 8.18516 64.4734 8.60886 64.3618C10.6019 63.8306 11.9811 62.0136 11.9811 59.9199C11.9811 59.0717 11.7952 58.3396 11.3931 57.603C11.1856 57.219 11.1597 57.1476 11.1597 56.911C11.1597 56.5851 11.0602 55.9378 10.9175 55.3574C10.6927 54.4244 10.2215 53.1209 9.36545 51.0495C8.49212 48.9379 8.13328 47.9245 7.89982 46.8977C7.70094 46.0272 7.70527 46.0138 8.0252 46.6299C8.44889 47.4424 8.94608 48.3263 9.08875 48.5138C9.15793 48.6031 9.21413 48.6923 9.21413 48.7102C9.21413 48.7281 9.34383 48.9423 9.5038 49.1923C11.164 51.7771 13.3732 54.1744 15.8505 56.0851C18.7948 58.3574 22.1454 59.9779 25.7295 60.8619C30.8614 62.1297 36.4645 61.7815 41.3802 59.8886C45.1761 58.4244 48.4922 56.1967 51.3456 53.1878C53.209 51.2191 54.653 49.1745 55.9673 46.6299C56.2267 46.1254 56.2527 46.0897 56.2267 46.2727C56.1186 47.0093 55.6387 48.6164 55.2237 49.6209C55.1978 49.6834 55.0983 49.9334 54.9989 50.1789C54.8389 50.5762 54.7006 50.9021 54.4282 51.5405C54.0261 52.4646 53.3387 54.3619 53.1571 55.045C52.9842 55.7057 52.8372 56.5628 52.8372 56.9244C52.8372 57.1789 52.8199 57.2369 52.6426 57.536C52.5345 57.719 52.4481 57.8797 52.4481 57.8976C52.4481 57.911 52.4135 58.0092 52.3659 58.1163C52.0417 58.8663 51.9336 59.8351 52.0763 60.6699C52.34 62.219 53.3041 63.4824 54.6919 64.1074C54.9211 64.21 55.1545 64.3082 55.2151 64.3216C55.8203 64.4511 56.0797 64.4868 56.4688 64.4868C57.6837 64.4868 58.7775 64.0181 59.6163 63.1342C60.0183 62.7145 60.2259 62.4199 60.4377 61.9734C60.9825 60.8261 61.0733 59.6565 60.7058 58.4735C60.2648 57.0449 59.0542 55.8396 57.6794 55.4601C57.3508 55.3708 56.8666 55.2905 56.6331 55.2905C56.4948 55.2905 56.3824 55.2816 56.3824 55.2682C56.3824 55.2235 56.6893 54.3842 56.7758 54.1878C56.819 54.0807 56.8579 53.9825 56.8579 53.9691C56.8579 53.9512 56.9098 53.8173 56.9704 53.6655C57.1476 53.2414 57.1865 53.1476 57.3119 52.8352C57.4373 52.5182 57.5021 52.3619 57.6059 52.1209C57.7356 51.8173 58.2933 50.4021 58.3279 50.2905C58.3495 50.228 58.436 49.978 58.5224 49.7325C58.7819 48.9959 58.8035 48.9334 58.8035 48.8352C58.8035 48.7861 58.8294 48.6834 58.864 48.612C58.9548 48.4245 59.2142 47.362 59.318 46.7415C59.5255 45.5004 59.5255 44.1477 59.318 43.0361C59.1537 42.1745 58.8164 41.0183 58.5441 40.4022C58.3409 39.938 58.3193 39.8576 58.3625 39.7683C58.3841 39.7237 58.4273 39.5764 58.4533 39.4424C58.4792 39.3085 58.5397 39.0049 58.583 38.7728C58.6694 38.3308 58.7948 37.4826 58.8121 37.2103L58.8251 37.0541L59.6681 37.0273C60.4982 37.0005 60.9176 36.9425 61.3759 36.7862C61.7736 36.6523 61.9639 36.5585 62.327 36.3264C62.9366 35.9246 63.356 35.4514 63.6586 34.8219C64.0996 33.9068 64.1126 32.9068 63.7019 32.0541C63.3517 31.3354 62.6556 30.6523 61.9077 30.2997C61.7001 30.2015 61.1597 30.014 60.8571 29.9381C60.5285 29.8532 59.5168 29.7104 59.2488 29.7104C59.0888 29.7104 59.0715 29.6747 59.1839 29.5497C59.5341 29.1568 60.1308 28.2149 60.4593 27.5318C61.0343 26.3488 61.2937 25.206 61.2548 24.0408C61.2116 22.9069 60.9219 22.1346 60.2777 21.4337C59.5298 20.6257 58.5052 20.1882 57.5281 20.2596C57.0482 20.2953 56.7023 20.3935 56.1662 20.6391C56.0581 20.6882 55.9587 20.7149 55.9414 20.7016C55.9284 20.6837 55.8506 20.5498 55.7728 20.4025C55.6949 20.2551 55.5177 19.9337 55.375 19.6882C55.094 19.1971 55.1026 19.2864 55.2367 18.5498C55.3793 17.7596 55.5177 16.1704 55.5177 15.2909C55.5177 14.5141 55.3837 12.8177 55.2626 12.0097C55.107 11.0008 54.96 10.2999 54.7092 9.35346C54.4368 8.31776 54.0131 7.0767 53.65 6.22849C53.2911 5.38922 53.2263 5.25082 52.902 4.64369C51.8471 2.66603 50.6063 1.29551 49.426 0.799978C48.8856 0.576766 48.4965 0.500874 47.8869 0.500874C47.247 0.500874 46.9401 0.567837 46.4818 0.804442C45.803 1.15712 45.1113 1.91604 44.5838 2.88924C44.5319 2.98299 44.4584 3.12585 44.4152 3.20174C44.372 3.28209 44.212 3.59013 44.0607 3.88477C43.2911 5.40261 43.075 5.78653 42.3443 6.92938L41.8558 7.69723L41.5618 7.58116C40.9262 7.33116 39.5903 6.89366 38.8726 6.7017C34.3893 5.49636 29.6897 5.49189 25.2107 6.67938C24.4368 6.88474 23.1484 7.30437 22.4307 7.58562L22.1411 7.69723L21.7217 7.04098C21.151 6.14367 21.0386 5.96064 20.9262 5.75528C20.6884 5.32672 20.2301 4.46512 19.9794 3.97405C19.3611 2.75531 19.1579 2.41603 18.7126 1.84461C18.2198 1.20622 17.5842 0.750871 16.966 0.585694C16.7023 0.514267 15.9673 0.46516 15.6992 0.49641ZM16.5725 1.59015C16.9314 1.6705 17.3508 1.9205 17.6707 2.25086C18.103 2.69282 18.4835 3.30888 19.1796 4.68833C19.9707 6.25081 20.282 6.7642 22.8458 10.7374C25.669 15.1168 26.7368 16.7239 26.806 16.7016C27.0049 16.6391 28.3884 16.398 28.972 16.3177C31.177 16.032 33.0014 16.0498 35.2972 16.3891C35.7209 16.4516 36.3305 16.5587 36.6504 16.6257L37.2384 16.7462L37.6794 16.0766C38.9894 14.09 41.6958 9.90703 42.8285 8.12579C43.8056 6.5901 44.199 5.90707 44.8173 4.68833C45.5134 3.30888 45.8938 2.69282 46.3262 2.25086C47.0092 1.54551 47.8437 1.3714 48.8813 1.72408C49.6465 1.983 50.602 2.90263 51.3845 4.12137C53.4554 7.35348 54.666 12.157 54.4455 16.2373C54.385 17.3802 54.2942 18.0319 53.9829 19.6078C53.5462 21.8489 53.0966 23.7149 52.6859 25.014L52.4956 25.6122L52.6513 25.8622C52.8891 26.2417 53.1658 26.8756 53.2868 27.3086C53.8229 29.2193 53.6889 33.4112 52.9193 39.0407C52.3832 42.9558 51.4321 47.8977 51.0603 48.6745C50.8873 49.0361 50.5371 49.4066 50.0572 49.7325C49.2834 50.2504 48.423 50.5986 46.0624 51.3352C43.797 52.045 43.0274 52.353 42.34 52.8262C41.9725 53.0762 41.0386 54.0316 39.6292 55.603C36.966 58.5672 35.8462 59.5226 34.6487 59.8485C34.1688 59.9824 33.4035 60.0136 33.036 59.9154C32.6858 59.8217 32.327 59.6029 32.18 59.3887L32.0633 59.2279L31.8601 59.4467C31.4839 59.8485 30.9911 60.0047 30.2258 59.9645C29.6292 59.9288 29.1882 59.8083 28.6694 59.527C27.6231 58.9601 26.5423 57.9467 24.2595 55.3798C22.5259 53.4334 21.9509 52.8887 21.2116 52.5048C20.4766 52.1209 20.1004 51.9869 17.3205 51.1164C14.6746 50.2816 13.4554 49.5896 13.0187 48.67C12.8501 48.3084 12.5734 47.1299 12.1757 45.0897C11.4709 41.4692 10.9046 37.5094 10.6625 34.5541C10.6279 34.0853 10.589 33.6166 10.5803 33.505C10.5674 33.3934 10.5371 32.7104 10.5068 31.9827C10.4636 30.9425 10.4636 30.4604 10.5025 29.6836C10.5976 27.9158 10.7316 27.264 11.2072 26.2908L11.5142 25.6569L11.3196 25.0408C10.87 23.6122 10.416 21.7149 9.92749 19.2016C9.59891 17.5007 9.52109 16.7462 9.52109 15.3355C9.51677 13.1347 9.81076 11.1749 10.4766 8.90704C10.5717 8.57668 10.6798 8.22401 10.7143 8.12579C10.7489 8.02758 10.8181 7.83562 10.8657 7.70169C10.9132 7.56776 10.9694 7.41598 10.991 7.36687C11.0083 7.31777 11.0559 7.19723 11.0948 7.09902C11.2591 6.67045 11.3283 6.51867 11.7001 5.75975C12.608 3.92048 13.5289 2.69728 14.5146 2.03211C15.1026 1.63479 15.9457 1.45622 16.5725 1.59015ZM30.1307 8.17044C30.4247 9.11239 30.8268 9.50078 31.7736 9.75971C31.9682 9.81328 32.1195 9.87131 32.1065 9.88024C32.0935 9.89363 31.9292 9.95167 31.739 10.0097C31.2505 10.1526 30.8743 10.349 30.6625 10.5677C30.4506 10.7865 30.1826 11.3356 30.0745 11.7731C30.001 12.0588 29.9232 12.1749 29.9232 11.9963C29.9232 11.8266 29.6206 11.0231 29.4692 10.7999C29.2531 10.4784 28.9029 10.2418 28.3797 10.0677C28.1463 9.99185 27.9258 9.91595 27.8912 9.90256C27.8566 9.88917 28.0209 9.81328 28.2587 9.73292C28.7905 9.55882 28.9764 9.4606 29.2444 9.21953C29.4779 9.00525 29.7373 8.49633 29.8627 8.0008C29.9059 7.83562 29.9535 7.70169 29.9664 7.70169C29.9794 7.70169 30.0529 7.91151 30.1307 8.17044ZM34.065 11.4293C34.2552 11.8043 34.5406 12.0097 35.1459 12.2106C35.3534 12.282 35.4917 12.349 35.4571 12.3579C35.4226 12.3713 35.2583 12.4249 35.0896 12.474C34.4195 12.6749 34.1126 12.9918 33.8748 13.7195C33.8013 13.9516 33.7278 14.1213 33.7191 14.1034C33.7062 14.0811 33.6629 13.9427 33.6197 13.7954C33.5289 13.4561 33.3646 13.1168 33.2176 12.9516C33.0014 12.715 32.8155 12.6213 32.0417 12.3579C32.0071 12.3445 32.1627 12.2731 32.3919 12.1927C33.1009 11.9472 33.3776 11.6659 33.5894 10.9606C33.6456 10.7776 33.7018 10.5945 33.7148 10.5588C33.7278 10.5231 33.7883 10.6615 33.8532 10.8713C33.918 11.0811 34.0131 11.3311 34.065 11.4293ZM44.9945 55.0226C45.1545 55.2726 45.4096 55.4467 45.8333 55.5896C46.0235 55.6521 46.1662 55.7191 46.1489 55.7369C46.1316 55.7503 45.9976 55.7994 45.8549 55.844C45.1934 56.0494 44.9513 56.3128 44.7308 57.0539L44.64 57.3619L44.5233 56.9869C44.3201 56.3262 44.065 56.0583 43.4338 55.8485L43.0533 55.7191L43.3949 55.603C44.1212 55.353 44.3201 55.1432 44.5363 54.4021L44.6357 54.0717L44.7568 54.4557C44.8216 54.6655 44.9297 54.9244 44.9945 55.0226ZM19.8627 55.1432C20.0529 55.4512 20.3642 55.6521 20.9305 55.8262L21.2548 55.9289L20.9824 56.0092C20.602 56.1208 20.1999 56.3262 20.0269 56.5003C19.8627 56.6655 19.6681 57.0673 19.5514 57.4869C19.5038 57.6431 19.4606 57.7369 19.4476 57.7012C19.4346 57.6655 19.3828 57.4914 19.3266 57.3217C19.0974 56.5717 18.838 56.3039 18.0857 56.0539C17.8825 55.9824 17.7355 55.9199 17.7572 55.9065C17.7788 55.8932 17.9128 55.8485 18.0511 55.8039C18.41 55.7012 18.7645 55.5048 18.9245 55.3262C19.0931 55.1432 19.2574 54.8173 19.3525 54.4646C19.3957 54.3173 19.439 54.1789 19.4519 54.1566C19.4606 54.1387 19.5341 54.3084 19.6076 54.536C19.6854 54.7682 19.7978 55.0405 19.8627 55.1432ZM8.10302 56.4289C9.8367 56.7414 11.0256 58.2681 10.9305 60.0672C10.9003 60.6297 10.8224 60.9467 10.5933 61.4377C10.1869 62.3172 9.43895 62.9734 8.50077 63.2815C8.12031 63.402 7.38533 63.4511 7.00055 63.3752C6.76277 63.3306 6.19208 63.1609 6.15317 63.1208C6.13587 63.1118 6.59415 62.3217 7.09999 61.4868C7.32048 61.1208 7.34642 61.094 7.54962 61.0315C7.98629 60.8931 8.26298 60.5181 8.26298 60.0628C8.25866 59.2279 7.36804 58.7726 6.70656 59.2681C6.41257 59.4913 6.25693 59.9467 6.35637 60.3128C6.3996 60.4824 6.39528 60.5047 6.21802 60.7904C5.42251 62.0984 5.21067 62.4333 5.17176 62.4199C5.06799 62.3842 4.63998 61.7949 4.49298 61.4824C4.22493 60.9244 4.13846 60.5315 4.13846 59.8886C4.13846 59.4422 4.15576 59.2592 4.23358 58.9779C4.33734 58.6119 4.65295 57.9244 4.72212 57.9244C4.74374 57.9244 4.76103 57.8976 4.76103 57.8663C4.76103 57.7726 5.33172 57.1789 5.6041 56.9958C6.07535 56.6744 6.42122 56.5271 6.94435 56.4289C7.35507 56.3485 7.66203 56.3485 8.10302 56.4289ZM57.0309 56.4244C57.7745 56.5628 58.3538 56.8798 58.8813 57.4289C59.0758 57.6342 59.2358 57.8262 59.2358 57.8619C59.2358 57.8976 59.2531 57.9244 59.2747 57.9244C59.3439 57.9244 59.6595 58.6074 59.7503 58.9512C60.0356 60.0092 59.8195 61.161 59.1753 62.027C58.9764 62.2904 58.8121 62.4601 58.7862 62.4288C58.7775 62.4199 58.6046 62.1386 58.4014 61.8083C58.2025 61.4779 57.9345 61.0494 57.8134 60.8574C57.5929 60.5181 57.5929 60.5092 57.6405 60.3217C57.8826 59.3887 56.7888 58.6699 56.0797 59.2949C55.4788 59.8262 55.6863 60.7949 56.4472 61.0315C56.6504 61.094 56.6764 61.1208 56.8969 61.4868C57.4027 62.3217 57.861 63.1118 57.8437 63.1208C57.8048 63.1609 57.2341 63.3306 56.9963 63.3752C56.6115 63.4511 55.8765 63.402 55.4961 63.2815C54.5925 62.9868 53.8921 62.3886 53.4468 61.5404C52.7464 60.1878 53.0101 58.4422 54.0823 57.3619C54.8346 56.5985 55.9933 56.2324 57.0309 56.4244Z" fill="#5959A8"/>
<path d="M14.7484 4.58097C14.2944 4.67472 13.8664 4.94257 13.5594 5.3265C13.032 5.98274 12.3878 7.7729 12.0506 9.49609C11.5707 11.9514 11.5058 14.9693 11.8733 17.5451C12.2278 20.0049 12.9282 21.8129 13.875 22.7192L14.0091 22.8486L14.4111 22.5138C16.3869 20.8933 19.0588 19.3397 21.6442 18.3085C21.9295 18.1924 22.2062 18.0808 22.2538 18.0585C22.3835 18.0049 22.457 17.5317 22.4527 16.8085C22.4483 15.9692 22.2711 15.371 21.882 14.8889C21.4842 14.3934 20.706 13.0318 19.6338 10.938C19.3441 10.3711 18.6221 8.90235 18.0255 7.66576C17.0311 5.60774 16.923 5.40239 16.7069 5.17918C16.2054 4.66132 15.4617 4.43811 14.7484 4.58097Z" fill="#5959A8"/>
<path d="M48.341 4.5769C48.0081 4.64833 47.5455 4.91619 47.2904 5.18404C47.0656 5.41172 46.9661 5.59921 45.9934 7.62598C44.2467 11.2554 42.8416 13.9116 42.245 14.7107C41.8991 15.1705 41.8213 15.3134 41.7046 15.6661C41.5576 16.1214 41.5014 16.7107 41.5576 17.2866C41.6354 18.1303 41.5662 18.0366 42.2882 18.3268C45.0163 19.4294 47.593 20.8937 49.5299 22.4473C49.7461 22.6214 49.9406 22.7776 49.9666 22.7955C49.9925 22.8178 50.1006 22.7419 50.2389 22.599C51.2766 21.541 51.9986 19.2643 52.2839 16.1616C52.3574 15.3313 52.3574 12.6974 52.2839 11.8983C52.0548 9.4831 51.6095 7.64384 50.8874 6.11707C50.7491 5.82243 50.5459 5.46529 50.4378 5.3269C50.2087 5.03226 49.8066 4.74208 49.491 4.64387C49.2186 4.55458 48.6004 4.52333 48.341 4.5769Z" fill="#5959A8"/>
<path d="M31.3847 18.8669C31.1686 18.9651 31.0691 19.0321 31.0778 19.0767C31.0864 19.1035 31.0648 19.1169 31.0302 19.1035C30.9956 19.0901 30.9308 19.1348 30.8789 19.2062C30.8313 19.2732 30.7751 19.3491 30.7535 19.3759C30.6757 19.4785 30.6454 19.5455 30.693 19.5142C30.7276 19.4919 30.7362 19.5053 30.7189 19.55C30.706 19.5901 30.6757 19.608 30.6541 19.5946C30.6152 19.5723 30.5979 19.6616 30.6065 19.8223C30.6152 19.8892 30.6065 19.8937 30.5763 19.8535C30.5287 19.7732 30.4811 19.9562 30.5114 20.1125C30.5287 20.2017 30.5244 20.2107 30.4898 20.1571C30.4509 20.108 30.4466 20.1348 30.4638 20.2821C30.4768 20.4026 30.4682 20.4651 30.4422 20.4473C30.4163 20.4339 30.399 20.4562 30.3947 20.5008C30.3904 20.5455 30.3817 20.7107 30.3731 20.8714C30.3428 21.4026 30.3341 22.2017 30.3601 22.1883C30.3731 22.1794 30.386 22.3356 30.3904 22.5365C30.399 23.0187 30.412 23.1437 30.4552 23.1169C30.4725 23.108 30.4855 23.2196 30.4811 23.3624C30.4768 23.5097 30.4898 23.6526 30.5071 23.6838C30.5244 23.7106 30.546 23.8401 30.5503 23.9651C30.5676 24.2776 30.6108 24.5722 30.6584 24.7329C30.6843 24.8044 30.7103 24.9651 30.7276 25.0901C30.7405 25.2106 30.7708 25.3401 30.7967 25.3713C30.8227 25.4026 30.8313 25.4383 30.8184 25.4517C30.8054 25.4651 30.8227 25.5722 30.853 25.6838C30.8875 25.7999 30.9265 25.9829 30.9394 26.0945C30.9567 26.2017 30.987 26.3267 31.0086 26.3713C31.0345 26.416 31.0605 26.5142 31.0691 26.5856C31.0778 26.6615 31.1124 26.782 31.1513 26.8535C31.1859 26.9293 31.1945 26.9874 31.1729 26.9874C31.1469 26.9874 31.1469 27.0186 31.1729 27.0677C31.1988 27.1168 31.2507 27.2999 31.2896 27.4829C31.3285 27.6659 31.3718 27.8311 31.3847 27.8579C31.3977 27.8802 31.415 27.9427 31.4193 28.0008C31.428 28.0543 31.4626 28.1481 31.4971 28.2017C31.536 28.2552 31.5663 28.349 31.5663 28.4025C31.5663 28.4606 31.6009 28.6034 31.6485 28.724C31.6917 28.849 31.7176 28.9561 31.7047 28.9695C31.6917 28.9874 31.7047 28.9963 31.7349 28.9963C31.7695 28.9963 31.7825 29.0231 31.7652 29.0677C31.7522 29.1079 31.7782 29.2061 31.8257 29.2865C31.8733 29.3624 31.8992 29.4382 31.8862 29.4516C31.856 29.4874 31.9597 29.8445 31.9987 29.8445C32.0159 29.8445 32.0419 29.9293 32.0592 30.0275C32.0938 30.2507 32.1197 30.2373 32.1543 29.974C32.1673 29.8668 32.2191 29.6882 32.2667 29.5856C32.3143 29.4784 32.3402 29.3802 32.3272 29.3668C32.3186 29.3534 32.3272 29.2909 32.3532 29.224C32.431 29.0141 32.5175 28.6347 32.4958 28.5945C32.4829 28.5722 32.4915 28.5409 32.5175 28.5275C32.5434 28.5097 32.552 28.4561 32.5348 28.407C32.5175 28.34 32.5218 28.3267 32.5607 28.349C32.5953 28.3713 32.6083 28.3668 32.591 28.34C32.5737 28.3133 32.591 28.2284 32.6299 28.1525C32.6645 28.0767 32.6861 27.9963 32.6731 27.974C32.6601 27.9517 32.6774 27.8713 32.7163 27.7954C32.7509 27.7195 32.7682 27.6392 32.7552 27.6124C32.738 27.5856 32.7466 27.5409 32.7682 27.5097C32.7942 27.4784 32.8201 27.3936 32.8331 27.3133C32.846 27.2374 32.8677 27.1526 32.8806 27.1258C32.8979 27.1035 32.9109 26.974 32.9152 26.8445C32.9152 26.7151 32.9282 26.6392 32.9412 26.6749C32.9541 26.7106 32.993 26.6124 33.0233 26.4517C33.0579 26.291 33.0968 26.1124 33.1098 26.0499C33.1227 25.9874 33.1357 25.8669 33.14 25.782C33.1444 25.6972 33.1616 25.6035 33.1789 25.5722C33.2135 25.5186 33.2611 25.1347 33.2654 24.9204C33.2654 24.8535 33.2827 24.7999 33.3043 24.7999C33.3259 24.7999 33.3389 24.7731 33.3303 24.7419C33.3259 24.7151 33.3432 24.6169 33.3692 24.532C33.3951 24.4472 33.4211 24.3446 33.4211 24.3088C33.434 24.1615 33.4643 23.916 33.4945 23.7062C33.5162 23.5812 33.5335 23.3267 33.5335 23.1347C33.5335 22.9472 33.5508 22.791 33.5724 22.791C33.5897 22.791 33.5983 22.6705 33.5853 22.5231C33.5724 22.3535 33.581 22.2508 33.6156 22.2374C33.6502 22.224 33.6502 22.2151 33.6113 22.2151C33.5767 22.2106 33.5724 22.1705 33.5983 22.0723C33.6199 21.9919 33.6286 21.916 33.6199 21.8981C33.607 21.8758 33.5983 21.7062 33.594 21.5142C33.5897 21.3044 33.568 21.1482 33.5378 21.1303C33.5032 21.1035 33.5032 21.0946 33.5421 21.0946C33.581 21.0946 33.5853 21.0633 33.5508 20.9741C33.5291 20.9116 33.5118 20.8267 33.5162 20.7866C33.5335 20.6392 33.46 20.291 33.4124 20.3223C33.3865 20.3401 33.3778 20.3133 33.3908 20.2553C33.4081 20.2017 33.4038 20.166 33.3821 20.1794C33.3648 20.1883 33.3389 20.1214 33.3216 20.0232C33.3086 19.925 33.2741 19.8446 33.2481 19.8446C33.2265 19.8446 33.2135 19.8267 33.2265 19.8044C33.2395 19.7821 33.2222 19.7419 33.1876 19.7107C33.153 19.6794 33.1357 19.6392 33.1487 19.6169C33.1789 19.5634 32.7034 19.0723 32.6515 19.1035C32.6299 19.1169 32.5996 19.0991 32.5866 19.0589C32.5737 19.0232 32.5434 19.0053 32.5175 19.0187C32.4958 19.0321 32.4742 19.0232 32.4742 18.9919C32.4742 18.9562 32.4569 18.9562 32.4094 18.9964C32.3532 19.0455 32.3488 19.041 32.3661 18.9875C32.3921 18.9205 32.3488 18.9071 32.1197 18.8982C32.0549 18.8937 32.0073 18.8803 32.0159 18.8669C32.0376 18.8312 31.4626 18.8312 31.3847 18.8669ZM32.431 19.1303C32.431 19.1526 32.4094 19.175 32.3834 19.175C32.3618 19.175 32.3532 19.1526 32.3661 19.1303C32.3791 19.1035 32.4007 19.0857 32.4137 19.0857C32.4223 19.0857 32.431 19.1035 32.431 19.1303ZM32.6472 19.2196C32.6817 19.2419 32.6947 19.2642 32.6688 19.2642C32.6472 19.2642 32.5953 19.2419 32.5607 19.2196C32.5261 19.1973 32.5175 19.175 32.5391 19.175C32.565 19.175 32.6126 19.1973 32.6472 19.2196ZM32.9498 19.4205C32.9974 19.4785 32.993 19.483 32.9325 19.4607C32.8936 19.4473 32.8633 19.416 32.8633 19.3937C32.8633 19.3357 32.8893 19.3446 32.9498 19.4205ZM33.4989 21.416C33.4859 21.4517 33.4729 21.4383 33.4729 21.3892C33.4686 21.3401 33.4816 21.3133 33.4945 21.3312C33.5075 21.3446 33.5118 21.3848 33.4989 21.416ZM31.1642 26.4606C31.1513 26.4963 31.1383 26.4829 31.1383 26.4338C31.134 26.3847 31.1469 26.3579 31.1599 26.3758C31.1729 26.3892 31.1772 26.4294 31.1642 26.4606ZM32.2451 29.4516C32.2321 29.4874 32.2191 29.474 32.2191 29.4249C32.2148 29.3757 32.2278 29.349 32.2408 29.3668C32.2537 29.3802 32.2581 29.4204 32.2451 29.4516Z" fill="#5959A8"/>
<path d="M16.5944 23.7015C16.4949 23.7283 16.4431 23.7685 16.4647 23.7908C16.482 23.8131 16.4776 23.8176 16.4474 23.8042C16.2485 23.6837 15.6821 24.3578 15.7729 24.6078C15.7902 24.6524 15.7816 24.6703 15.7556 24.6524C15.7038 24.6167 15.6908 24.6926 15.6951 25.1346C15.6994 25.4738 15.7556 25.6703 15.9199 25.9604C15.9415 25.9962 15.9761 26.0676 15.9977 26.1167C16.0453 26.2283 16.5684 26.7461 16.616 26.7283C16.6333 26.7238 16.6506 26.7417 16.6506 26.7685C16.6506 26.7908 16.6722 26.7997 16.7025 26.7819C16.7284 26.764 16.737 26.7685 16.7241 26.7952C16.7068 26.822 16.7284 26.8711 16.7673 26.9024C16.8278 26.956 16.8365 26.956 16.8062 26.8979C16.7889 26.8622 16.8019 26.8667 16.8408 26.9158C16.8754 26.9604 16.9489 27.0006 17.0094 27.0051C17.0656 27.0051 17.1132 27.0319 17.1132 27.0631C17.1132 27.0944 17.0916 27.1033 17.0699 27.0899C17.044 27.0765 17.0397 27.0854 17.057 27.1122C17.0743 27.1435 17.1262 27.1658 17.1737 27.1658C17.2169 27.1658 17.2559 27.1881 17.2559 27.2149C17.2559 27.2372 17.2775 27.2461 17.2991 27.2327C17.325 27.2194 17.3423 27.2283 17.3423 27.2551C17.3423 27.2819 17.3596 27.2952 17.3812 27.2819C17.4028 27.264 17.4288 27.2685 17.4374 27.2908C17.4677 27.3667 17.7358 27.5274 17.779 27.4961C17.8092 27.4783 17.8179 27.4827 17.8049 27.5095C17.792 27.5318 17.8698 27.5988 17.9822 27.6613C18.0946 27.7193 18.2373 27.8042 18.3021 27.8488C18.3713 27.8935 18.4448 27.9158 18.4707 27.8979C18.501 27.8801 18.5096 27.8845 18.4923 27.9158C18.4794 27.9426 18.5183 27.9738 18.5961 27.9917C18.6653 28.0095 18.7258 28.0408 18.7258 28.0586C18.7258 28.081 18.7561 28.0899 18.7907 28.0765C18.8252 28.0586 18.8555 28.072 18.8555 28.0988C18.8555 28.1211 18.8987 28.1658 18.9463 28.197C19.0112 28.2327 19.0284 28.2327 19.0112 28.197C18.9939 28.1702 19.0025 28.1479 19.0241 28.1479C19.0501 28.1479 19.0717 28.1792 19.0717 28.2193C19.0717 28.2551 19.0933 28.2729 19.1149 28.2595C19.1409 28.2461 19.1581 28.2551 19.1581 28.2818C19.1581 28.3086 19.1754 28.322 19.1971 28.3042C19.223 28.2908 19.2533 28.3042 19.2749 28.3354C19.3181 28.4068 19.6337 28.572 19.7072 28.5631C19.7375 28.5631 19.7548 28.572 19.7461 28.5899C19.7332 28.6033 19.8023 28.6613 19.8974 28.7149C19.9926 28.7684 20.0574 28.7863 20.0401 28.7595C20.0272 28.7283 20.0401 28.7372 20.0747 28.7729C20.1741 28.889 20.3687 29.0006 20.4206 28.9693C20.4508 28.947 20.4552 28.9559 20.4335 28.9961C20.4076 29.0408 20.4163 29.0497 20.4725 29.0274C20.5114 29.0095 20.5373 29.014 20.52 29.0363C20.4898 29.0899 20.7535 29.2283 20.814 29.1881C20.8399 29.1702 20.8443 29.1836 20.8227 29.2193C20.7967 29.264 20.8054 29.2729 20.8616 29.2506C20.9048 29.2327 20.9264 29.2372 20.9091 29.264C20.8789 29.3175 21.0475 29.4113 21.1123 29.3711C21.1426 29.3488 21.1469 29.3577 21.1253 29.3979C21.0994 29.4425 21.1123 29.4515 21.1815 29.4336C21.2291 29.4202 21.3112 29.4336 21.3588 29.4693C21.402 29.505 21.4798 29.5184 21.523 29.505C21.5965 29.4827 21.5965 29.4827 21.5274 29.5318C21.4668 29.5675 21.4236 29.5631 21.3328 29.5006C21.2161 29.4247 21.2161 29.4247 21.2723 29.5006C21.3544 29.6077 21.5576 29.7149 21.6009 29.6747C21.6138 29.6568 21.6225 29.6747 21.6138 29.7104C21.6095 29.7461 21.6268 29.7729 21.6571 29.764C21.683 29.7595 21.709 29.7774 21.709 29.8041C21.709 29.8265 21.7306 29.8354 21.7522 29.822C21.7781 29.8041 21.8559 29.8577 21.9294 29.9291C22.0029 30.005 22.1067 30.0899 22.1543 30.1166C22.2451 30.1613 22.2451 30.1613 22.1672 30.0943C22.1197 30.0541 22.1024 30.0229 22.1326 30.0229C22.1586 30.0229 22.2061 30.0586 22.2364 30.1033C22.2667 30.1479 22.392 30.2506 22.5088 30.3354C22.6298 30.4202 22.7725 30.5318 22.8287 30.5809C22.8936 30.6345 22.9195 30.6434 22.8979 30.6032C22.8763 30.5675 22.9152 30.5943 22.9844 30.6613C23.0795 30.7595 23.1357 30.7818 23.2178 30.7595C23.3259 30.7327 23.3259 30.7327 23.2438 30.7997C23.1919 30.8399 23.1789 30.8666 23.2135 30.8711C23.274 30.8711 23.2827 30.8756 23.5377 31.0988C23.6977 31.2372 23.702 31.2372 23.7972 31.1568C23.8923 31.072 23.8923 31.072 23.8144 31.1657C23.7453 31.255 23.7453 31.2595 23.8188 31.3309C23.862 31.3756 23.9225 31.4068 23.9485 31.4068C23.9787 31.4068 24.0004 31.4247 24.0004 31.4515C24.0004 31.4738 24.022 31.4961 24.0479 31.4961C24.0825 31.4961 24.0825 31.4782 24.0522 31.4381C24.0263 31.4113 24.0047 31.3622 24.0004 31.3398C23.996 31.3131 23.9614 31.2997 23.9225 31.3086C23.8534 31.322 23.8534 31.3175 23.9225 31.2461C23.9701 31.197 23.9831 31.1479 23.9571 31.0988C23.9398 31.0586 23.9009 30.9425 23.8706 30.8354C23.8447 30.7238 23.8058 30.6568 23.7755 30.6747C23.7453 30.6925 23.7409 30.6702 23.7626 30.6032C23.7842 30.5407 23.7755 30.514 23.7496 30.5318C23.7237 30.5452 23.715 30.5229 23.728 30.4782C23.7366 30.4291 23.715 30.3622 23.6761 30.322C23.6372 30.2818 23.6156 30.2282 23.6285 30.2059C23.6458 30.1836 23.6329 30.1568 23.6112 30.1479C23.5853 30.139 23.555 30.072 23.5421 30.0006C23.5334 29.9247 23.4815 29.8086 23.4297 29.7372C23.3821 29.6658 23.3605 29.6211 23.3864 29.639C23.4556 29.6791 23.1011 28.9693 22.9281 28.7104C22.846 28.5943 22.8028 28.5095 22.8287 28.5229C22.8547 28.5408 22.8374 28.4872 22.7898 28.3979C22.7379 28.3131 22.6687 28.2327 22.6342 28.2193C22.5952 28.2059 22.5736 28.1613 22.5909 28.1256C22.6039 28.0899 22.5909 28.0497 22.565 28.0318C22.5347 28.0095 22.5304 28.0229 22.552 28.0586C22.5736 28.0988 22.5693 28.1077 22.539 28.0854C22.5088 28.0676 22.4872 28.014 22.4872 27.9649C22.4872 27.9202 22.4655 27.8801 22.4396 27.8801C22.418 27.8801 22.4093 27.8577 22.4223 27.8354C22.4353 27.8086 22.4266 27.7908 22.405 27.7908C22.3791 27.7908 22.3575 27.764 22.3575 27.7327C22.3531 27.6345 22.1888 27.4693 22.1326 27.5051C22.0981 27.5274 22.1024 27.5095 22.1413 27.456C22.1802 27.4069 22.1845 27.3845 22.1543 27.4069C22.1197 27.4247 22.0981 27.4113 22.0981 27.3667C22.0981 27.322 22.0764 27.3086 22.0462 27.3265C22.0202 27.3444 22.0116 27.3399 22.0246 27.3131C22.0419 27.2863 22.0159 27.2194 21.9727 27.1613C21.9078 27.0765 21.8819 27.0676 21.8257 27.1122C21.7738 27.1569 21.7522 27.1524 21.7046 27.0899C21.6527 27.0185 21.6527 27.014 21.7133 27.0676C21.7695 27.1122 21.7954 27.1122 21.8343 27.0586C21.9122 26.9649 21.7781 26.8667 21.6787 26.947C21.6052 27.0051 21.6052 27.0051 21.6744 26.9202C21.7435 26.8354 21.7392 26.822 21.5749 26.639C21.4755 26.5229 21.389 26.4604 21.3588 26.4783C21.3285 26.4961 21.3198 26.4917 21.3328 26.4649C21.3501 26.4381 21.3198 26.3622 21.268 26.2953C21.1988 26.2015 21.1685 26.1881 21.1383 26.2372C21.1037 26.2819 21.0994 26.2774 21.1166 26.2194C21.1339 26.1747 21.1037 26.1211 21.0345 26.0765C20.9783 26.0363 20.9307 25.9738 20.9307 25.9426C20.9307 25.9069 20.8962 25.8845 20.8572 25.889C20.814 25.889 20.7794 25.8622 20.7794 25.8265C20.7794 25.7462 20.667 25.6479 20.6108 25.6792C20.5892 25.697 20.5849 25.6881 20.5978 25.6613C20.6411 25.5899 20.2952 25.2729 20.1655 25.2685C20.105 25.2685 20.0444 25.2417 20.0315 25.2104C20.0228 25.1837 20.0358 25.1569 20.0661 25.1569C20.092 25.1569 20.1006 25.1747 20.0877 25.2015C20.0747 25.2238 20.0834 25.2462 20.105 25.2462C20.1309 25.2462 20.1525 25.2283 20.1525 25.2015C20.1525 25.1435 19.9969 25.0631 19.958 25.1033C19.9364 25.1212 19.9364 25.1122 19.9493 25.0854C19.9839 25.0185 19.8283 24.8712 19.7634 24.9113C19.7418 24.9247 19.7332 24.9604 19.7461 24.9872C19.7634 25.0185 19.7548 25.0229 19.7245 25.0051C19.6986 24.9872 19.6856 24.956 19.6986 24.9337C19.7332 24.8801 19.6726 24.7506 19.6294 24.7819C19.6078 24.7953 19.6035 24.8265 19.6164 24.8533C19.6337 24.8846 19.6251 24.889 19.5991 24.8712C19.5732 24.8533 19.5602 24.8131 19.5732 24.7819C19.5862 24.7417 19.5429 24.6971 19.4651 24.6613C19.3916 24.6256 19.3311 24.581 19.3311 24.5631C19.3311 24.5408 19.3138 24.5363 19.2922 24.5497C19.2706 24.5631 19.2446 24.5497 19.2316 24.5185C19.1971 24.4247 17.9217 23.7864 17.8741 23.8355C17.8568 23.8489 17.8741 23.8622 17.9044 23.8622C17.9346 23.8622 17.9476 23.8756 17.9346 23.8935C17.9173 23.9069 17.8698 23.8846 17.8222 23.8444C17.779 23.8042 17.6968 23.764 17.6406 23.7596C17.5844 23.7596 17.5282 23.7417 17.5153 23.7239C17.4763 23.6658 16.7673 23.648 16.5944 23.7015ZM16.4387 26.5274C16.4949 26.5988 16.4906 26.6033 16.4258 26.5453C16.3523 26.4872 16.3306 26.4515 16.3652 26.4515C16.3739 26.4515 16.4085 26.4872 16.4387 26.5274ZM21.5403 26.6613C21.5965 26.7372 21.5965 26.7372 21.5187 26.6747C21.4409 26.6122 21.4366 26.6167 21.4668 26.697C21.4885 26.764 21.4841 26.7729 21.4452 26.7328C21.4193 26.706 21.4106 26.6613 21.4236 26.6345C21.4625 26.572 21.4712 26.572 21.5403 26.6613ZM23.2135 29.3309C23.2005 29.3443 23.1746 29.322 23.1616 29.2774C23.1357 29.2149 23.14 29.2104 23.1832 29.2506C23.2135 29.2818 23.2265 29.3175 23.2135 29.3309Z" fill="#5959A8"/>
<path d="M46.7629 23.6703C46.6678 23.6792 46.5597 23.7015 46.5251 23.7149C46.4905 23.7328 46.4127 23.7506 46.3565 23.7551C46.3003 23.764 46.2225 23.7997 46.1836 23.8355C46.1403 23.8756 46.0885 23.9069 46.0668 23.9069C46.0452 23.9069 46.0582 23.8846 46.0928 23.8578C46.1403 23.8221 46.1317 23.8176 46.0539 23.8444C45.842 23.9024 45.7037 23.9828 45.7339 24.0185C45.7556 24.0363 45.7426 24.0408 45.7167 24.023C45.6605 23.9917 44.9384 24.3622 44.8001 24.4917C44.7612 24.5319 44.6531 24.5988 44.5666 24.6435C44.4672 24.6881 44.411 24.7506 44.4153 24.7908C44.424 24.8265 44.4023 24.8622 44.3721 24.8712C44.3418 24.8756 44.3375 24.8712 44.3634 24.8578C44.385 24.8488 44.398 24.8176 44.385 24.7953C44.3678 24.7729 44.3375 24.7729 44.3072 24.7997C44.277 24.8265 44.2035 24.889 44.1343 24.9381C44.0694 24.9872 44.0262 25.0453 44.0392 25.0676C44.0521 25.0899 44.0176 25.1122 43.9657 25.1212C43.9052 25.1301 43.8662 25.1613 43.8706 25.2104C43.8749 25.2551 43.8533 25.2729 43.8187 25.2596C43.7495 25.2328 43.3604 25.5988 43.3993 25.6613C43.4123 25.6837 43.408 25.697 43.3863 25.6792C43.3301 25.6479 43.2177 25.7462 43.2177 25.8265C43.2177 25.8622 43.1831 25.889 43.1442 25.889C43.101 25.8845 43.0664 25.9069 43.0664 25.9426C43.0664 25.9738 43.0189 26.0363 42.9627 26.0765C42.8935 26.1211 42.8632 26.1747 42.8805 26.2194C42.8978 26.2774 42.8935 26.2819 42.8589 26.2372C42.8286 26.1881 42.7984 26.2015 42.7249 26.2997C42.6514 26.3979 42.6427 26.4336 42.686 26.4917C42.7378 26.5542 42.7335 26.5542 42.6687 26.5006C42.5995 26.447 42.5735 26.4604 42.4395 26.6122C42.3574 26.7104 42.2968 26.8131 42.3098 26.8399C42.3185 26.8711 42.3012 26.8979 42.2709 26.8979C42.1715 26.8979 42.1109 27.0095 42.1715 27.0765C42.2104 27.1211 42.2104 27.1256 42.1671 27.1033C42.0936 27.0586 41.9856 27.1524 41.9856 27.264C41.9856 27.3131 41.9683 27.3354 41.938 27.3176C41.9077 27.2997 41.8991 27.3265 41.9077 27.3935C41.9164 27.4649 41.8991 27.4961 41.8645 27.4872C41.7997 27.4738 41.644 27.6479 41.6397 27.7327C41.6397 27.764 41.6224 27.7908 41.5965 27.7908C41.5748 27.7908 41.5575 27.8042 41.5619 27.822C41.5705 27.8711 41.4754 28.1033 41.4451 28.1033C41.4278 28.1033 41.4322 28.081 41.4495 28.0497C41.4668 28.0185 41.4624 28.014 41.4322 28.0318C41.4062 28.0497 41.3933 28.0899 41.4062 28.1256C41.4235 28.1613 41.4019 28.2059 41.363 28.2193C41.3284 28.2327 41.2592 28.3131 41.2074 28.3979C41.1598 28.4872 41.1425 28.5408 41.1684 28.5229C41.1944 28.5095 41.1511 28.5943 41.069 28.7104C40.8615 29.0184 40.641 29.4872 40.6756 29.5408C40.6885 29.5675 40.6799 29.5765 40.6583 29.5631C40.6323 29.5452 40.5978 29.5631 40.5848 29.6033C40.5675 29.6479 40.5761 29.6613 40.615 29.639C40.641 29.6211 40.6367 29.6434 40.5978 29.6925C40.5026 29.8041 40.3384 30.2015 40.3643 30.2461C40.3773 30.2684 40.3643 30.2907 40.3384 30.2997C40.3124 30.3086 40.2865 30.3666 40.2865 30.4336C40.2821 30.4961 40.2605 30.5407 40.2389 30.5274C40.2216 30.514 40.2173 30.5497 40.2346 30.6032C40.2519 30.6657 40.2476 30.6925 40.2216 30.6747C40.2 30.6613 40.1784 30.6747 40.1827 30.7059C40.1827 30.7327 40.1784 30.8086 40.1741 30.8711C40.1697 30.9604 40.1611 30.9693 40.1265 30.9157C40.0919 30.8577 40.0833 30.8577 40.0789 30.9247C40.0703 31.0095 40.0573 31.0854 40.04 31.1032C40.0357 31.1166 40.0141 31.197 39.9838 31.3265C39.9795 31.3577 39.9579 31.4113 39.9406 31.4381C39.919 31.4738 39.9233 31.4961 39.9492 31.4961C39.9752 31.4961 39.9968 31.4738 39.9968 31.4515C39.9968 31.4247 40.0184 31.4068 40.0487 31.4068C40.0746 31.4068 40.1352 31.3756 40.1784 31.3309C40.2519 31.2595 40.2519 31.255 40.1827 31.1657C40.1049 31.072 40.1049 31.072 40.2 31.1568C40.2951 31.2372 40.2994 31.2372 40.4594 31.0988C40.7145 30.8756 40.7231 30.8711 40.7837 30.8711C40.8182 30.8666 40.8053 30.8399 40.7534 30.7997C40.6713 30.7327 40.6713 30.7327 40.7793 30.7595C40.8615 30.7818 40.9177 30.7595 41.0128 30.6613C41.082 30.5943 41.1209 30.5675 41.0993 30.6032C41.0777 30.6434 41.1036 30.6345 41.1684 30.5809C41.2246 30.5318 41.3716 30.4202 41.4884 30.3354C41.6094 30.2506 41.7305 30.1524 41.7607 30.1122C41.7997 30.0675 41.8083 30.0675 41.7867 30.1077C41.7651 30.1524 41.7737 30.1613 41.817 30.1345C41.9294 30.0631 42.1801 29.8666 42.2104 29.822C42.232 29.7952 42.245 29.7952 42.245 29.822C42.245 29.8443 42.2752 29.8175 42.3141 29.764C42.3487 29.7104 42.3963 29.6747 42.4179 29.6881C42.4741 29.7238 42.9021 29.4202 42.8589 29.3756C42.8416 29.3577 42.8589 29.3533 42.8935 29.3622C42.9843 29.3934 43.1183 29.3175 43.0837 29.255C43.0664 29.2283 43.0707 29.2193 43.101 29.2372C43.1659 29.2774 43.5074 29.0899 43.4685 29.0274C43.4555 29.0006 43.4642 28.9961 43.4901 29.014C43.5463 29.0497 43.8879 28.8711 43.8879 28.8086C43.8879 28.7908 43.9008 28.7774 43.9224 28.7818C43.9614 28.7952 44.2467 28.639 44.2813 28.5854C44.2943 28.5631 44.3159 28.5452 44.3245 28.5497C44.3721 28.572 44.705 28.3979 44.7266 28.3443C44.7396 28.3042 44.7698 28.2908 44.7958 28.3042C44.8174 28.3176 44.839 28.3086 44.839 28.2863C44.839 28.2595 44.852 28.2417 44.8736 28.2417C44.9557 28.2551 45.0163 28.2327 44.9903 28.197C44.9774 28.1747 44.9903 28.139 45.0163 28.1211C45.0509 28.1033 45.0552 28.1077 45.0379 28.139C44.9946 28.2149 45.0811 28.2059 45.1546 28.1256C45.1892 28.0899 45.2281 28.0765 45.2454 28.0899C45.2584 28.1077 45.2713 28.0943 45.2713 28.0676C45.2713 28.0408 45.3319 28.0095 45.401 27.9917C45.4789 27.9738 45.5178 27.9426 45.5048 27.9158C45.4875 27.8845 45.4962 27.8801 45.5264 27.8979C45.5524 27.9158 45.6259 27.8935 45.695 27.8488C45.7599 27.8042 45.9026 27.7193 46.015 27.6613C46.1274 27.5988 46.2052 27.5318 46.1922 27.5095C46.1793 27.4827 46.1879 27.4783 46.2182 27.4961C46.2441 27.514 46.3219 27.4872 46.3911 27.4381C46.4603 27.3845 46.5381 27.3444 46.5684 27.3444C46.5943 27.3444 46.603 27.322 46.5857 27.2908C46.5684 27.2595 46.5727 27.2551 46.6073 27.2729C46.6332 27.2908 46.6851 27.2729 46.724 27.2372C46.7586 27.197 46.8191 27.1658 46.8494 27.1658C46.8796 27.1658 46.9445 27.1167 46.9921 27.0542C47.0396 26.9961 47.0872 26.9604 47.1045 26.9738C47.1174 26.9872 47.1304 26.9783 47.1304 26.947C47.1304 26.9158 47.1477 26.9024 47.1693 26.9158C47.2169 26.947 47.312 26.831 47.2731 26.7908C47.2558 26.7729 47.2731 26.7729 47.312 26.7863C47.3725 26.8086 47.3812 26.7952 47.3682 26.7149C47.3552 26.6435 47.3595 26.6256 47.3941 26.6613C47.4633 26.7328 47.7832 26.4247 47.7487 26.3265C47.7357 26.2729 47.74 26.264 47.7659 26.3086C47.7962 26.3533 47.8265 26.3444 47.887 26.2729C47.9691 26.1792 48.0556 26.0363 48.1032 25.9158C48.1205 25.8801 48.1723 25.7729 48.2199 25.6747C48.2761 25.5676 48.3107 25.4024 48.3193 25.2283C48.3323 24.8979 48.2977 24.6167 48.2545 24.6435C48.2156 24.6703 48.155 24.5319 48.1896 24.4962C48.2026 24.4828 48.2113 24.5006 48.2113 24.5319C48.2113 24.5631 48.2242 24.581 48.2372 24.5676C48.2502 24.5497 48.2242 24.4738 48.1853 24.389C48.1421 24.3087 48.1075 24.2238 48.1032 24.206C48.1032 24.1837 48.0253 24.0855 47.9302 23.9917C47.7141 23.773 47.0872 23.5453 47.0872 23.6837C47.0872 23.706 47.0656 23.7283 47.0396 23.7283C47.018 23.7283 47.0093 23.706 47.0223 23.6837C47.0353 23.6569 47.0223 23.6435 46.9921 23.648C46.9618 23.6524 46.858 23.6614 46.7629 23.6703ZM45.7469 24.1301C45.7469 24.1524 45.7167 24.1613 45.6821 24.148C45.6475 24.1301 45.6172 24.1122 45.6172 24.1033C45.6172 24.0944 45.6475 24.0855 45.6821 24.0855C45.7167 24.0855 45.7469 24.1033 45.7469 24.1301ZM44.2986 24.9292C44.3116 24.9515 44.3072 24.9828 44.2856 24.9962C44.264 25.0096 44.2467 24.9917 44.2467 24.956C44.2467 24.8801 44.2597 24.8712 44.2986 24.9292ZM47.6492 26.4694C47.6492 26.4783 47.6146 26.514 47.5757 26.5453C47.5065 26.6033 47.5022 26.5988 47.5584 26.5274C47.6146 26.456 47.6492 26.4336 47.6492 26.4694ZM42.5995 26.6747C42.513 26.7863 42.5 26.7863 42.5303 26.6836C42.5519 26.6211 42.5433 26.6211 42.4871 26.6926C42.4482 26.7417 42.4179 26.7595 42.4179 26.7328C42.4179 26.6703 42.526 26.581 42.5606 26.6167C42.5779 26.6301 42.5908 26.6211 42.5908 26.5899C42.5908 26.5586 42.6081 26.5453 42.6341 26.5631C42.6557 26.5765 42.6427 26.6256 42.5995 26.6747ZM46.9359 27.0274C46.9488 27.0497 46.9445 27.081 46.9229 27.0944C46.9013 27.1077 46.884 27.0899 46.884 27.0542C46.884 26.9783 46.8969 26.9694 46.9359 27.0274ZM44.3634 28.2997C44.3634 28.3131 44.3461 28.3354 44.3202 28.3488C44.2986 28.3622 44.277 28.3533 44.277 28.3309C44.277 28.3042 44.2986 28.2818 44.3202 28.2818C44.3461 28.2818 44.3634 28.2908 44.3634 28.2997ZM41.1079 28.8711C41.0949 28.9068 41.082 28.8934 41.082 28.8443C41.0777 28.7952 41.0906 28.7684 41.1036 28.7863C41.1166 28.7997 41.1209 28.8399 41.1079 28.8711ZM42.6427 29.514C42.5908 29.5497 42.526 29.5675 42.5 29.5497C42.4741 29.5363 42.4309 29.5497 42.4093 29.5809C42.3747 29.6345 42.3703 29.63 42.3876 29.5765C42.3963 29.5408 42.4438 29.5095 42.4914 29.5095C42.5433 29.5095 42.5995 29.4961 42.6168 29.4738C42.6341 29.4559 42.6687 29.4425 42.6946 29.4425C42.7205 29.4425 42.6946 29.4738 42.6427 29.514ZM40.1697 31.2818C40.1697 31.2997 40.1395 31.3175 40.1049 31.3175C40.0703 31.3175 40.04 31.2997 40.04 31.2818C40.04 31.2595 40.0703 31.2416 40.1049 31.2416C40.1395 31.2416 40.1697 31.2595 40.1697 31.2818Z" fill="#5959A8"/>
<path d="M26.4944 25.0853C25.4741 25.5273 25.1066 26.4112 25.4741 27.5407C25.7421 28.3755 26.3042 29.2594 27.3893 30.5585C27.826 31.0763 29.2268 32.5406 29.7845 33.054L30.139 33.3799V33.2236C30.139 32.987 30.0612 32.2192 29.9618 31.5183C29.5554 28.5451 28.7901 26.2817 27.9211 25.4425C27.5839 25.121 27.3721 25.0139 27.0262 24.9916C26.8014 24.9782 26.6976 24.996 26.4944 25.0853Z" fill="#5959A8"/>
<path d="M36.7971 25.0186C35.9065 25.3177 35.1326 26.7329 34.5662 29.1034C34.3025 30.2061 34.0387 31.8846 33.9609 32.9695L33.9307 33.3936L34.2506 33.1034C34.791 32.6078 36.2004 31.1436 36.6976 30.5588C37.705 29.3668 38.3276 28.3936 38.6172 27.5454C38.7469 27.1704 38.7772 26.4963 38.6821 26.1972C38.5394 25.7552 38.2151 25.4026 37.705 25.1347C37.4542 25.0008 37.0089 24.9472 36.7971 25.0186Z" fill="#5959A8"/>
<path d="M15.9328 29.6387C15.3967 29.8129 15.2021 30.0718 15.2021 30.603C15.2021 30.8843 15.2238 30.9825 15.3275 31.2057C15.6561 31.8887 16.3176 32.3753 18.7214 33.7057C21.1425 35.0405 22.4741 35.8931 23.8706 37.0003C25.8247 38.5538 27.3293 40.1386 28.6998 42.1029C28.9116 42.402 29.0846 42.6431 29.0889 42.6386C29.1148 42.6118 28.7819 41.3886 28.5917 40.8217C27.8438 38.5762 26.7197 36.5672 25.1632 34.6878C23.0232 32.1075 20.0011 30.112 17.5411 29.6611C17.0007 29.5629 16.2052 29.5539 15.9328 29.6387Z" fill="#5959A8"/>
<path d="M46.5038 29.6477C44.943 29.9423 43.1402 30.8262 41.493 32.1164C39.0805 33.9958 37.0744 36.6565 35.8682 39.5717C35.5526 40.3351 35.2284 41.3127 35.0424 42.0493C34.9646 42.3708 34.9041 42.6341 34.9084 42.6386C34.9127 42.6431 35.0857 42.402 35.2975 42.1029C36.7242 40.0627 38.272 38.4467 40.3256 36.8485C41.7264 35.7592 42.924 35.0003 45.2932 33.6923C47.844 32.286 48.5358 31.7414 48.7606 30.9646C48.847 30.6611 48.8168 30.3128 48.6828 30.0673C48.6049 29.9245 48.5185 29.853 48.3023 29.7414C48.0299 29.603 47.9953 29.5986 47.4333 29.5896C47.0701 29.5852 46.7199 29.603 46.5038 29.6477Z" fill="#5959A8"/>
<path d="M14.1855 33.7463C14.1855 33.7686 14.4666 34.5811 14.8124 35.5588L15.4393 37.3355V38.0721C15.4393 40.4873 16.1916 42.5632 17.5924 44.0364C18.1155 44.5855 18.5608 44.9381 19.2958 45.389C20.783 46.2953 22.547 46.9158 24.4925 47.2104C25.1021 47.3042 26.1181 47.389 26.6283 47.389H26.9439L27.8604 47.9426C28.3663 48.2461 28.7857 48.4872 28.7943 48.4783C28.8462 48.4292 28.2496 46.8488 27.8648 46.014C27.1168 44.3935 26.2521 43.1212 25.3572 42.3355C24.6525 41.715 24.1856 41.3801 21.8293 39.7998C20.0135 38.5811 18.4398 37.3668 16.1311 35.407C15.1843 34.6034 14.8557 34.3177 14.285 33.7999C14.2288 33.7508 14.1855 33.7284 14.1855 33.7463Z" fill="#5959A8"/>
<path d="M49.4863 34.0052C46.8836 36.3221 44.2982 38.3668 42.1668 39.7998C39.7976 41.3935 39.3479 41.7149 38.6389 42.3355C37.5321 43.3042 36.434 45.081 35.6168 47.2327C35.3488 47.9426 35.1758 48.4559 35.2018 48.4783C35.2104 48.4872 35.6298 48.2506 36.127 47.9515L37.0349 47.4024L37.7483 47.3711C40.3466 47.264 42.7548 46.5765 44.7003 45.3846C45.4353 44.9381 45.8806 44.5855 46.4037 44.0364C47.8088 42.5632 48.5568 40.4873 48.5568 38.0677V37.3221L48.8205 36.5855C49.4344 34.8579 49.8149 33.7641 49.8019 33.7507C49.7932 33.7418 49.6549 33.8579 49.4863 34.0052Z" fill="#5959A8"/>
<path d="M14.7658 44.0138C14.4502 44.1656 14.2124 44.4067 14.0567 44.7192C13.7109 45.4379 14.0265 46.4647 14.8868 47.4156C15.6175 48.2236 16.6551 48.9156 17.8267 49.3888C18.9076 49.8263 19.902 50.0227 21.1731 50.054C22.1631 50.0807 22.6689 50.0406 23.4817 49.8665C24.0741 49.7415 24.6534 49.554 24.5626 49.5182C24.528 49.5049 24.2643 49.42 23.9789 49.3307C22.7208 48.9334 21.4973 48.3263 20.2824 47.5004C19.4307 46.9245 19.154 46.6968 17.2388 45.0272C16.0412 43.9826 15.384 43.7147 14.7658 44.0138Z" fill="#5959A8"/>
<path d="M48.1681 44.0319C47.7962 44.197 47.3466 44.5185 46.7586 45.0274C44.8434 46.697 44.5667 46.9247 43.715 47.5006C42.4871 48.3354 41.3025 48.9247 40.0185 49.3309C39.7331 49.4202 39.4694 49.505 39.4348 49.5184C39.2619 49.5854 40.6367 49.9291 41.4625 50.0273C42.1975 50.1122 43.6069 50.0586 44.3202 49.9157C46.0496 49.5764 47.3855 48.9604 48.5183 47.9872C49.5343 47.1122 50.0704 46.2015 50.0704 45.3354C50.0704 45.0408 50.0531 44.9515 49.9363 44.7194C49.798 44.4292 49.5299 44.1479 49.2576 44.014C49.1581 43.9649 48.9722 43.9292 48.7733 43.9203C48.4966 43.9069 48.4102 43.9247 48.1681 44.0319Z" fill="#5959A8"/>
<path d="M31.6743 54.7548C30.2606 54.9066 29.2878 55.286 29.0327 55.7905C28.7647 56.3173 29.4478 57.1878 30.5935 57.7815C31.0042 57.9914 31.8948 58.3306 32.3271 58.4378L32.6341 58.5137L33.0621 58.3262C33.9571 57.9333 34.6056 57.5137 35.0466 57.0449C35.5567 56.5092 35.7859 55.8396 35.561 55.5271C35.3189 55.1923 34.8347 54.9646 34.0392 54.8173C33.5852 54.7369 32.2147 54.7012 31.6743 54.7548Z" fill="#5959A8"/>
</svg>
