<svg width="800" height="800" viewBox="0 0 800 800" fill="none" xmlns="http://www.w3.org/2000/svg">
<g clip-path="url(#clip0_45_2)">
<path d="M592.36 548.648C567.564 548.648 544.467 555.858 524.991 568.253L328.435 431.025C331.59 420.009 333.315 408.39 333.315 396.363C333.315 384.334 331.59 372.715 328.435 361.701L519.685 228.176C540.205 242.752 565.27 251.352 592.358 251.352C661.766 251.352 718.033 195.084 718.033 125.677C718.033 56.2692 661.767 3.8147e-06 592.36 3.8147e-06C522.952 3.8147e-06 466.685 56.2674 466.685 125.675C466.685 134.842 467.693 143.769 469.556 152.378L273.449 289.293C254.307 277.503 231.773 270.688 207.64 270.688C138.233 270.688 81.9652 326.955 81.9652 396.363C81.9652 465.771 138.231 522.038 207.64 522.038C231.772 522.038 254.307 515.223 273.449 503.433L471.07 641.406C468.228 651.901 466.685 662.931 466.685 674.325C466.685 743.733 522.952 800 592.36 800C661.767 800 718.035 743.733 718.035 674.325C718.035 604.917 661.767 548.648 592.36 548.648Z" fill="#CECECE"/>
</g>
<defs>
<clipPath id="clip0_45_2">
<rect width="800" height="800" fill="white"/>
</clipPath>
</defs>
</svg>
