<svg xmlns="http://www.w3.org/2000/svg"  viewBox="0 0 64 64" width="64px" height="64px" baseProfile="basic"><linearGradient id="oZJcmdPTiFfy0bAalw5iRa" x1="31.84" x2="31.84" y1="6.74" y2="57.059" gradientUnits="userSpaceOnUse"><stop offset="0" stop-color="#6dc7ff"/><stop offset="1" stop-color="#e6abff"/></linearGradient><path fill="url(#oZJcmdPTiFfy0bAalw5iRa)" d="M57,40.5C57,52.926,45.807,63,32,63V18C45.807,18,57,28.074,57,40.5z M17.598,5.859	c-1.418-2.201-4.158-1.761-3.62,1.272c0.538,3.033,3.082,9.832,3.082,9.832l2.739-0.929l1.418-2.935	C21.217,13.098,19.016,8.06,17.598,5.859z M45.38,21.38l2.674-5.576l-3.424-4.043c-1.429,2.298-2.613,4.881-3.554,7.745L45.38,21.38	z M25.077,10.146c-3.233,0.62-4.685,3.973-5.294,6.12c-1.168-0.33-2.343,0.255-2.789,1.152C15.117,16.434,10.997,14.752,8,17	c-4,3,2,14,6,14c2.994,0,4.867-3.922,5.62-6.314c1.114,0.737,2.983,0.272,3.433-1.127c2.191,1.057,6.627,2.514,8.646,0.232	C34.276,20.878,29.901,9.221,25.077,10.146z"/><linearGradient id="oZJcmdPTiFfy0bAalw5iRb" x1="32.032" x2="32.032" y1="5.44" y2="58.134" gradientUnits="userSpaceOnUse"><stop offset="0" stop-color="#1a6dff"/><stop offset="1" stop-color="#c822ff"/></linearGradient><path fill="url(#oZJcmdPTiFfy0bAalw5iRb)" d="M20,35.5c0-1.381,1.119-2.5,2.5-2.5	s2.5,1.119,2.5,2.5c0,1.381-1.119,2.5-2.5,2.5S20,36.881,20,35.5z M41.5,38c1.381,0,2.5-1.119,2.5-2.5c0-1.381-1.119-2.5-2.5-2.5	S39,34.119,39,35.5C39,36.881,40.119,38,41.5,38z M32,40c-1.657,0-3,0.672-3,1.5s1.343,1.5,3,1.5s3-0.672,3-1.5S33.657,40,32,40z M47,40c-2.209,0-4,1.791-4,4c0,2.209,1.791,4,4,4s4-1.791,4-4C51,41.791,49.209,40,47,40z M17,40c-2.209,0-4,1.791-4,4	c0,2.209,1.791,4,4,4s4-1.791,4-4C21,41.791,19.209,40,17,40z M58,40.5C58,53.458,46.337,64,32,64S6,53.458,6,40.5	c0-4.02,1.148-7.967,3.303-11.451c-1.279-1.555-2.359-3.527-2.994-5.433C5.19,20.262,5.588,17.559,7.4,16.2	c1.436-1.077,3.054-1.391,4.617-1.309C10.545,10.864,10,7.714,10,6c0-2.722,1.326-4.878,3.461-5.627	c2.405-0.842,5.142,0.279,7.32,3.003c0.783,0.978,1.853,2.962,3.255,6.025c0.278-0.096,0.56-0.18,0.852-0.236	c2.239-0.432,4.559,1.142,6.365,4.31c0.623,1.093,1.148,2.313,1.532,3.543c1.538,0.042,3.044,0.198,4.504,0.472	c0.435-1.657,1.538-5.152,3.686-8.07c1.42-1.929,4.114-3.168,6.878-3.168c0.021,0,0.044,0,0.065,0	c3.373,0.024,6.531,1.859,8.894,5.167c2.316,3.243,1.723,5.864,0.395,7.236c-0.843,0.871-1.998,1.309-3.244,1.309	c-0.92,0-1.887-0.25-2.817-0.73c-0.592,1.253-1.228,2.495-1.919,3.711C54.597,27.25,58,33.516,58,40.5z M39.245,17.935	c3.06,0.804,5.876,2.117,8.36,3.809c0.665-1.183,1.282-2.389,1.849-3.606c-2.474-1.805-3.602-3.31-4.853-5.166	c-0.309-0.458-0.188-1.08,0.271-1.388c0.456-0.309,1.079-0.188,1.388,0.27c1.319,1.957,2.4,3.384,5.296,5.314	c1.799,1.2,3.447,0.891,4.217,0.096c0.979-1.012,0.755-2.806-0.585-4.683c-2.538-3.553-5.36-4.315-7.28-4.329	c-2.485-0.055-4.446,1.169-5.318,2.354C40.676,13.202,39.656,16.404,39.245,17.935z M14.309,15.274	c0.875,0.24,1.689,0.558,2.383,0.881c0.619-0.613,1.485-0.97,2.385-0.98c0.735-2.15,1.828-3.785,3.195-4.825	c-1.664-3.645-2.575-5.128-3.053-5.725c-1.626-2.031-3.531-2.914-5.097-2.365C12.813,2.719,12,4.152,12,6	C12,7.608,12.62,10.972,14.309,15.274z M14,30c1.978,0,3.587-2.583,4.464-5.019c-0.955-1.019-1.421-2.427-1.478-2.611	c-0.164-0.527,0.131-1.088,0.658-1.252c0.531-0.165,1.087,0.131,1.251,0.656c0.131,0.414,0.617,1.586,1.294,2.086	c0.306,0.194,0.767,0.227,1.177,0.084c0.217-0.076,0.6-0.267,0.736-0.691c0.012-0.036,0.04-0.062,0.056-0.096	c0.002-0.026-0.007-0.051-0.003-0.077c0.139-0.858-0.303-1.781-0.809-2.729c-0.26-0.487-0.075-1.093,0.412-1.353	c0.491-0.261,1.093-0.075,1.354,0.412c0.581,1.09,1.128,2.258,1.058,3.553c2.138,0.9,5.402,1.721,6.78,0.165	c0.619-0.7,0.686-2.551,0.153-4.703c-0.037-0.079-0.052-0.165-0.068-0.254c-0.32-1.202-0.821-2.484-1.518-3.707	c-1.335-2.342-2.918-3.591-4.251-3.336c-2.746,0.527-4.011,3.616-4.521,5.411c-0.151,0.532-0.707,0.834-1.233,0.689	c-0.715-0.201-1.394,0.174-1.622,0.635c-0.12,0.241-0.332,0.423-0.588,0.506c-0.253,0.084-0.532,0.059-0.772-0.065	c-0.999-0.524-2.989-1.415-4.971-1.415c-1.036,0-2.07,0.243-2.959,0.91c-1.062,0.797-1.21,2.735-0.394,5.184	C9.386,26.524,12.256,30,14,30z M56,40.5c0-11.471-10.08-20.871-22.721-21.469c0.387,2.205,0.212,4.244-0.831,5.422	c-2.366,2.675-6.922,1.233-8.976,0.386c-0.365,0.443-0.86,0.787-1.445,0.992c-0.596,0.209-1.219,0.255-1.802,0.149	C19.389,28.161,17.426,32,14,32c-1.083,0-2.202-0.564-3.257-1.465C8.953,33.595,8,37.018,8,40.5C8,52.355,18.767,62,32,62	S56,52.355,56,40.5z M42,43.869c0,1.581-0.833,3.085-2.148,4.051C39.136,51.387,35.843,54,32,54c-3.905,0-7.151-2.567-7.858-6.084	C22.83,46.949,22,45.447,22,43.869C22,40.017,26.393,37,32,37S42,40.017,42,43.869z M37.384,48.917	c-0.259,0.037-0.518,0.077-0.78,0.077c-0.567,0-1.14-0.088-1.712-0.258C34.168,49.511,33.146,50,32,50	c-1.152,0-2.179-0.494-2.905-1.275c-0.829,0.241-1.661,0.316-2.472,0.2C27.612,50.747,29.673,52,32,52	C34.335,52,36.398,50.745,37.384,48.917z M40,43.869C40,41.229,36.337,39,32,39s-8,2.229-8,4.869c0,1.178,0.837,2.35,2.035,2.851	c1.602,0.669,3.521,0.068,5.262-1.652c0.195-0.192,0.449-0.289,0.703-0.289s0.508,0.096,0.703,0.289	c1.741,1.72,3.657,2.323,5.262,1.652C39.163,46.219,40,45.046,40,43.869z"/></svg>