<svg width="256" height="256" viewBox="0 0 256 256" fill="none" xmlns="http://www.w3.org/2000/svg">
<path d="M228 162C228 211.704 183.228 252 128 252V71.9998C183.228 71.9998 228 112.296 228 162ZM70.3922 23.4358C64.7201 14.6318 53.7601 16.3918 55.9121 28.5238C58.0641 40.6558 68.2402 67.8518 68.2402 67.8518L79.1962 64.1358L84.8681 52.3958C84.8681 52.3958 76.0642 32.2398 70.3922 23.4358ZM181.52 85.5198L192.216 63.2158L178.52 47.0438C172.804 56.2358 168.068 66.5678 164.304 78.0238L181.52 85.5198ZM100.308 40.5838C87.3762 43.0638 81.5682 56.4758 79.1322 65.0638C74.4602 63.7438 69.7602 66.0838 67.9762 69.6718C60.4682 65.7358 43.9882 59.0078 32.0002 67.9998C16.0002 79.9998 40.0002 124 56.0002 124C67.9762 124 75.4682 108.312 78.4802 98.7438C82.9362 101.692 90.4122 99.8318 92.2122 94.2358C100.976 98.4638 118.72 104.292 126.796 95.1638C137.104 83.5118 119.604 36.8838 100.308 40.5838Z" fill="url(#paint0_linear_16_2)"/>
<path d="M80.0001 142C80.0001 136.476 84.4761 132 90.0001 132C95.5241 132 100 136.476 100 142C100 147.524 95.5241 152 90.0001 152C84.4761 152 80.0001 147.524 80.0001 142ZM166 152C171.524 152 176 147.524 176 142C176 136.476 171.524 132 166 132C160.476 132 156 136.476 156 142C156 147.524 160.476 152 166 152ZM128 160C121.372 160 116 162.688 116 166C116 169.312 121.372 172 128 172C134.628 172 140 169.312 140 166C140 162.688 134.628 160 128 160ZM188 160C179.164 160 172 167.164 172 176C172 184.836 179.164 192 188 192C196.836 192 204 184.836 204 176C204 167.164 196.836 160 188 160ZM68.0001 160C59.1641 160 52.0001 167.164 52.0001 176C52.0001 184.836 59.1641 192 68.0001 192C76.8361 192 84.0001 184.836 84.0001 176C84.0001 167.164 76.8361 160 68.0001 160ZM232 162C232 213.832 185.348 256 128 256C70.6521 256 24.0001 213.832 24.0001 162C24.0001 145.92 28.5921 130.132 37.2121 116.196C32.0961 109.976 27.7761 102.088 25.2361 94.4642C20.7601 81.0482 22.3521 70.2362 29.6001 64.8002C35.3441 60.4922 41.8161 59.2362 48.0681 59.5642C42.1801 43.4562 40.0001 30.8562 40.0001 24.0002C40.0001 13.1122 45.3041 4.48818 53.8441 1.49218C63.4641 -1.87582 74.4121 2.60818 83.1241 13.5042C86.2561 17.4162 90.5361 25.3522 96.1441 37.6042C97.2561 37.2202 98.3841 36.8842 99.5521 36.6602C108.508 34.9322 117.788 41.2282 125.012 53.9002C127.504 58.2722 129.604 63.1522 131.14 68.0722C137.292 68.2402 143.316 68.8642 149.156 69.9602C150.896 63.3322 155.308 49.3522 163.9 37.6802C169.58 29.9642 180.356 25.0082 191.412 25.0082C191.496 25.0082 191.588 25.0082 191.672 25.0082C205.164 25.1042 217.796 32.4442 227.248 45.6762C236.512 58.6482 234.14 69.1322 228.828 74.6202C225.456 78.1042 220.836 79.8562 215.852 79.8562C212.172 79.8562 208.304 78.8562 204.584 76.9362C202.216 81.9482 199.672 86.9162 196.908 91.7802C218.388 109 232 134.064 232 162ZM156.98 71.7402C169.22 74.9562 180.484 80.2082 190.42 86.9762C193.08 82.2442 195.548 77.4202 197.816 72.5522C187.92 65.3322 183.408 59.3122 178.404 51.8882C177.168 50.0562 177.652 47.5682 179.488 46.3362C181.312 45.1002 183.804 45.5842 185.04 47.4162C190.316 55.2442 194.64 60.9522 206.224 68.6722C213.42 73.4722 220.012 72.2362 223.092 69.0562C227.008 65.0082 226.112 57.8322 220.752 50.3242C210.6 36.1122 199.312 33.0642 191.632 33.0082C181.692 32.7882 173.848 37.6842 170.36 42.4242C162.704 52.8082 158.624 65.6162 156.98 71.7402ZM57.2361 61.0962C60.7361 62.0562 63.9921 63.3282 66.7681 64.6202C69.2441 62.1682 72.7081 60.7402 76.3081 60.7002C79.2481 52.1002 83.6201 45.5602 89.0881 41.4002C82.4321 26.8202 78.7881 20.8882 76.8761 18.5002C70.3721 10.3762 62.7521 6.84418 56.4881 9.04018C51.2521 10.8762 48.0001 16.6082 48.0001 24.0002C48.0001 30.4322 50.4801 43.8882 57.2361 61.0962ZM56.0001 120C63.9121 120 70.3481 109.668 73.8561 99.9242C70.0361 95.8482 68.1721 90.2162 67.9441 89.4802C67.2881 87.3722 68.4681 85.1282 70.5761 84.4722C72.7001 83.8122 74.9241 84.9962 75.5801 87.0962C76.1041 88.7522 78.0481 93.4402 80.7561 95.4402C81.9801 96.2162 83.8241 96.3482 85.4641 95.7762C86.3321 95.4722 87.8641 94.7082 88.4081 93.0122C88.4561 92.8682 88.5681 92.7642 88.6321 92.6282C88.6401 92.5242 88.6041 92.4242 88.6201 92.3202C89.1761 88.8882 87.4081 85.1962 85.3841 81.4042C84.3441 79.4562 85.0841 77.0322 87.0321 75.9922C88.9961 74.9482 91.4041 75.6922 92.4481 77.6402C94.7721 82.0002 96.9601 86.6722 96.6801 91.8522C105.232 95.4522 118.288 98.7362 123.8 92.5122C126.276 89.7122 126.544 82.3082 124.412 73.7002C124.264 73.3842 124.204 73.0402 124.14 72.6842C122.86 67.8762 120.856 62.7482 118.068 57.8562C112.728 48.4882 106.396 43.4922 101.064 44.5122C90.0801 46.6202 85.0201 58.9762 82.9801 66.1562C82.3761 68.2842 80.1521 69.4922 78.0481 68.9122C75.1881 68.1082 72.4721 69.6082 71.5601 71.4522C71.0801 72.4162 70.2321 73.1442 69.2081 73.4762C68.1961 73.8122 67.0801 73.7122 66.1201 73.2162C62.1241 71.1202 54.1641 67.5562 46.2361 67.5562C42.0921 67.5562 37.9561 68.5282 34.4001 71.1962C30.1521 74.3842 29.5601 82.1362 32.8241 91.9322C37.5441 106.096 49.0241 120 56.0001 120ZM224 162C224 116.116 183.68 78.5162 133.116 76.1242C134.664 84.9442 133.964 93.1002 129.792 97.8122C120.328 108.512 102.104 102.744 93.8881 99.3562C92.4281 101.128 90.4481 102.504 88.1081 103.324C85.7241 104.16 83.2321 104.344 80.9001 103.92C77.5561 112.644 69.7041 128 56.0001 128C51.6681 128 47.1921 125.744 42.9721 122.14C35.8121 134.38 32.0001 148.072 32.0001 162C32.0001 209.42 75.0681 248 128 248C180.932 248 224 209.42 224 162ZM168 175.476C168 181.8 164.668 187.816 159.408 191.68C156.544 205.548 143.372 216 128 216C112.38 216 99.3961 205.732 96.5681 191.664C91.3201 187.796 88.0001 181.788 88.0001 175.476C88.0001 160.068 105.572 148 128 148C150.428 148 168 160.068 168 175.476ZM149.536 195.668C148.5 195.816 147.464 195.976 146.416 195.976C144.148 195.976 141.856 195.624 139.568 194.944C136.672 198.044 132.584 200 128 200C123.392 200 119.284 198.024 116.38 194.9C113.064 195.864 109.736 196.164 106.492 195.7C110.448 202.988 118.692 208 128 208C137.34 208 145.592 202.98 149.536 195.668ZM160 175.476C160 164.916 145.348 156 128 156C110.652 156 96.0001 164.916 96.0001 175.476C96.0001 180.188 99.3481 184.876 104.14 186.88C110.548 189.556 118.224 187.152 125.188 180.272C125.968 179.504 126.984 179.116 128 179.116C129.016 179.116 130.032 179.5 130.812 180.272C137.776 187.152 145.44 189.564 151.86 186.88C156.652 184.876 160 180.184 160 175.476Z" fill="#7E42FF"/>
<defs>
<linearGradient id="paint0_linear_16_2" x1="127.36" y1="26.9598" x2="127.36" y2="228.236" gradientUnits="userSpaceOnUse">
<stop stop-color="#6DC7FF"/>
<stop offset="1" stop-color="#E6ABFF"/>
</linearGradient>
</defs>
</svg>
