<svg width="165" height="64" viewBox="0 0 165 64" fill="none" xmlns="http://www.w3.org/2000/svg">
<g clip-path="url(#clip0_39_7)">
<path d="M51.9998 40.5002C51.9998 52.9262 40.8068 63.0002 26.9998 63.0002V18.0002C40.8068 18.0002 51.9998 28.0742 51.9998 40.5002ZM12.5978 5.8592C11.1798 3.6582 8.43979 4.0982 8.97779 7.1312C9.51579 10.1642 12.0598 16.9632 12.0598 16.9632L14.7988 16.0342L16.2168 13.0992C16.2168 13.0992 14.0158 8.0602 12.5978 5.8592ZM40.3798 21.3802L43.0538 15.8042L39.6298 11.7612C38.2008 14.0592 37.0168 16.6422 36.0758 19.5062L40.3798 21.3802ZM20.0768 10.1462C16.8438 10.7662 15.3918 14.1192 14.7828 16.2662C13.6148 15.9362 12.4398 16.5212 11.9938 17.4182C10.1168 16.4342 5.99679 14.7522 2.99979 17.0002C-1.00021 20.0002 4.99979 31.0002 8.99979 31.0002C11.9938 31.0002 13.8668 27.0782 14.6198 24.6862C15.7338 25.4232 17.6028 24.9582 18.0528 23.5592C20.2438 24.6162 24.6798 26.0732 26.6988 23.7912C29.2758 20.8782 24.9008 9.2212 20.0768 10.1462Z" fill="url(#paint0_linear_39_7)"/>
<path d="M14.9999 35.5002C14.9999 34.1192 16.1189 33.0002 17.4999 33.0002C18.8809 33.0002 19.9999 34.1192 19.9999 35.5002C19.9999 36.8812 18.8809 38.0002 17.4999 38.0002C16.1189 38.0002 14.9999 36.8812 14.9999 35.5002ZM36.4999 38.0002C37.8809 38.0002 38.9999 36.8812 38.9999 35.5002C38.9999 34.1192 37.8809 33.0002 36.4999 33.0002C35.1189 33.0002 33.9999 34.1192 33.9999 35.5002C33.9999 36.8812 35.1189 38.0002 36.4999 38.0002ZM26.9999 40.0002C25.3429 40.0002 23.9999 40.6722 23.9999 41.5002C23.9999 42.3282 25.3429 43.0002 26.9999 43.0002C28.6569 43.0002 29.9999 42.3282 29.9999 41.5002C29.9999 40.6722 28.6569 40.0002 26.9999 40.0002ZM41.9999 40.0002C39.7909 40.0002 37.9999 41.7912 37.9999 44.0002C37.9999 46.2092 39.7909 48.0002 41.9999 48.0002C44.2089 48.0002 45.9999 46.2092 45.9999 44.0002C45.9999 41.7912 44.2089 40.0002 41.9999 40.0002ZM11.9999 40.0002C9.7909 40.0002 7.9999 41.7912 7.9999 44.0002C7.9999 46.2092 9.7909 48.0002 11.9999 48.0002C14.2089 48.0002 15.9999 46.2092 15.9999 44.0002C15.9999 41.7912 14.2089 40.0002 11.9999 40.0002ZM52.9999 40.5002C52.9999 53.4582 41.3369 64.0002 26.9999 64.0002C12.6629 64.0002 0.999902 53.4582 0.999902 40.5002C0.999902 36.4802 2.1479 32.5332 4.3029 29.0492C3.0239 27.4942 1.9439 25.5222 1.3089 23.6162C0.189902 20.2622 0.587902 17.5592 2.3999 16.2002C3.8359 15.1232 5.4539 14.8092 7.0169 14.8912C5.5449 10.8642 4.9999 7.71417 4.9999 6.00017C4.9999 3.27817 6.3259 1.12217 8.4609 0.373166C10.8659 -0.468834 13.6029 0.652166 15.7809 3.37617C16.5639 4.35417 17.6339 6.33817 19.0359 9.40117C19.3139 9.30517 19.5959 9.22117 19.8879 9.16517C22.1269 8.73317 24.4469 10.3072 26.2529 13.4752C26.8759 14.5682 27.4009 15.7882 27.7849 17.0182C29.3229 17.0602 30.8289 17.2162 32.2889 17.4902C32.7239 15.8332 33.8269 12.3382 35.9749 9.42017C37.3949 7.49117 40.0889 6.25217 42.8529 6.25217C42.8739 6.25217 42.8969 6.25217 42.9179 6.25217C46.2909 6.27617 49.4489 8.11117 51.8119 11.4192C54.1279 14.6622 53.5349 17.2832 52.2069 18.6552C51.3639 19.5262 50.2089 19.9642 48.9629 19.9642C48.0429 19.9642 47.0759 19.7142 46.1459 19.2342C45.5539 20.4872 44.9179 21.7292 44.2269 22.9452C49.5969 27.2502 52.9999 33.5162 52.9999 40.5002ZM34.2449 17.9352C37.3049 18.7392 40.1209 20.0522 42.6049 21.7442C43.2699 20.5612 43.8869 19.3552 44.4539 18.1382C41.9799 16.3332 40.8519 14.8282 39.6009 12.9722C39.2919 12.5142 39.4129 11.8922 39.8719 11.5842C40.3279 11.2752 40.9509 11.3962 41.2599 11.8542C42.5789 13.8112 43.6599 15.2382 46.5559 17.1682C48.3549 18.3682 50.0029 18.0592 50.7729 17.2642C51.7519 16.2522 51.5279 14.4582 50.1879 12.5812C47.6499 9.02817 44.8279 8.26617 42.9079 8.25217C40.4229 8.19717 38.4619 9.42117 37.5899 10.6062C35.6759 13.2022 34.6559 16.4042 34.2449 17.9352ZM9.3089 15.2742C10.1839 15.5142 10.9979 15.8322 11.6919 16.1552C12.3109 15.5422 13.1769 15.1852 14.0769 15.1752C14.8119 13.0252 15.9049 11.3902 17.2719 10.3502C15.6079 6.70517 14.6969 5.22217 14.2189 4.62517C12.5929 2.59417 10.6879 1.71117 9.1219 2.26017C7.8129 2.71917 6.9999 4.15217 6.9999 6.00017C6.9999 7.60817 7.6199 10.9722 9.3089 15.2742ZM8.9999 30.0002C10.9779 30.0002 12.5869 27.4172 13.4639 24.9812C12.5089 23.9622 12.0429 22.5542 11.9859 22.3702C11.8219 21.8432 12.1169 21.2822 12.6439 21.1182C13.1749 20.9532 13.7309 21.2492 13.8949 21.7742C14.0259 22.1882 14.5119 23.3602 15.1889 23.8602C15.4949 24.0542 15.9559 24.0872 16.3659 23.9442C16.5829 23.8682 16.9659 23.6772 17.1019 23.2532C17.1139 23.2172 17.1419 23.1912 17.1579 23.1572C17.1599 23.1312 17.1509 23.1062 17.1549 23.0802C17.2939 22.2222 16.8519 21.2992 16.3459 20.3512C16.0859 19.8642 16.2709 19.2582 16.7579 18.9982C17.2489 18.7372 17.8509 18.9232 18.1119 19.4102C18.6929 20.5002 19.2399 21.6682 19.1699 22.9632C21.3079 23.8632 24.5719 24.6842 25.9499 23.1282C26.5689 22.4282 26.6359 20.5772 26.1029 18.4252C26.0659 18.3462 26.0509 18.2602 26.0349 18.1712C25.7149 16.9692 25.2139 15.6872 24.5169 14.4642C23.1819 12.1222 21.5989 10.8732 20.2659 11.1282C17.5199 11.6552 16.2549 14.7442 15.7449 16.5392C15.5939 17.0712 15.0379 17.3732 14.5119 17.2282C13.7969 17.0272 13.1179 17.4022 12.8899 17.8632C12.7699 18.1042 12.5579 18.2862 12.3019 18.3692C12.0489 18.4532 11.7699 18.4282 11.5299 18.3042C10.5309 17.7802 8.5409 16.8892 6.5589 16.8892C5.5229 16.8892 4.4889 17.1322 3.5999 17.7992C2.5379 18.5962 2.3899 20.5342 3.2059 22.9832C4.3859 26.5242 7.2559 30.0002 8.9999 30.0002ZM50.9999 40.5002C50.9999 29.0292 40.9199 19.6292 28.2789 19.0312C28.6659 21.2362 28.4909 23.2752 27.4479 24.4532C25.0819 27.1282 20.5259 25.6862 18.4719 24.8392C18.1069 25.2822 17.6119 25.6262 17.0269 25.8312C16.4309 26.0402 15.8079 26.0862 15.2249 25.9802C14.3889 28.1612 12.4259 32.0002 8.9999 32.0002C7.9169 32.0002 6.7979 31.4362 5.7429 30.5352C3.9529 33.5952 2.9999 37.0182 2.9999 40.5002C2.9999 52.3552 13.7669 62.0002 26.9999 62.0002C40.2329 62.0002 50.9999 52.3552 50.9999 40.5002ZM36.9999 43.8692C36.9999 45.4502 36.1669 46.9542 34.8519 47.9202C34.1359 51.3872 30.8429 54.0002 26.9999 54.0002C23.0949 54.0002 19.8489 51.4332 19.1419 47.9162C17.8299 46.9492 16.9999 45.4472 16.9999 43.8692C16.9999 40.0172 21.3929 37.0002 26.9999 37.0002C32.6069 37.0002 36.9999 40.0172 36.9999 43.8692ZM32.3839 48.9172C32.1249 48.9542 31.8659 48.9942 31.6039 48.9942C31.0369 48.9942 30.4639 48.9062 29.8919 48.7362C29.1679 49.5112 28.1459 50.0002 26.9999 50.0002C25.8479 50.0002 24.8209 49.5062 24.0949 48.7252C23.2659 48.9662 22.4339 49.0412 21.6229 48.9252C22.6119 50.7472 24.6729 52.0002 26.9999 52.0002C29.3349 52.0002 31.3979 50.7452 32.3839 48.9172ZM34.9999 43.8692C34.9999 41.2292 31.3369 39.0002 26.9999 39.0002C22.6629 39.0002 18.9999 41.2292 18.9999 43.8692C18.9999 45.0472 19.8369 46.2192 21.0349 46.7202C22.6369 47.3892 24.5559 46.7882 26.2969 45.0682C26.4919 44.8762 26.7459 44.7792 26.9999 44.7792C27.2539 44.7792 27.5079 44.8752 27.7029 45.0682C29.4439 46.7882 31.3599 47.3912 32.9649 46.7202C34.1629 46.2192 34.9999 45.0462 34.9999 43.8692Z" fill="#262641"/>
<path d="M73.6599 24.46H77.2198C77.2198 24.46 77.2198 24.5133 77.2198 24.62C77.2198 24.98 77.1265 25.2 76.9398 25.28C76.8465 25.3333 76.7331 25.3667 76.5998 25.38L75.6599 25.42V37.78C75.3266 37.9267 74.9799 38 74.6199 38L67.4799 27V37L68.9398 37.12C68.9931 37.7067 68.8131 38 68.3998 38H64.8398C64.8398 38 64.8398 37.9467 64.8398 37.84C64.8398 37.4933 64.9332 37.2667 65.1199 37.16C65.2132 37.12 65.3265 37.0933 65.4598 37.08L66.3798 37.04V25.46L64.9198 25.34C64.8665 24.7533 65.0465 24.46 65.4598 24.46H67.5798L74.5798 35.26V25.46L73.1199 25.34C73.0666 24.7533 73.2466 24.46 73.6599 24.46ZM84.8913 28.22H87.5312C87.518 28.26 87.518 28.3133 87.5312 28.38C87.5445 28.4333 87.5379 28.5 87.5112 28.58C87.4979 28.6467 87.4779 28.7133 87.4512 28.78C87.3712 28.94 87.1179 29.04 86.6912 29.08L83.2712 37.5H83.2912C82.9312 38.46 82.5645 39.2867 82.1912 39.98C81.8312 40.6733 81.5445 41.1467 81.3312 41.4C80.8112 42.0533 80.2979 42.38 79.7912 42.38C79.2845 42.38 78.9112 42.2733 78.6712 42.06C78.4312 41.86 78.3112 41.6133 78.3112 41.32C78.3112 41.04 78.3846 40.8067 78.5312 40.62C78.6912 40.4467 78.8645 40.36 79.0512 40.36C79.2512 40.36 79.3845 40.3733 79.4512 40.4C79.3312 40.9333 79.4845 41.2 79.9112 41.2C80.2579 41.2 80.6512 40.8067 81.0912 40.02C81.5312 39.2333 81.9245 38.4 82.2712 37.52L78.7912 29.16H78.7712L77.7912 29.04C77.7379 28.4933 77.9245 28.22 78.3512 28.22H81.7113V28.36C81.7113 28.68 81.6179 28.88 81.4312 28.96C81.3245 29.0133 80.9579 29.0667 80.3312 29.12L82.9312 35.82L85.4912 29.16L84.3312 29.04C84.2779 28.4933 84.4646 28.22 84.8913 28.22ZM97.2737 37.38C97.2737 38.0067 96.8602 38.32 96.0336 38.32C95.2069 38.32 94.727 37.9 94.5937 37.06C93.7403 37.8867 92.7136 38.3 91.5136 38.3C90.5936 38.3 89.8602 38.0667 89.3136 37.6C88.7802 37.12 88.5136 36.4733 88.5136 35.66C88.5136 34.8467 88.8137 34.16 89.4137 33.6C90.0137 33.04 91.0069 32.76 92.3936 32.76C93.2069 32.76 93.9269 32.8533 94.5536 33.04V31.46C94.5536 30.7 94.3602 30.0933 93.9736 29.64C93.6002 29.1733 93.0469 28.94 92.3136 28.94C91.5802 28.94 91.0537 29.14 90.7337 29.54C90.427 29.9267 90.2536 30.38 90.2136 30.9C89.8936 30.9267 89.627 30.86 89.4137 30.7C89.2003 30.54 89.0937 30.28 89.0937 29.92C89.0937 29.3467 89.3869 28.8733 89.9736 28.5C90.5602 28.1133 91.3202 27.92 92.2536 27.92C93.0669 27.92 93.8402 28.12 94.5736 28.52C94.9869 28.7333 95.3202 29.0867 95.5736 29.58C95.8269 30.0733 95.9536 30.6733 95.9536 31.38V37.22L97.2737 37.38ZM94.5536 34.24C93.9402 33.9067 93.227 33.74 92.4137 33.74C91.6003 33.74 91.0002 33.8933 90.6136 34.2C90.2402 34.5067 90.0536 34.9267 90.0536 35.46C90.0536 35.9933 90.2202 36.42 90.5536 36.74C90.8869 37.0467 91.3469 37.2 91.9336 37.2C92.8669 37.2 93.7402 36.84 94.5536 36.12V34.24ZM100.253 33.18L99.6326 32.9C99.8059 32.2867 100.099 31.82 100.513 31.5C100.926 31.1667 101.359 31.0133 101.813 31.04C102.266 31.0667 102.759 31.2733 103.293 31.66C103.826 32.0467 104.266 32.2467 104.613 32.26C104.959 32.2733 105.246 32.1933 105.473 32.02C105.713 31.8333 105.879 31.5933 105.973 31.3L106.593 31.5C106.459 32.1133 106.193 32.6 105.793 32.96C105.406 33.3067 104.939 33.4667 104.393 33.44C103.859 33.4133 103.313 33.22 102.753 32.86C102.193 32.4867 101.766 32.2933 101.473 32.28C101.193 32.2667 100.946 32.3533 100.733 32.54C100.519 32.7133 100.359 32.9267 100.253 33.18ZM122.061 25C122.488 25.36 122.701 25.78 122.701 26.26C122.701 26.74 122.575 27.0867 122.321 27.3C122.081 27.5 121.788 27.5933 121.441 27.58C121.441 26.0333 120.628 25.26 119.001 25.26C118.241 25.26 117.608 25.44 117.101 25.8C116.608 26.16 116.361 26.66 116.361 27.3C116.361 28.06 116.728 28.6733 117.461 29.14C117.861 29.3933 118.188 29.58 118.441 29.7C118.695 29.82 119.095 30 119.641 30.24C120.188 30.4667 120.608 30.6533 120.901 30.8C121.208 30.9467 121.541 31.14 121.901 31.38C122.261 31.6067 122.528 31.8267 122.701 32.04C123.128 32.5867 123.341 33.22 123.341 33.94C123.341 35.14 122.888 36.1667 121.981 37.02C121.088 37.8733 119.908 38.3 118.441 38.3C117.388 38.3 116.455 38.0867 115.641 37.66C114.841 37.2333 114.441 36.6667 114.441 35.96C114.441 35.6133 114.541 35.3267 114.741 35.1C114.955 34.8733 115.241 34.76 115.601 34.76C115.761 35.56 116.115 36.1667 116.661 36.58C117.208 36.9933 117.935 37.2 118.841 37.2C119.748 37.2 120.495 36.9533 121.081 36.46C121.668 35.9533 121.961 35.2867 121.961 34.46C121.961 33.6867 121.688 33.1 121.141 32.7C120.715 32.38 120.255 32.12 119.761 31.92C119.281 31.7067 118.861 31.52 118.501 31.36C118.141 31.2 117.775 31.0267 117.401 30.84C117.041 30.64 116.648 30.3867 116.221 30.08C115.395 29.48 114.981 28.6667 114.981 27.64C114.981 26.6133 115.375 25.7867 116.161 25.16C116.961 24.52 117.948 24.1867 119.121 24.16C120.361 24.1333 121.341 24.4133 122.061 25ZM135.203 38H131.403V37.84C131.403 37.4133 131.617 37.18 132.043 37.14L132.863 37.1V32.08C132.863 31.1067 132.657 30.38 132.243 29.9C131.83 29.4067 131.29 29.16 130.623 29.16C129.97 29.16 129.43 29.2667 129.003 29.48C128.59 29.6933 128.143 30.0133 127.663 30.44V37.06L129.183 37.18C129.237 37.7267 129.05 38 128.623 38H124.823V37.84C124.823 37.52 124.917 37.32 125.103 37.24C125.197 37.1867 125.31 37.1533 125.443 37.14L126.283 37.1V25.38L125.243 25.28C124.923 25.24 124.763 24.9533 124.763 24.42L127.663 24.04V29.34C128.583 28.3933 129.63 27.92 130.803 27.92C131.737 27.92 132.537 28.2467 133.203 28.9C133.87 29.54 134.21 30.56 134.223 31.96L134.243 37.06L135.743 37.18C135.797 37.7267 135.617 38 135.203 38ZM141.346 28.96C140.439 28.96 139.739 29.3533 139.246 30.14C138.753 30.9267 138.506 31.9333 138.506 33.16C138.506 34.3733 138.746 35.3667 139.226 36.14C139.706 36.9 140.399 37.28 141.306 37.28C142.213 37.2667 142.913 36.88 143.406 36.12C143.899 35.36 144.146 34.38 144.146 33.18C144.146 31.9667 143.906 30.96 143.426 30.16C142.959 29.3467 142.266 28.9467 141.346 28.96ZM141.466 27.92C142.479 27.92 143.393 28.24 144.206 28.88C144.633 29.2267 144.973 29.7333 145.226 30.4C145.493 31.0667 145.626 31.8667 145.626 32.8C145.653 34.4533 145.266 35.7867 144.466 36.8C143.666 37.8 142.586 38.3 141.226 38.3C139.866 38.3 138.833 37.8733 138.126 37.02C137.419 36.1667 137.053 34.9333 137.026 33.32C137.013 31.7067 137.406 30.4067 138.206 29.42C139.019 28.42 140.106 27.92 141.466 27.92ZM149.482 29.4C150.522 28.4133 151.589 27.92 152.682 27.92C153.776 27.92 154.689 28.3333 155.422 29.16C156.169 29.9733 156.556 31.2 156.582 32.84C156.622 34.4667 156.222 35.7867 155.382 36.8C154.542 37.8 153.362 38.3 151.842 38.3C151.082 38.3 150.309 38.1267 149.522 37.78V41.34L151.042 41.46C151.096 42.0067 150.909 42.28 150.482 42.28H146.682V42.12C146.682 41.8 146.776 41.6 146.962 41.52C147.069 41.48 147.462 41.4333 148.142 41.38V29.26L147.082 29.14C146.776 29.1133 146.622 28.8533 146.622 28.36L149.202 28.02L149.482 29.4ZM149.522 36.24C150.216 36.8933 151.082 37.22 152.122 37.22C153.162 37.22 153.916 36.8267 154.382 36.04C154.862 35.2533 155.102 34.2733 155.102 33.1C155.102 31.9267 154.862 30.9667 154.382 30.22C153.916 29.4733 153.189 29.1 152.202 29.1C151.709 29.1 151.269 29.2 150.882 29.4C150.496 29.6 150.042 29.9133 149.522 30.34V36.24Z" fill="#262641"/>
<mask id="mask0_39_7" style="mask-type:luminance" maskUnits="userSpaceOnUse" x="64" y="23" width="94" height="20">
<path d="M158 23H64V43H158V23Z" fill="white"/>
<path d="M73.6599 24.46H77.2198C77.2198 24.46 77.2198 24.5133 77.2198 24.62C77.2198 24.98 77.1265 25.2 76.9398 25.28C76.8465 25.3333 76.7331 25.3667 76.5998 25.38L75.6599 25.42V37.78C75.3266 37.9267 74.9799 38 74.6199 38L67.4799 27V37L68.9398 37.12C68.9931 37.7067 68.8131 38 68.3998 38H64.8398C64.8398 38 64.8398 37.9467 64.8398 37.84C64.8398 37.4933 64.9332 37.2667 65.1199 37.16C65.2132 37.12 65.3265 37.0933 65.4598 37.08L66.3798 37.04V25.46L64.9198 25.34C64.8665 24.7533 65.0465 24.46 65.4598 24.46H67.5798L74.5798 35.26V25.46L73.1199 25.34C73.0666 24.7533 73.2466 24.46 73.6599 24.46ZM84.8913 28.22H87.5312C87.518 28.26 87.518 28.3133 87.5312 28.38C87.5445 28.4333 87.5379 28.5 87.5112 28.58C87.4979 28.6467 87.4779 28.7133 87.4512 28.78C87.3712 28.94 87.1179 29.04 86.6912 29.08L83.2712 37.5H83.2912C82.9312 38.46 82.5645 39.2867 82.1912 39.98C81.8312 40.6733 81.5445 41.1467 81.3312 41.4C80.8112 42.0533 80.2979 42.38 79.7912 42.38C79.2845 42.38 78.9112 42.2733 78.6712 42.06C78.4312 41.86 78.3112 41.6133 78.3112 41.32C78.3112 41.04 78.3846 40.8067 78.5312 40.62C78.6912 40.4467 78.8645 40.36 79.0512 40.36C79.2512 40.36 79.3845 40.3733 79.4512 40.4C79.3312 40.9333 79.4845 41.2 79.9112 41.2C80.2579 41.2 80.6512 40.8067 81.0912 40.02C81.5312 39.2333 81.9245 38.4 82.2712 37.52L78.7912 29.16H78.7712L77.7912 29.04C77.7379 28.4933 77.9245 28.22 78.3512 28.22H81.7113V28.36C81.7113 28.68 81.6179 28.88 81.4312 28.96C81.3245 29.0133 80.9579 29.0667 80.3312 29.12L82.9312 35.82L85.4912 29.16L84.3312 29.04C84.2779 28.4933 84.4646 28.22 84.8913 28.22ZM97.2737 37.38C97.2737 38.0067 96.8602 38.32 96.0336 38.32C95.2069 38.32 94.727 37.9 94.5937 37.06C93.7403 37.8867 92.7136 38.3 91.5136 38.3C90.5936 38.3 89.8602 38.0667 89.3136 37.6C88.7802 37.12 88.5136 36.4733 88.5136 35.66C88.5136 34.8467 88.8137 34.16 89.4137 33.6C90.0137 33.04 91.0069 32.76 92.3936 32.76C93.2069 32.76 93.9269 32.8533 94.5536 33.04V31.46C94.5536 30.7 94.3602 30.0933 93.9736 29.64C93.6002 29.1733 93.0469 28.94 92.3136 28.94C91.5802 28.94 91.0537 29.14 90.7337 29.54C90.427 29.9267 90.2536 30.38 90.2136 30.9C89.8936 30.9267 89.627 30.86 89.4137 30.7C89.2003 30.54 89.0937 30.28 89.0937 29.92C89.0937 29.3467 89.3869 28.8733 89.9736 28.5C90.5602 28.1133 91.3202 27.92 92.2536 27.92C93.0669 27.92 93.8402 28.12 94.5736 28.52C94.9869 28.7333 95.3202 29.0867 95.5736 29.58C95.8269 30.0733 95.9536 30.6733 95.9536 31.38V37.22L97.2737 37.38ZM94.5536 34.24C93.9402 33.9067 93.227 33.74 92.4137 33.74C91.6003 33.74 91.0002 33.8933 90.6136 34.2C90.2402 34.5067 90.0536 34.9267 90.0536 35.46C90.0536 35.9933 90.2202 36.42 90.5536 36.74C90.8869 37.0467 91.3469 37.2 91.9336 37.2C92.8669 37.2 93.7402 36.84 94.5536 36.12V34.24ZM100.253 33.18L99.6326 32.9C99.8059 32.2867 100.099 31.82 100.513 31.5C100.926 31.1667 101.359 31.0133 101.813 31.04C102.266 31.0667 102.759 31.2733 103.293 31.66C103.826 32.0467 104.266 32.2467 104.613 32.26C104.959 32.2733 105.246 32.1933 105.473 32.02C105.713 31.8333 105.879 31.5933 105.973 31.3L106.593 31.5C106.459 32.1133 106.193 32.6 105.793 32.96C105.406 33.3067 104.939 33.4667 104.393 33.44C103.859 33.4133 103.313 33.22 102.753 32.86C102.193 32.4867 101.766 32.2933 101.473 32.28C101.193 32.2667 100.946 32.3533 100.733 32.54C100.519 32.7133 100.359 32.9267 100.253 33.18ZM122.061 25C122.488 25.36 122.701 25.78 122.701 26.26C122.701 26.74 122.575 27.0867 122.321 27.3C122.081 27.5 121.788 27.5933 121.441 27.58C121.441 26.0333 120.628 25.26 119.001 25.26C118.241 25.26 117.608 25.44 117.101 25.8C116.608 26.16 116.361 26.66 116.361 27.3C116.361 28.06 116.728 28.6733 117.461 29.14C117.861 29.3933 118.188 29.58 118.441 29.7C118.695 29.82 119.095 30 119.641 30.24C120.188 30.4667 120.608 30.6533 120.901 30.8C121.208 30.9467 121.541 31.14 121.901 31.38C122.261 31.6067 122.528 31.8267 122.701 32.04C123.128 32.5867 123.341 33.22 123.341 33.94C123.341 35.14 122.888 36.1667 121.981 37.02C121.088 37.8733 119.908 38.3 118.441 38.3C117.388 38.3 116.455 38.0867 115.641 37.66C114.841 37.2333 114.441 36.6667 114.441 35.96C114.441 35.6133 114.541 35.3267 114.741 35.1C114.955 34.8733 115.241 34.76 115.601 34.76C115.761 35.56 116.115 36.1667 116.661 36.58C117.208 36.9933 117.935 37.2 118.841 37.2C119.748 37.2 120.495 36.9533 121.081 36.46C121.668 35.9533 121.961 35.2867 121.961 34.46C121.961 33.6867 121.688 33.1 121.141 32.7C120.715 32.38 120.255 32.12 119.761 31.92C119.281 31.7067 118.861 31.52 118.501 31.36C118.141 31.2 117.775 31.0267 117.401 30.84C117.041 30.64 116.648 30.3867 116.221 30.08C115.395 29.48 114.981 28.6667 114.981 27.64C114.981 26.6133 115.375 25.7867 116.161 25.16C116.961 24.52 117.948 24.1867 119.121 24.16C120.361 24.1333 121.341 24.4133 122.061 25ZM135.203 38H131.403V37.84C131.403 37.4133 131.617 37.18 132.043 37.14L132.863 37.1V32.08C132.863 31.1067 132.657 30.38 132.243 29.9C131.83 29.4067 131.29 29.16 130.623 29.16C129.97 29.16 129.43 29.2667 129.003 29.48C128.59 29.6933 128.143 30.0133 127.663 30.44V37.06L129.183 37.18C129.237 37.7267 129.05 38 128.623 38H124.823V37.84C124.823 37.52 124.917 37.32 125.103 37.24C125.197 37.1867 125.31 37.1533 125.443 37.14L126.283 37.1V25.38L125.243 25.28C124.923 25.24 124.763 24.9533 124.763 24.42L127.663 24.04V29.34C128.583 28.3933 129.63 27.92 130.803 27.92C131.737 27.92 132.537 28.2467 133.203 28.9C133.87 29.54 134.21 30.56 134.223 31.96L134.243 37.06L135.743 37.18C135.797 37.7267 135.617 38 135.203 38ZM141.346 28.96C140.439 28.96 139.739 29.3533 139.246 30.14C138.753 30.9267 138.506 31.9333 138.506 33.16C138.506 34.3733 138.746 35.3667 139.226 36.14C139.706 36.9 140.399 37.28 141.306 37.28C142.213 37.2667 142.913 36.88 143.406 36.12C143.899 35.36 144.146 34.38 144.146 33.18C144.146 31.9667 143.906 30.96 143.426 30.16C142.959 29.3467 142.266 28.9467 141.346 28.96ZM141.466 27.92C142.479 27.92 143.393 28.24 144.206 28.88C144.633 29.2267 144.973 29.7333 145.226 30.4C145.493 31.0667 145.626 31.8667 145.626 32.8C145.653 34.4533 145.266 35.7867 144.466 36.8C143.666 37.8 142.586 38.3 141.226 38.3C139.866 38.3 138.833 37.8733 138.126 37.02C137.419 36.1667 137.053 34.9333 137.026 33.32C137.013 31.7067 137.406 30.4067 138.206 29.42C139.019 28.42 140.106 27.92 141.466 27.92ZM149.482 29.4C150.522 28.4133 151.589 27.92 152.682 27.92C153.776 27.92 154.689 28.3333 155.422 29.16C156.169 29.9733 156.556 31.2 156.582 32.84C156.622 34.4667 156.222 35.7867 155.382 36.8C154.542 37.8 153.362 38.3 151.842 38.3C151.082 38.3 150.309 38.1267 149.522 37.78V41.34L151.042 41.46C151.096 42.0067 150.909 42.28 150.482 42.28H146.682V42.12C146.682 41.8 146.776 41.6 146.962 41.52C147.069 41.48 147.462 41.4333 148.142 41.38V29.26L147.082 29.14C146.776 29.1133 146.622 28.8533 146.622 28.36L149.202 28.02L149.482 29.4ZM149.522 36.24C150.216 36.8933 151.082 37.22 152.122 37.22C153.162 37.22 153.916 36.8267 154.382 36.04C154.862 35.2533 155.102 34.2733 155.102 33.1C155.102 31.9267 154.862 30.9667 154.382 30.22C153.916 29.4733 153.189 29.1 152.202 29.1C151.709 29.1 151.269 29.2 150.882 29.4C150.496 29.6 150.042 29.9133 149.522 30.34V36.24Z" fill="black"/>
</mask>
<g mask="url(#mask0_39_7)">
<path d="M77.2198 24.46H77.7198V23.96H77.2198V24.46ZM76.9398 25.28L76.7428 24.8204L76.7166 24.8317L76.6917 24.8459L76.9398 25.28ZM76.5998 25.38L76.6211 25.8795L76.6353 25.8789L76.6497 25.8775L76.5998 25.38ZM75.6599 25.42L75.6385 24.9205L75.1599 24.9408V25.42H75.6599ZM75.6599 37.78L75.8612 38.2377L76.1599 38.1063V37.78H75.6599ZM74.6199 38L74.2004 38.2722L74.3484 38.5H74.6199V38ZM67.4799 27L67.8992 26.7278L66.9799 25.3113V27H67.4799ZM67.4799 37H66.9799V37.4606L67.4389 37.4983L67.4799 37ZM68.9398 37.12L69.4377 37.0747L69.3997 36.6561L68.9809 36.6217L68.9398 37.12ZM64.8398 38H64.3398V38.5H64.8398V38ZM65.1199 37.16L64.9228 36.7004L64.8966 36.7117L64.8717 36.7259L65.1199 37.16ZM65.4598 37.08L65.4381 36.5805L65.424 36.5811L65.41 36.5825L65.4598 37.08ZM66.3798 37.04L66.4016 37.5395L66.8798 37.5187V37.04H66.3798ZM66.3798 25.46H66.8798V24.9994L66.4208 24.9617L66.3798 25.46ZM64.9198 25.34L64.4219 25.3853L64.4599 25.8039L64.8788 25.8383L64.9198 25.34ZM67.5798 24.46L67.9995 24.1881L67.8516 23.96H67.5798V24.46ZM74.5798 35.26L74.1602 35.5319L75.0798 36.9507V35.26H74.5798ZM74.5798 25.46H75.0798V24.9994L74.6208 24.9617L74.5798 25.46ZM73.1199 25.34L72.6219 25.3853L72.66 25.8039L73.0788 25.8383L73.1199 25.34ZM73.6599 24.96H77.2198V23.96H73.6599V24.96ZM77.2198 24.46C76.7198 24.46 76.7198 24.46 76.7198 24.46V24.461C76.7198 24.461 76.7198 24.462 76.7198 24.4621C76.7198 24.4621 76.7198 24.463 76.7198 24.4631V24.4642C76.7198 24.4641 76.7198 24.4643 76.7198 24.4642C76.7198 24.4642 76.7198 24.4651 76.7198 24.4652C76.7198 24.4651 76.7198 24.4653 76.7198 24.4652C76.7198 24.4653 76.7198 24.4663 76.7198 24.4663C76.7198 24.4664 76.7198 24.4672 76.7198 24.4673C76.7198 24.4674 76.7198 24.4683 76.7198 24.4684C76.7198 24.4685 76.7198 24.4693 76.7198 24.4694C76.7198 24.4693 76.7198 24.4695 76.7198 24.4694C76.7198 24.4695 76.7198 24.4704 76.7198 24.4705V24.4716C76.7198 24.4715 76.7198 24.4717 76.7198 24.4716C76.7198 24.4716 76.7198 24.4726 76.7198 24.4727C76.7198 24.4728 76.7198 24.4739 76.7198 24.4739V24.475C76.7198 24.4751 76.7198 24.4761 76.7198 24.4762C76.7198 24.4763 76.7198 24.4774 76.7198 24.4774C76.7198 24.4773 76.7198 24.4775 76.7198 24.4774C76.7198 24.4774 76.7198 24.4784 76.7198 24.4785C76.7198 24.4786 76.7198 24.4795 76.7198 24.4796C76.7198 24.4795 76.7198 24.4797 76.7198 24.4796C76.7198 24.4797 76.7198 24.4806 76.7198 24.4807C76.7198 24.4807 76.7198 24.4817 76.7198 24.4818C76.7198 24.4817 76.7198 24.4819 76.7198 24.4818C76.7198 24.4819 76.7198 24.4829 76.7198 24.483C76.7198 24.4831 76.7198 24.4841 76.7198 24.4842C76.7198 24.4843 76.7198 24.4851 76.7198 24.4852C76.7198 24.4852 76.7198 24.4863 76.7198 24.4864C76.7198 24.4863 76.7198 24.4865 76.7198 24.4864C76.7198 24.4865 76.7198 24.4876 76.7198 24.4877C76.7198 24.4878 76.7198 24.4887 76.7198 24.4887C76.7198 24.4888 76.7198 24.4897 76.7198 24.4898C76.7198 24.4899 76.7198 24.4908 76.7198 24.4909C76.7198 24.491 76.7198 24.4919 76.7198 24.492C76.7198 24.4919 76.7198 24.4921 76.7198 24.492C76.7198 24.492 76.7198 24.493 76.7198 24.4931C76.7198 24.493 76.7198 24.4932 76.7198 24.4931C76.7198 24.4932 76.7198 24.4942 76.7198 24.4943C76.7198 24.4942 76.7198 24.4944 76.7198 24.4943C76.7198 24.4944 76.7198 24.4954 76.7198 24.4954C76.7198 24.4953 76.7198 24.4955 76.7198 24.4954C76.7198 24.4955 76.7198 24.4965 76.7198 24.4966C76.7198 24.4965 76.7198 24.4967 76.7198 24.4966C76.7198 24.4967 76.7198 24.4977 76.7198 24.4978C76.7198 24.4977 76.7198 24.4979 76.7198 24.4978C76.7198 24.4979 76.7198 24.499 76.7198 24.4991C76.7198 24.499 76.7198 24.4992 76.7198 24.4991C76.7198 24.4992 76.7198 24.5002 76.7198 24.5003C76.7198 24.5004 76.7198 24.5012 76.7198 24.5013C76.7198 24.5012 76.7198 24.5014 76.7198 24.5013C76.7198 24.5014 76.7198 24.5024 76.7198 24.5025C76.7198 24.5024 76.7198 24.5026 76.7198 24.5025C76.7198 24.5026 76.7198 24.5037 76.7198 24.5038C76.7198 24.5039 76.7198 24.5047 76.7198 24.5048C76.7198 24.5046 76.7198 24.5049 76.7198 24.5048C76.7198 24.5049 76.7198 24.506 76.7198 24.5062C76.7198 24.5061 76.7198 24.5063 76.7198 24.5062C76.7198 24.5063 76.7198 24.5074 76.7198 24.5075C76.7198 24.5073 76.7198 24.5076 76.7198 24.5075C76.7198 24.5077 76.7198 24.5088 76.7198 24.5089C76.7198 24.5088 76.7198 24.509 76.7198 24.5089C76.7198 24.509 76.7198 24.5102 76.7198 24.5103C76.7198 24.5102 76.7198 24.5104 76.7198 24.5103C76.7198 24.5104 76.7198 24.5116 76.7198 24.5117C76.7198 24.5118 76.7198 24.5126 76.7198 24.5128C76.7198 24.5127 76.7198 24.5129 76.7198 24.5128C76.7198 24.513 76.7198 24.5141 76.7198 24.5142C76.7198 24.5144 76.7198 24.5152 76.7198 24.5153C76.7198 24.5155 76.7198 24.5163 76.7198 24.5164C76.7198 24.5166 76.7198 24.5174 76.7198 24.5175C76.7198 24.5176 76.7198 24.5185 76.7198 24.5187C76.7198 24.5188 76.7198 24.5197 76.7198 24.5198C76.7198 24.5199 76.7198 24.5208 76.7198 24.5209C76.7198 24.521 76.7198 24.522 76.7198 24.5221C76.7198 24.5222 76.7198 24.5232 76.7198 24.5233C76.7198 24.5234 76.7198 24.5243 76.7198 24.5245C76.7198 24.5246 76.7198 24.5255 76.7198 24.5257C76.7198 24.5258 76.7198 24.5267 76.7198 24.5269C76.7198 24.527 76.7198 24.528 76.7198 24.5281C76.7198 24.5282 76.7198 24.5292 76.7198 24.5293C76.7198 24.5295 76.7198 24.5304 76.7198 24.5306C76.7198 24.5307 76.7198 24.5317 76.7198 24.5318C76.7198 24.532 76.7198 24.5329 76.7198 24.5331C76.7198 24.5333 76.7198 24.5342 76.7198 24.5343C76.7198 24.5344 76.7198 24.5355 76.7198 24.5356C76.7198 24.5357 76.7198 24.5368 76.7198 24.5369C76.7198 24.537 76.7198 24.5381 76.7198 24.5382C76.7198 24.5383 76.7198 24.5394 76.7198 24.5395C76.7198 24.5397 76.7198 24.5407 76.7198 24.5409C76.7198 24.541 76.7198 24.5421 76.7198 24.5422C76.7198 24.5424 76.7198 24.5434 76.7198 24.5436C76.7198 24.5437 76.7198 24.5448 76.7198 24.5449C76.7198 24.5451 76.7198 24.5461 76.7198 24.5463C76.7198 24.5465 76.7198 24.5475 76.7198 24.5477C76.7198 24.5479 76.7198 24.5489 76.7198 24.5491C76.7198 24.5493 76.7198 24.5503 76.7198 24.5505C76.7198 24.5507 76.7198 24.5517 76.7198 24.5519C76.7198 24.5521 76.7198 24.5532 76.7198 24.5533C76.7198 24.5534 76.7198 24.5546 76.7198 24.5547C76.7198 24.5549 76.7198 24.556 76.7198 24.5562C76.7198 24.5563 76.7198 24.5575 76.7198 24.5577C76.7198 24.5579 76.7198 24.559 76.7198 24.5591C76.7198 24.559 76.7198 24.5593 76.7198 24.5591C76.7198 24.5593 76.7198 24.5599 76.7198 24.5601C76.7198 24.5603 76.7198 24.5614 76.7198 24.5616C76.7198 24.5618 76.7198 24.5629 76.7198 24.5631C76.7198 24.5633 76.7198 24.5644 76.7198 24.5646C76.7198 24.5648 76.7198 24.566 76.7198 24.5661C76.7198 24.566 76.7198 24.5663 76.7198 24.5661C76.7198 24.5663 76.7198 24.567 76.7198 24.5672C76.7198 24.5673 76.7198 24.5685 76.7198 24.5687C76.7198 24.5689 76.7198 24.5701 76.7198 24.5702C76.7198 24.57 76.7198 24.5704 76.7198 24.5702C76.7198 24.5703 76.7198 24.5711 76.7198 24.5713C76.7198 24.5715 76.7198 24.5727 76.7198 24.5729C76.7198 24.5731 76.7198 24.5743 76.7198 24.5744C76.7198 24.5742 76.7198 24.5746 76.7198 24.5744C76.7198 24.5745 76.7198 24.5753 76.7198 24.5755C76.7198 24.5753 76.7198 24.5757 76.7198 24.5755C76.7198 24.5757 76.7198 24.5764 76.7198 24.5766C76.7198 24.5764 76.7198 24.5767 76.7198 24.5766C76.7198 24.5768 76.7198 24.5774 76.7198 24.5776C76.7198 24.5774 76.7198 24.5778 76.7198 24.5776C76.7198 24.5777 76.7198 24.5785 76.7198 24.5787C76.7198 24.5786 76.7198 24.5789 76.7198 24.5787C76.7198 24.5789 76.7198 24.5796 76.7198 24.5798C76.7198 24.5796 76.7198 24.58 76.7198 24.5798C76.7198 24.58 76.7198 24.5807 76.7198 24.5809C76.7198 24.5807 76.7198 24.581 76.7198 24.5809C76.7198 24.5811 76.7198 24.5818 76.7198 24.582C76.7198 24.5822 76.7198 24.5834 76.7198 24.5836C76.7198 24.5835 76.7198 24.5838 76.7198 24.5836C76.7198 24.5838 76.7198 24.5845 76.7198 24.5847C76.7198 24.5846 76.7198 24.5849 76.7198 24.5847C76.7198 24.5849 76.7198 24.5856 76.7198 24.5858C76.7198 24.5856 76.7198 24.586 76.7198 24.5858C76.7198 24.5859 76.7198 24.5867 76.7198 24.5869C76.7198 24.5867 76.7198 24.5871 76.7198 24.5869C76.7198 24.5871 76.7198 24.5878 76.7198 24.588C76.7198 24.5878 76.7198 24.5882 76.7198 24.588C76.7198 24.5882 76.7198 24.589 76.7198 24.5891C76.7198 24.5889 76.7198 24.5893 76.7198 24.5891C76.7198 24.5893 76.7198 24.5901 76.7198 24.5903C76.7198 24.5902 76.7198 24.5905 76.7198 24.5903C76.7198 24.5905 76.7198 24.5912 76.7198 24.5914C76.7198 24.5912 76.7198 24.5916 76.7198 24.5914C76.7198 24.5916 76.7198 24.5924 76.7198 24.5925C76.7198 24.5923 76.7198 24.5927 76.7198 24.5925C76.7198 24.5927 76.7198 24.5935 76.7198 24.5937C76.7198 24.5935 76.7198 24.5939 76.7198 24.5937C76.7198 24.5938 76.7198 24.5946 76.7198 24.5948C76.7198 24.5946 76.7198 24.595 76.7198 24.5948C76.7198 24.595 76.7198 24.5958 76.7198 24.596C76.7198 24.5958 76.7198 24.5962 76.7198 24.596C76.7198 24.5961 76.7198 24.5969 76.7198 24.5971C76.7198 24.5969 76.7198 24.5973 76.7198 24.5971C76.7198 24.5973 76.7198 24.5981 76.7198 24.5983C76.7198 24.5981 76.7198 24.5985 76.7198 24.5983C76.7198 24.5985 76.7198 24.5993 76.7198 24.5995C76.7198 24.5993 76.7198 24.5996 76.7198 24.5995C76.7198 24.5997 76.7198 24.6004 76.7198 24.6006C76.7198 24.6004 76.7198 24.6008 76.7198 24.6006C76.7198 24.6008 76.7198 24.6016 76.7198 24.6018C76.7198 24.6016 76.7198 24.602 76.7198 24.6018C76.7198 24.602 76.7198 24.6028 76.7198 24.603C76.7198 24.6028 76.7198 24.6032 76.7198 24.603C76.7198 24.6032 76.7198 24.604 76.7198 24.6042C76.7198 24.604 76.7198 24.6044 76.7198 24.6042C76.7198 24.6044 76.7198 24.6052 76.7198 24.6054C76.7198 24.6052 76.7198 24.6055 76.7198 24.6054C76.7198 24.6056 76.7198 24.6063 76.7198 24.6065C76.7198 24.6063 76.7198 24.6067 76.7198 24.6065C76.7198 24.6067 76.7198 24.6075 76.7198 24.6077C76.7198 24.6075 76.7198 24.6079 76.7198 24.6077C76.7198 24.6079 76.7198 24.6087 76.7198 24.6089C76.7198 24.6086 76.7198 24.6091 76.7198 24.6089C76.7198 24.6091 76.7198 24.61 76.7198 24.6102C76.7198 24.61 76.7198 24.6104 76.7198 24.6102C76.7198 24.6104 76.7198 24.6112 76.7198 24.6114C76.7198 24.6112 76.7198 24.6116 76.7198 24.6114C76.7198 24.6116 76.7198 24.6124 76.7198 24.6126C76.7198 24.6124 76.7198 24.6128 76.7198 24.6126C76.7198 24.6128 76.7198 24.6136 76.7198 24.6138C76.7198 24.6136 76.7198 24.614 76.7198 24.6138C76.7198 24.614 76.7198 24.6148 76.7198 24.615C76.7198 24.6147 76.7198 24.6152 76.7198 24.615C76.7198 24.6152 76.7198 24.6161 76.7198 24.6163C76.7198 24.6161 76.7198 24.6165 76.7198 24.6163C76.7198 24.6165 76.7198 24.6173 76.7198 24.6175C76.7198 24.6173 76.7198 24.6177 76.7198 24.6175C76.7198 24.6177 76.7198 24.6185 76.7198 24.6188C76.7198 24.6186 76.7198 24.619 76.7198 24.6188C76.7198 24.619 76.7198 24.6198 76.7198 24.62H77.7198C77.7198 24.6202 77.7198 24.6198 77.7198 24.62C77.7198 24.6198 77.7198 24.619 77.7198 24.6188C77.7198 24.619 77.7198 24.6185 77.7198 24.6188C77.7198 24.6186 77.7198 24.6177 77.7198 24.6175C77.7198 24.6177 77.7198 24.6173 77.7198 24.6175C77.7198 24.6173 77.7198 24.6165 77.7198 24.6163C77.7198 24.6165 77.7198 24.6161 77.7198 24.6163C77.7198 24.616 77.7198 24.6152 77.7198 24.615C77.7198 24.6152 77.7198 24.6148 77.7198 24.615C77.7198 24.6148 77.7198 24.614 77.7198 24.6138C77.7198 24.614 77.7198 24.6136 77.7198 24.6138C77.7198 24.6136 77.7198 24.6128 77.7198 24.6126C77.7198 24.6128 77.7198 24.6124 77.7198 24.6126C77.7198 24.6124 77.7198 24.6116 77.7198 24.6114C77.7198 24.6116 77.7198 24.6112 77.7198 24.6114C77.7198 24.6112 77.7198 24.6104 77.7198 24.6102C77.7198 24.6104 77.7198 24.61 77.7198 24.6102C77.7198 24.6099 77.7198 24.6091 77.7198 24.6089C77.7198 24.6091 77.7198 24.6087 77.7198 24.6089C77.7198 24.6087 77.7198 24.6079 77.7198 24.6077C77.7198 24.6079 77.7198 24.6075 77.7198 24.6077C77.7198 24.6075 77.7198 24.6067 77.7198 24.6065C77.7198 24.6067 77.7198 24.6063 77.7198 24.6065C77.7198 24.6063 77.7198 24.6055 77.7198 24.6054C77.7198 24.6056 77.7198 24.6052 77.7198 24.6054C77.7198 24.6052 77.7198 24.6044 77.7198 24.6042C77.7198 24.6044 77.7198 24.604 77.7198 24.6042C77.7198 24.604 77.7198 24.6032 77.7198 24.603C77.7198 24.6032 77.7198 24.6028 77.7198 24.603C77.7198 24.6028 77.7198 24.602 77.7198 24.6018C77.7198 24.602 77.7198 24.6016 77.7198 24.6018C77.7198 24.6016 77.7198 24.6008 77.7198 24.6006C77.7198 24.6008 77.7198 24.6004 77.7198 24.6006C77.7198 24.6004 77.7198 24.5996 77.7198 24.5995C77.7198 24.5997 77.7198 24.5993 77.7198 24.5995C77.7198 24.5993 77.7198 24.5985 77.7198 24.5983C77.7198 24.5985 77.7198 24.5981 77.7198 24.5983C77.7198 24.5981 77.7198 24.5973 77.7198 24.5971C77.7198 24.5972 77.7198 24.5969 77.7198 24.5971C77.7198 24.5969 77.7198 24.5962 77.7198 24.596C77.7198 24.5962 77.7198 24.5958 77.7198 24.596C77.7198 24.5958 77.7198 24.595 77.7198 24.5948C77.7198 24.5949 77.7198 24.5946 77.7198 24.5948C77.7198 24.5946 77.7198 24.5939 77.7198 24.5937C77.7198 24.5939 77.7198 24.5935 77.7198 24.5937C77.7198 24.5935 77.7198 24.5927 77.7198 24.5925C77.7198 24.5927 77.7198 24.5924 77.7198 24.5925C77.7198 24.5923 77.7198 24.5916 77.7198 24.5914C77.7198 24.5916 77.7198 24.5912 77.7198 24.5914C77.7198 24.5913 77.7198 24.5905 77.7198 24.5903C77.7198 24.5905 77.7198 24.5901 77.7198 24.5903C77.7198 24.5901 77.7198 24.5893 77.7198 24.5891C77.7198 24.5893 77.7198 24.589 77.7198 24.5891C77.7198 24.5889 77.7198 24.5882 77.7198 24.588C77.7198 24.5882 77.7198 24.5878 77.7198 24.588C77.7198 24.5878 77.7198 24.5871 77.7198 24.5869C77.7198 24.587 77.7198 24.5867 77.7198 24.5869C77.7198 24.5867 77.7198 24.586 77.7198 24.5858C77.7198 24.586 77.7198 24.5856 77.7198 24.5858C77.7198 24.5857 77.7198 24.5849 77.7198 24.5847C77.7198 24.5849 77.7198 24.5845 77.7198 24.5847C77.7198 24.5846 77.7198 24.5838 77.7198 24.5836C77.7198 24.5838 77.7198 24.5834 77.7198 24.5836C77.7198 24.5835 77.7198 24.5827 77.7198 24.5825C77.7198 24.5826 77.7198 24.5823 77.7198 24.5825C77.7198 24.5823 77.7198 24.5816 77.7198 24.5814C77.7198 24.5815 77.7198 24.5812 77.7198 24.5814C77.7198 24.5812 77.7198 24.5805 77.7198 24.5803C77.7198 24.5805 77.7198 24.5801 77.7198 24.5803C77.7198 24.5801 77.7198 24.5794 77.7198 24.5792C77.7198 24.5794 77.7198 24.5791 77.7198 24.5792C77.7198 24.579 77.7198 24.5783 77.7198 24.5782C77.7198 24.5784 77.7198 24.578 77.7198 24.5782C77.7198 24.578 77.7198 24.5773 77.7198 24.5771C77.7198 24.5772 77.7198 24.5769 77.7198 24.5771C77.7198 24.5769 77.7198 24.5762 77.7198 24.576C77.7198 24.5758 77.7198 24.5746 77.7198 24.5744C77.7198 24.5742 77.7198 24.573 77.7198 24.5729C77.7198 24.5731 77.7198 24.5727 77.7198 24.5729C77.7198 24.5728 77.7198 24.572 77.7198 24.5718C77.7198 24.5716 77.7198 24.5704 77.7198 24.5702C77.7198 24.57 77.7198 24.5689 77.7198 24.5687C77.7198 24.5688 77.7198 24.5685 77.7198 24.5687C77.7198 24.5685 77.7198 24.5678 77.7198 24.5677C77.7198 24.5678 77.7198 24.5675 77.7198 24.5677C77.7198 24.5675 77.7198 24.5668 77.7198 24.5666C77.7198 24.5668 77.7198 24.5665 77.7198 24.5666C77.7198 24.5665 77.7198 24.5658 77.7198 24.5656C77.7198 24.5654 77.7198 24.5643 77.7198 24.5641C77.7198 24.5639 77.7198 24.5628 77.7198 24.5626C77.7198 24.5624 77.7198 24.5613 77.7198 24.5611C77.7198 24.5609 77.7198 24.5598 77.7198 24.5596C77.7198 24.5598 77.7198 24.5595 77.7198 24.5596C77.7198 24.5595 77.7198 24.5588 77.7198 24.5586C77.7198 24.5584 77.7198 24.5573 77.7198 24.5572C77.7198 24.557 77.7198 24.5559 77.7198 24.5557C77.7198 24.5556 77.7198 24.5544 77.7198 24.5543C77.7198 24.5542 77.7198 24.553 77.7198 24.5528C77.7198 24.5526 77.7198 24.5516 77.7198 24.5514C77.7198 24.5512 77.7198 24.5502 77.7198 24.55C77.7198 24.5498 77.7198 24.5488 77.7198 24.5486C77.7198 24.5484 77.7198 24.5474 77.7198 24.5472C77.7198 24.547 77.7198 24.546 77.7198 24.5458C77.7198 24.5457 77.7198 24.5446 77.7198 24.5445C77.7198 24.5443 77.7198 24.5433 77.7198 24.5431C77.7198 24.543 77.7198 24.5419 77.7198 24.5418C77.7198 24.5416 77.7198 24.5406 77.7198 24.5404C77.7198 24.5403 77.7198 24.5392 77.7198 24.5391C77.7198 24.539 77.7198 24.5379 77.7198 24.5378C77.7198 24.5377 77.7198 24.5366 77.7198 24.5365C77.7198 24.5364 77.7198 24.5353 77.7198 24.5352C77.7198 24.5351 77.7198 24.5341 77.7198 24.5339C77.7198 24.5337 77.7198 24.5328 77.7198 24.5326C77.7198 24.5325 77.7198 24.5315 77.7198 24.5314C77.7198 24.5312 77.7198 24.5303 77.7198 24.5301C77.7198 24.53 77.7198 24.529 77.7198 24.5289C77.7198 24.5288 77.7198 24.5278 77.7198 24.5277C77.7198 24.5275 77.7198 24.5266 77.7198 24.5265C77.7198 24.5263 77.7198 24.5254 77.7198 24.5253C77.7198 24.5251 77.7198 24.5242 77.7198 24.5241C77.7198 24.524 77.7198 24.523 77.7198 24.5229C77.7198 24.5228 77.7198 24.5218 77.7198 24.5217C77.7198 24.5216 77.7198 24.5207 77.7198 24.5206C77.7198 24.5205 77.7198 24.5195 77.7198 24.5194C77.7198 24.5192 77.7198 24.5184 77.7198 24.5183C77.7198 24.5182 77.7198 24.5173 77.7198 24.5171C77.7198 24.517 77.7198 24.5162 77.7198 24.516C77.7198 24.5159 77.7198 24.5151 77.7198 24.5149C77.7198 24.5148 77.7198 24.514 77.7198 24.5138C77.7198 24.5139 77.7198 24.5137 77.7198 24.5138C77.7198 24.5136 77.7198 24.5125 77.7198 24.5124C77.7198 24.5123 77.7198 24.5114 77.7198 24.5113C77.7198 24.5114 77.7198 24.5112 77.7198 24.5113C77.7198 24.5112 77.7198 24.51 77.7198 24.5099C77.7198 24.51 77.7198 24.5098 77.7198 24.5099C77.7198 24.5098 77.7198 24.5087 77.7198 24.5085C77.7198 24.5086 77.7198 24.5084 77.7198 24.5085C77.7198 24.5084 77.7198 24.5073 77.7198 24.5072C77.7198 24.5073 77.7198 24.5071 77.7198 24.5072C77.7198 24.507 77.7198 24.5059 77.7198 24.5058C77.7198 24.5059 77.7198 24.5057 77.7198 24.5058C77.7198 24.5057 77.7198 24.5046 77.7198 24.5045C77.7198 24.5046 77.7198 24.5044 77.7198 24.5045C77.7198 24.5044 77.7198 24.5033 77.7198 24.5032C77.7198 24.5031 77.7198 24.5023 77.7198 24.5022C77.7198 24.5023 77.7198 24.5021 77.7198 24.5022C77.7198 24.5021 77.7198 24.501 77.7198 24.5009C77.7198 24.501 77.7198 24.5008 77.7198 24.5009C77.7198 24.5008 77.7198 24.4998 77.7198 24.4997C77.7198 24.4998 77.7198 24.4996 77.7198 24.4997C77.7198 24.4996 77.7198 24.4986 77.7198 24.4985C77.7198 24.4984 77.7198 24.4976 77.7198 24.4975C77.7198 24.4976 77.7198 24.4974 77.7198 24.4975C77.7198 24.4974 77.7198 24.4964 77.7198 24.4963C77.7198 24.4964 77.7198 24.4962 77.7198 24.4963C77.7198 24.4963 77.7198 24.4953 77.7198 24.4952C77.7198 24.4953 77.7198 24.4951 77.7198 24.4952C77.7198 24.4951 77.7198 24.4941 77.7198 24.494C77.7198 24.4941 77.7198 24.4939 77.7198 24.494C77.7198 24.4939 77.7198 24.4929 77.7198 24.4929C77.7198 24.493 77.7198 24.4928 77.7198 24.4929C77.7198 24.4928 77.7198 24.4918 77.7198 24.4917C77.7198 24.4916 77.7198 24.4907 77.7198 24.4906C77.7198 24.4905 77.7198 24.4896 77.7198 24.4895C77.7198 24.4894 77.7198 24.4883 77.7198 24.4882C77.7198 24.4883 77.7198 24.4881 77.7198 24.4882C77.7198 24.4881 77.7198 24.487 77.7198 24.4869C77.7198 24.4868 77.7198 24.4857 77.7198 24.4856C77.7198 24.4857 77.7198 24.4855 77.7198 24.4856C77.7198 24.4855 77.7198 24.4845 77.7198 24.4844C77.7198 24.4844 77.7198 24.4833 77.7198 24.4832C77.7198 24.4833 77.7198 24.4831 77.7198 24.4832C77.7198 24.4831 77.7198 24.4821 77.7198 24.482C77.7198 24.4821 77.7198 24.4819 77.7198 24.482C77.7198 24.4819 77.7198 24.481 77.7198 24.4809C77.7198 24.4808 77.7198 24.4798 77.7198 24.4798C77.7198 24.4797 77.7198 24.4788 77.7198 24.4787C77.7198 24.4788 77.7198 24.4786 77.7198 24.4787C77.7198 24.4787 77.7198 24.4777 77.7198 24.4776C77.7198 24.4775 77.7198 24.4765 77.7198 24.4764C77.7198 24.4764 77.7198 24.4753 77.7198 24.4752C77.7198 24.4751 77.7198 24.4742 77.7198 24.4741C77.7198 24.4742 77.7198 24.474 77.7198 24.4741C77.7198 24.474 77.7198 24.4731 77.7198 24.473C77.7198 24.4731 77.7198 24.4729 77.7198 24.473C77.7198 24.4729 77.7198 24.4718 77.7198 24.4718C77.7198 24.4717 77.7198 24.4707 77.7198 24.4706C77.7198 24.4707 77.7198 24.4705 77.7198 24.4706C77.7198 24.4705 77.7198 24.4696 77.7198 24.4695C77.7198 24.4696 77.7198 24.4694 77.7198 24.4695C77.7198 24.4694 77.7198 24.4684 77.7198 24.4684C77.7198 24.4685 77.7198 24.4683 77.7198 24.4684C77.7198 24.4683 77.7198 24.4673 77.7198 24.4673C77.7198 24.4672 77.7198 24.4664 77.7198 24.4663C77.7198 24.4664 77.7198 24.4662 77.7198 24.4663C77.7198 24.4662 77.7198 24.4652 77.7198 24.4652C77.7198 24.4653 77.7198 24.4651 77.7198 24.4652V24.4642C77.7198 24.4641 77.7198 24.4631 77.7198 24.4631V24.4621V24.461C77.7198 24.461 77.7198 24.4601 77.7198 24.46C77.7198 24.46 77.7198 24.46 77.2198 24.46ZM76.7198 24.62C76.7198 24.7637 76.7002 24.8346 76.6895 24.8597C76.6853 24.8696 76.6859 24.8642 76.6968 24.8526C76.7086 24.8399 76.725 24.8281 76.7428 24.8204L77.1368 25.7396C77.6216 25.5318 77.7198 25.0158 77.7198 24.62H76.7198ZM76.6917 24.8459C76.6724 24.8569 76.6303 24.8745 76.5501 24.8825L76.6497 25.8775C76.8361 25.8589 77.0207 25.8097 77.188 25.7141L76.6917 24.8459ZM76.5785 24.8805L75.6385 24.9205L75.6811 25.9195L76.6211 25.8795L76.5785 24.8805ZM75.1599 25.42V37.78H76.1599V25.42H75.1599ZM75.4585 37.3223C75.1879 37.4414 74.9097 37.5 74.6199 37.5V38.5C75.0501 38.5 75.4651 38.4119 75.8612 38.2377L75.4585 37.3223ZM75.0392 37.7278L67.8992 26.7278L67.0604 27.2722L74.2004 38.2722L75.0392 37.7278ZM66.9799 27V37H67.9799V27H66.9799ZM67.4389 37.4983L68.8988 37.6183L68.9809 36.6217L67.5209 36.5017L67.4389 37.4983ZM68.4419 37.1653C68.4527 37.2848 68.45 37.3725 68.4412 37.4338C68.4323 37.4952 68.4192 37.5175 68.4186 37.5185C68.4186 37.5186 68.4192 37.5176 68.4207 37.5157C68.4223 37.5138 68.4244 37.5114 68.4272 37.5088C68.4333 37.5033 68.4396 37.4992 68.4445 37.4968C68.4542 37.492 68.445 37.5 68.3998 37.5V38.5C68.7396 38.5 69.0706 38.3681 69.271 38.0415C69.445 37.7578 69.4679 37.4067 69.4377 37.0747L68.4419 37.1653ZM68.3998 37.5H64.8398V38.5H68.3998V37.5ZM64.8398 38C65.3398 38 65.3398 38 65.3398 38V37.9989C65.3398 37.9989 65.3398 37.998 65.3398 37.9979C65.3398 37.9979 65.3398 37.9969 65.3398 37.9968V37.9957C65.3398 37.9958 65.3398 37.9956 65.3398 37.9957V37.9946C65.3398 37.9947 65.3398 37.9945 65.3398 37.9946C65.3398 37.9945 65.3398 37.9936 65.3398 37.9935C65.3398 37.9934 65.3398 37.9924 65.3398 37.9923C65.3398 37.9922 65.3398 37.9913 65.3398 37.9912C65.3398 37.9913 65.3398 37.9911 65.3398 37.9912C65.3398 37.9911 65.3398 37.9901 65.3398 37.99C65.3398 37.9901 65.3398 37.9899 65.3398 37.99C65.3398 37.9899 65.3398 37.9891 65.3398 37.989V37.9879C65.3398 37.9878 65.3398 37.9869 65.3398 37.9868C65.3398 37.9869 65.3398 37.9867 65.3398 37.9868C65.3398 37.9867 65.3398 37.9858 65.3398 37.9857C65.3398 37.9858 65.3398 37.9856 65.3398 37.9857C65.3398 37.9856 65.3398 37.9846 65.3398 37.9846C65.3398 37.9845 65.3398 37.9834 65.3398 37.9834C65.3398 37.9833 65.3398 37.9822 65.3398 37.9822C65.3398 37.9823 65.3398 37.9821 65.3398 37.9822C65.3398 37.9821 65.3398 37.9812 65.3398 37.9811C65.3398 37.9812 65.3398 37.981 65.3398 37.9811C65.3398 37.9811 65.3398 37.9801 65.3398 37.98C65.3398 37.9799 65.3398 37.979 65.3398 37.9789C65.3398 37.979 65.3398 37.9788 65.3398 37.9789C65.3398 37.9788 65.3398 37.9778 65.3398 37.9777C65.3398 37.9776 65.3398 37.9766 65.3398 37.9766C65.3398 37.9765 65.3398 37.9754 65.3398 37.9753C65.3398 37.9753 65.3398 37.9742 65.3398 37.9741C65.3398 37.974 65.3398 37.9729 65.3398 37.9728C65.3398 37.9729 65.3398 37.9727 65.3398 37.9728C65.3398 37.9727 65.3398 37.9716 65.3398 37.9715C65.3398 37.9714 65.3398 37.9703 65.3398 37.9702C65.3398 37.9701 65.3398 37.9692 65.3398 37.9691C65.3398 37.969 65.3398 37.9681 65.3398 37.968C65.3398 37.9681 65.3398 37.9679 65.3398 37.968C65.3398 37.968 65.3398 37.967 65.3398 37.9669C65.3398 37.967 65.3398 37.9668 65.3398 37.9669C65.3398 37.9668 65.3398 37.9658 65.3398 37.9657C65.3398 37.9658 65.3398 37.9656 65.3398 37.9657C65.3398 37.9656 65.3398 37.9646 65.3398 37.9646C65.3398 37.9647 65.3398 37.9645 65.3398 37.9646C65.3398 37.9645 65.3398 37.9635 65.3398 37.9634C65.3398 37.9635 65.3398 37.9633 65.3398 37.9634C65.3398 37.9633 65.3398 37.9623 65.3398 37.9622C65.3398 37.9623 65.3398 37.9621 65.3398 37.9622C65.3398 37.9621 65.3398 37.961 65.3398 37.9609C65.3398 37.961 65.3398 37.9608 65.3398 37.9609C65.3398 37.9608 65.3398 37.9598 65.3398 37.9597C65.3398 37.9596 65.3398 37.9588 65.3398 37.9587C65.3398 37.9588 65.3398 37.9586 65.3398 37.9587C65.3398 37.9586 65.3398 37.9576 65.3398 37.9575C65.3398 37.9576 65.3398 37.9574 65.3398 37.9575C65.3398 37.9574 65.3398 37.9563 65.3398 37.9562C65.3398 37.9563 65.3398 37.9561 65.3398 37.9562C65.3398 37.9561 65.3398 37.955 65.3398 37.9548C65.3398 37.9549 65.3398 37.9547 65.3398 37.9548C65.3398 37.9547 65.3398 37.9536 65.3398 37.9535C65.3398 37.9536 65.3398 37.9534 65.3398 37.9535C65.3398 37.9534 65.3398 37.9523 65.3398 37.9521C65.3398 37.9522 65.3398 37.952 65.3398 37.9521C65.3398 37.952 65.3398 37.9509 65.3398 37.9508C65.3398 37.9507 65.3398 37.9498 65.3398 37.9497C65.3398 37.9498 65.3398 37.9496 65.3398 37.9497C65.3398 37.9496 65.3398 37.9484 65.3398 37.9483C65.3398 37.9482 65.3398 37.9474 65.3398 37.9472C65.3398 37.9473 65.3398 37.9471 65.3398 37.9472C65.3398 37.947 65.3398 37.9459 65.3398 37.9458C65.3398 37.9456 65.3398 37.9448 65.3398 37.9447C65.3398 37.9445 65.3398 37.9437 65.3398 37.9436C65.3398 37.9435 65.3398 37.9426 65.3398 37.9425C65.3398 37.9424 65.3398 37.9415 65.3398 37.9413C65.3398 37.9412 65.3398 37.9403 65.3398 37.9402C65.3398 37.9401 65.3398 37.9392 65.3398 37.9391C65.3398 37.9389 65.3398 37.938 65.3398 37.9379C65.3398 37.9378 65.3398 37.9368 65.3398 37.9367C65.3398 37.9366 65.3398 37.9357 65.3398 37.9355C65.3398 37.9354 65.3398 37.9345 65.3398 37.9343C65.3398 37.9342 65.3398 37.9333 65.3398 37.9331C65.3398 37.933 65.3398 37.932 65.3398 37.9319C65.3398 37.9318 65.3398 37.9308 65.3398 37.9307C65.3398 37.9305 65.3398 37.9296 65.3398 37.9294C65.3398 37.9293 65.3398 37.9283 65.3398 37.9282C65.3398 37.928 65.3398 37.9271 65.3398 37.9269C65.3398 37.9267 65.3398 37.9258 65.3398 37.9257C65.3398 37.9256 65.3398 37.9245 65.3398 37.9244C65.3398 37.9243 65.3398 37.9232 65.3398 37.9231C65.3398 37.923 65.3398 37.9219 65.3398 37.9218C65.3398 37.9217 65.3398 37.9206 65.3398 37.9205C65.3398 37.9203 65.3398 37.9193 65.3398 37.9191C65.3398 37.919 65.3398 37.9179 65.3398 37.9178C65.3398 37.9176 65.3398 37.9166 65.3398 37.9164C65.3398 37.9163 65.3398 37.9152 65.3398 37.9151C65.3398 37.9149 65.3398 37.9139 65.3398 37.9137C65.3398 37.9135 65.3398 37.9125 65.3398 37.9123C65.3398 37.9121 65.3398 37.9111 65.3398 37.9109C65.3398 37.9107 65.3398 37.9097 65.3398 37.9095C65.3398 37.9093 65.3398 37.9083 65.3398 37.9081C65.3398 37.9079 65.3398 37.9068 65.3398 37.9067C65.3398 37.9066 65.3398 37.9054 65.3398 37.9053C65.3398 37.9051 65.3398 37.904 65.3398 37.9038C65.3398 37.9037 65.3398 37.9025 65.3398 37.9023C65.3398 37.9021 65.3398 37.901 65.3398 37.9009C65.3398 37.901 65.3398 37.9007 65.3398 37.9009C65.3398 37.9007 65.3398 37.9001 65.3398 37.8999C65.3398 37.8997 65.3398 37.8986 65.3398 37.8984C65.3398 37.8982 65.3398 37.8971 65.3398 37.8969C65.3398 37.8967 65.3398 37.8956 65.3398 37.8954C65.3398 37.8952 65.3398 37.894 65.3398 37.8939C65.3398 37.894 65.3398 37.8937 65.3398 37.8939C65.3398 37.8937 65.3398 37.893 65.3398 37.8928C65.3398 37.8926 65.3398 37.8915 65.3398 37.8913C65.3398 37.8911 65.3398 37.8899 65.3398 37.8898C65.3398 37.89 65.3398 37.8896 65.3398 37.8898C65.3398 37.8897 65.3398 37.8889 65.3398 37.8887C65.3398 37.8885 65.3398 37.8873 65.3398 37.8871C65.3398 37.8869 65.3398 37.8857 65.3398 37.8856C65.3398 37.8858 65.3398 37.8854 65.3398 37.8856C65.3398 37.8855 65.3398 37.8847 65.3398 37.8845C65.3398 37.8847 65.3398 37.8843 65.3398 37.8845C65.3398 37.8843 65.3398 37.8836 65.3398 37.8834C65.3398 37.8832 65.3398 37.882 65.3398 37.8818C65.3398 37.882 65.3398 37.8817 65.3398 37.8818C65.3398 37.8816 65.3398 37.8809 65.3398 37.8808C65.3398 37.881 65.3398 37.8806 65.3398 37.8808C65.3398 37.8806 65.3398 37.8799 65.3398 37.8797C65.3398 37.8799 65.3398 37.8795 65.3398 37.8797C65.3398 37.8796 65.3398 37.8788 65.3398 37.8786C65.3398 37.8788 65.3398 37.8784 65.3398 37.8786C65.3398 37.8785 65.3398 37.8777 65.3398 37.8775C65.3398 37.8776 65.3398 37.8773 65.3398 37.8775C65.3398 37.8773 65.3398 37.8766 65.3398 37.8764C65.3398 37.8765 65.3398 37.8762 65.3398 37.8764C65.3398 37.8762 65.3398 37.8755 65.3398 37.8753C65.3398 37.8754 65.3398 37.8751 65.3398 37.8753C65.3398 37.8751 65.3398 37.8744 65.3398 37.8742C65.3398 37.8744 65.3398 37.874 65.3398 37.8742C65.3398 37.8741 65.3398 37.8733 65.3398 37.8731C65.3398 37.8733 65.3398 37.8729 65.3398 37.8731C65.3398 37.8729 65.3398 37.8722 65.3398 37.872C65.3398 37.8722 65.3398 37.8718 65.3398 37.872C65.3398 37.8718 65.3398 37.871 65.3398 37.8708C65.3398 37.871 65.3398 37.8707 65.3398 37.8708C65.3398 37.8706 65.3398 37.8699 65.3398 37.8697C65.3398 37.8698 65.3398 37.8695 65.3398 37.8697C65.3398 37.8695 65.3398 37.8688 65.3398 37.8686C65.3398 37.8688 65.3398 37.8684 65.3398 37.8686C65.3398 37.8684 65.3398 37.8676 65.3398 37.8675C65.3398 37.8677 65.3398 37.8673 65.3398 37.8675C65.3398 37.8673 65.3398 37.8665 65.3398 37.8663C65.3398 37.8665 65.3398 37.8661 65.3398 37.8663C65.3398 37.8662 65.3398 37.8654 65.3398 37.8652C65.3398 37.8654 65.3398 37.865 65.3398 37.8652C65.3398 37.865 65.3398 37.8642 65.3398 37.864C65.3398 37.8642 65.3398 37.8638 65.3398 37.864C65.3398 37.8639 65.3398 37.8631 65.3398 37.8629C65.3398 37.8631 65.3398 37.8627 65.3398 37.8629C65.3398 37.8627 65.3398 37.8619 65.3398 37.8617C65.3398 37.8619 65.3398 37.8615 65.3398 37.8617C65.3398 37.8615 65.3398 37.8607 65.3398 37.8605C65.3398 37.8607 65.3398 37.8603 65.3398 37.8605C65.3398 37.8603 65.3398 37.8596 65.3398 37.8594C65.3398 37.8596 65.3398 37.8592 65.3398 37.8594C65.3398 37.8592 65.3398 37.8584 65.3398 37.8582C65.3398 37.8584 65.3398 37.858 65.3398 37.8582C65.3398 37.858 65.3398 37.8572 65.3398 37.857C65.3398 37.8572 65.3398 37.8568 65.3398 37.857C65.3398 37.8568 65.3398 37.856 65.3398 37.8558C65.3398 37.856 65.3398 37.8556 65.3398 37.8558C65.3398 37.8556 65.3398 37.8548 65.3398 37.8546C65.3398 37.8548 65.3398 37.8545 65.3398 37.8546C65.3398 37.8544 65.3398 37.8537 65.3398 37.8535C65.3398 37.8537 65.3398 37.8533 65.3398 37.8535C65.3398 37.8533 65.3398 37.8525 65.3398 37.8523C65.3398 37.8525 65.3398 37.8521 65.3398 37.8523C65.3398 37.8521 65.3398 37.8513 65.3398 37.8511C65.3398 37.8514 65.3398 37.8509 65.3398 37.8511C65.3398 37.8509 65.3398 37.85 65.3398 37.8498C65.3398 37.85 65.3398 37.8496 65.3398 37.8498C65.3398 37.8496 65.3398 37.8488 65.3398 37.8486C65.3398 37.8488 65.3398 37.8484 65.3398 37.8486C65.3398 37.8484 65.3398 37.8476 65.3398 37.8474C65.3398 37.8476 65.3398 37.8472 65.3398 37.8474C65.3398 37.8472 65.3398 37.8464 65.3398 37.8462C65.3398 37.8464 65.3398 37.846 65.3398 37.8462C65.3398 37.846 65.3398 37.8452 65.3398 37.845C65.3398 37.8453 65.3398 37.8448 65.3398 37.845C65.3398 37.8448 65.3398 37.8439 65.3398 37.8437C65.3398 37.8439 65.3398 37.8435 65.3398 37.8437C65.3398 37.8435 65.3398 37.8427 65.3398 37.8425C65.3398 37.8427 65.3398 37.8423 65.3398 37.8425C65.3398 37.8423 65.3398 37.8415 65.3398 37.8412C65.3398 37.8414 65.3398 37.841 65.3398 37.8412C65.3398 37.841 65.3398 37.8402 65.3398 37.84H64.3398C64.3398 37.8398 64.3398 37.8402 64.3398 37.84C64.3398 37.8402 64.3398 37.841 64.3398 37.8412C64.3398 37.841 64.3398 37.8415 64.3398 37.8412C64.3398 37.8414 64.3398 37.8423 64.3398 37.8425C64.3398 37.8423 64.3398 37.8427 64.3398 37.8425C64.3398 37.8427 64.3398 37.8435 64.3398 37.8437C64.3398 37.8435 64.3398 37.8439 64.3398 37.8437C64.3398 37.844 64.3398 37.8448 64.3398 37.845C64.3398 37.8448 64.3398 37.8452 64.3398 37.845C64.3398 37.8452 64.3398 37.846 64.3398 37.8462C64.3398 37.846 64.3398 37.8464 64.3398 37.8462C64.3398 37.8464 64.3398 37.8472 64.3398 37.8474C64.3398 37.8472 64.3398 37.8476 64.3398 37.8474C64.3398 37.8476 64.3398 37.8484 64.3398 37.8486C64.3398 37.8484 64.3398 37.8488 64.3398 37.8486C64.3398 37.8488 64.3398 37.8496 64.3398 37.8498C64.3398 37.8496 64.3398 37.85 64.3398 37.8498C64.3398 37.8501 64.3398 37.8509 64.3398 37.8511C64.3398 37.8509 64.3398 37.8513 64.3398 37.8511C64.3398 37.8513 64.3398 37.8521 64.3398 37.8523C64.3398 37.8521 64.3398 37.8525 64.3398 37.8523C64.3398 37.8525 64.3398 37.8533 64.3398 37.8535C64.3398 37.8533 64.3398 37.8537 64.3398 37.8535C64.3398 37.8537 64.3398 37.8545 64.3398 37.8546C64.3398 37.8544 64.3398 37.8548 64.3398 37.8546C64.3398 37.8548 64.3398 37.8556 64.3398 37.8558C64.3398 37.8556 64.3398 37.856 64.3398 37.8558C64.3398 37.856 64.3398 37.8568 64.3398 37.857C64.3398 37.8568 64.3398 37.8572 64.3398 37.857C64.3398 37.8572 64.3398 37.858 64.3398 37.8582C64.3398 37.858 64.3398 37.8584 64.3398 37.8582C64.3398 37.8584 64.3398 37.8592 64.3398 37.8594C64.3398 37.8592 64.3398 37.8596 64.3398 37.8594C64.3398 37.8596 64.3398 37.8603 64.3398 37.8605C64.3398 37.8603 64.3398 37.8607 64.3398 37.8605C64.3398 37.8607 64.3398 37.8615 64.3398 37.8617C64.3398 37.8615 64.3398 37.8619 64.3398 37.8617C64.3398 37.8619 64.3398 37.8627 64.3398 37.8629C64.3398 37.8628 64.3398 37.8631 64.3398 37.8629C64.3398 37.8631 64.3398 37.8638 64.3398 37.864C64.3398 37.8638 64.3398 37.8642 64.3398 37.864C64.3398 37.8642 64.3398 37.865 64.3398 37.8652C64.3398 37.8651 64.3398 37.8654 64.3398 37.8652C64.3398 37.8654 64.3398 37.8661 64.3398 37.8663C64.3398 37.8661 64.3398 37.8665 64.3398 37.8663C64.3398 37.8665 64.3398 37.8673 64.3398 37.8675C64.3398 37.8673 64.3398 37.8676 64.3398 37.8675C64.3398 37.8677 64.3398 37.8684 64.3398 37.8686C64.3398 37.8684 64.3398 37.8688 64.3398 37.8686C64.3398 37.8687 64.3398 37.8695 64.3398 37.8697C64.3398 37.8695 64.3398 37.8699 64.3398 37.8697C64.3398 37.8699 64.3398 37.8707 64.3398 37.8708C64.3398 37.8706 64.3398 37.871 64.3398 37.8708C64.3398 37.871 64.3398 37.8718 64.3398 37.872C64.3398 37.8718 64.3398 37.8722 64.3398 37.872C64.3398 37.8722 64.3398 37.8729 64.3398 37.8731C64.3398 37.873 64.3398 37.8733 64.3398 37.8731C64.3398 37.8733 64.3398 37.874 64.3398 37.8742C64.3398 37.874 64.3398 37.8744 64.3398 37.8742C64.3398 37.8743 64.3398 37.8751 64.3398 37.8753C64.3398 37.8751 64.3398 37.8755 64.3398 37.8753C64.3398 37.8754 64.3398 37.8762 64.3398 37.8764C64.3398 37.8762 64.3398 37.8766 64.3398 37.8764C64.3398 37.8765 64.3398 37.8773 64.3398 37.8775C64.3398 37.8774 64.3398 37.8777 64.3398 37.8775C64.3398 37.8777 64.3398 37.8784 64.3398 37.8786C64.3398 37.8785 64.3398 37.8788 64.3398 37.8786C64.3398 37.8788 64.3398 37.8795 64.3398 37.8797C64.3398 37.8795 64.3398 37.8799 64.3398 37.8797C64.3398 37.8799 64.3398 37.8806 64.3398 37.8808C64.3398 37.8806 64.3398 37.8809 64.3398 37.8808C64.3398 37.881 64.3398 37.8817 64.3398 37.8818C64.3398 37.8816 64.3398 37.882 64.3398 37.8818C64.3398 37.882 64.3398 37.8827 64.3398 37.8829C64.3398 37.8828 64.3398 37.8831 64.3398 37.8829C64.3398 37.8831 64.3398 37.8838 64.3398 37.884C64.3398 37.8842 64.3398 37.8854 64.3398 37.8856C64.3398 37.8858 64.3398 37.887 64.3398 37.8871C64.3398 37.8869 64.3398 37.8873 64.3398 37.8871C64.3398 37.8872 64.3398 37.888 64.3398 37.8882C64.3398 37.8884 64.3398 37.8896 64.3398 37.8898C64.3398 37.89 64.3398 37.8911 64.3398 37.8913C64.3398 37.8915 64.3398 37.8927 64.3398 37.8928C64.3398 37.8926 64.3398 37.893 64.3398 37.8928C64.3398 37.8929 64.3398 37.8937 64.3398 37.8939C64.3398 37.8941 64.3398 37.8952 64.3398 37.8954C64.3398 37.8956 64.3398 37.8967 64.3398 37.8969C64.3398 37.8971 64.3398 37.8982 64.3398 37.8984C64.3398 37.8986 64.3398 37.8997 64.3398 37.8999C64.3398 37.8997 64.3398 37.9001 64.3398 37.8999C64.3398 37.9 64.3398 37.9007 64.3398 37.9009C64.3398 37.901 64.3398 37.9022 64.3398 37.9023C64.3398 37.9025 64.3398 37.9036 64.3398 37.9038C64.3398 37.9039 64.3398 37.9051 64.3398 37.9053C64.3398 37.9055 64.3398 37.9065 64.3398 37.9067C64.3398 37.9069 64.3398 37.908 64.3398 37.9081C64.3398 37.9082 64.3398 37.9094 64.3398 37.9095C64.3398 37.9096 64.3398 37.9108 64.3398 37.9109C64.3398 37.911 64.3398 37.9122 64.3398 37.9123C64.3398 37.9124 64.3398 37.9136 64.3398 37.9137C64.3398 37.9139 64.3398 37.9149 64.3398 37.9151C64.3398 37.9152 64.3398 37.9163 64.3398 37.9164C64.3398 37.9166 64.3398 37.9176 64.3398 37.9178C64.3398 37.9179 64.3398 37.919 64.3398 37.9191C64.3398 37.9193 64.3398 37.9203 64.3398 37.9205C64.3398 37.9207 64.3398 37.9216 64.3398 37.9218C64.3398 37.922 64.3398 37.9229 64.3398 37.9231C64.3398 37.9233 64.3398 37.9242 64.3398 37.9244C64.3398 37.9246 64.3398 37.9255 64.3398 37.9257C64.3398 37.9258 64.3398 37.9268 64.3398 37.9269C64.3398 37.927 64.3398 37.9281 64.3398 37.9282C64.3398 37.9284 64.3398 37.9293 64.3398 37.9294C64.3398 37.9295 64.3398 37.9305 64.3398 37.9307C64.3398 37.9308 64.3398 37.9318 64.3398 37.9319C64.3398 37.9321 64.3398 37.933 64.3398 37.9331C64.3398 37.9333 64.3398 37.9342 64.3398 37.9343C64.3398 37.9345 64.3398 37.9354 64.3398 37.9355C64.3398 37.9357 64.3398 37.9366 64.3398 37.9367C64.3398 37.9368 64.3398 37.9378 64.3398 37.9379C64.3398 37.938 64.3398 37.9389 64.3398 37.9391C64.3398 37.9392 64.3398 37.9401 64.3398 37.9402C64.3398 37.9403 64.3398 37.9412 64.3398 37.9413C64.3398 37.9414 64.3398 37.9424 64.3398 37.9425C64.3398 37.9426 64.3398 37.9435 64.3398 37.9436C64.3398 37.9438 64.3398 37.9446 64.3398 37.9447C64.3398 37.9449 64.3398 37.9457 64.3398 37.9458C64.3398 37.9459 64.3398 37.9468 64.3398 37.9469C64.3398 37.947 64.3398 37.9478 64.3398 37.948C64.3398 37.9479 64.3398 37.9481 64.3398 37.948C64.3398 37.9481 64.3398 37.9493 64.3398 37.9494C64.3398 37.9493 64.3398 37.9495 64.3398 37.9494C64.3398 37.9495 64.3398 37.9507 64.3398 37.9508C64.3398 37.9507 64.3398 37.9509 64.3398 37.9508C64.3398 37.9509 64.3398 37.952 64.3398 37.9521C64.3398 37.9522 64.3398 37.9531 64.3398 37.9532C64.3398 37.9531 64.3398 37.9533 64.3398 37.9532C64.3398 37.9533 64.3398 37.9544 64.3398 37.9545C64.3398 37.9546 64.3398 37.9554 64.3398 37.9555C64.3398 37.9554 64.3398 37.9556 64.3398 37.9555C64.3398 37.9556 64.3398 37.9567 64.3398 37.9568C64.3398 37.9569 64.3398 37.9577 64.3398 37.9578C64.3398 37.9577 64.3398 37.9579 64.3398 37.9578C64.3398 37.9579 64.3398 37.959 64.3398 37.9591C64.3398 37.959 64.3398 37.9592 64.3398 37.9591C64.3398 37.9592 64.3398 37.9602 64.3398 37.9603C64.3398 37.9602 64.3398 37.9604 64.3398 37.9603C64.3398 37.9604 64.3398 37.9614 64.3398 37.9615C64.3398 37.9616 64.3398 37.9624 64.3398 37.9625C64.3398 37.9624 64.3398 37.9626 64.3398 37.9625C64.3398 37.9626 64.3398 37.9636 64.3398 37.9637C64.3398 37.9636 64.3398 37.9638 64.3398 37.9637C64.3398 37.9637 64.3398 37.9647 64.3398 37.9648C64.3398 37.9647 64.3398 37.9649 64.3398 37.9648C64.3398 37.9649 64.3398 37.9659 64.3398 37.966C64.3398 37.9659 64.3398 37.9661 64.3398 37.966C64.3398 37.9661 64.3398 37.9671 64.3398 37.9671C64.3398 37.967 64.3398 37.9672 64.3398 37.9671C64.3398 37.9672 64.3398 37.9682 64.3398 37.9683C64.3398 37.9684 64.3398 37.9693 64.3398 37.9694C64.3398 37.9695 64.3398 37.9704 64.3398 37.9705C64.3398 37.9706 64.3398 37.9717 64.3398 37.9718C64.3398 37.9717 64.3398 37.9719 64.3398 37.9718C64.3398 37.9719 64.3398 37.973 64.3398 37.9731C64.3398 37.9732 64.3398 37.9743 64.3398 37.9743C64.3398 37.9744 64.3398 37.9755 64.3398 37.9756C64.3398 37.9756 64.3398 37.9767 64.3398 37.9768C64.3398 37.9769 64.3398 37.9779 64.3398 37.978C64.3398 37.9779 64.3398 37.9781 64.3398 37.978C64.3398 37.9781 64.3398 37.979 64.3398 37.9791C64.3398 37.9792 64.3398 37.9802 64.3398 37.9802C64.3398 37.9801 64.3398 37.9803 64.3398 37.9802C64.3398 37.9803 64.3398 37.9812 64.3398 37.9813C64.3398 37.9812 64.3398 37.9814 64.3398 37.9813C64.3398 37.9813 64.3398 37.9823 64.3398 37.9824C64.3398 37.9824 64.3398 37.9835 64.3398 37.9836C64.3398 37.9836 64.3398 37.9847 64.3398 37.9848C64.3398 37.9847 64.3398 37.9849 64.3398 37.9848C64.3398 37.9849 64.3398 37.9858 64.3398 37.9859C64.3398 37.9858 64.3398 37.986 64.3398 37.9859C64.3398 37.986 64.3398 37.9869 64.3398 37.987C64.3398 37.9871 64.3398 37.9882 64.3398 37.9882C64.3398 37.9881 64.3398 37.9883 64.3398 37.9882C64.3398 37.9883 64.3398 37.9893 64.3398 37.9894C64.3398 37.9893 64.3398 37.9895 64.3398 37.9894C64.3398 37.9895 64.3398 37.9904 64.3398 37.9905C64.3398 37.9904 64.3398 37.9906 64.3398 37.9905V37.9916C64.3398 37.9915 64.3398 37.9917 64.3398 37.9916C64.3398 37.9917 64.3398 37.9927 64.3398 37.9927C64.3398 37.9926 64.3398 37.9928 64.3398 37.9927C64.3398 37.9927 64.3398 37.9937 64.3398 37.9938C64.3398 37.9937 64.3398 37.9939 64.3398 37.9938C64.3398 37.9939 64.3398 37.9949 64.3398 37.9949C64.3398 37.9948 64.3398 37.995 64.3398 37.9949V37.996C64.3398 37.9961 64.3398 37.997 64.3398 37.997V37.9981V38C64.3398 38 64.3398 38 64.8398 38ZM65.3398 37.84C65.3398 37.7069 65.3584 37.6338 65.3721 37.6004C65.3827 37.5747 65.3845 37.5847 65.368 37.5941L64.8717 36.7259C64.4496 36.9671 64.3398 37.4299 64.3398 37.84H65.3398ZM65.3168 37.6196C65.351 37.6049 65.4118 37.5873 65.5097 37.5775L65.41 36.5825C65.2412 36.5994 65.0753 36.6351 64.9228 36.7004L65.3168 37.6196ZM65.4815 37.5795L66.4016 37.5395L66.3581 36.5405L65.4381 36.5805L65.4815 37.5795ZM66.8798 37.04V25.46H65.8798V37.04H66.8798ZM66.4208 24.9617L64.9608 24.8417L64.8788 25.8383L66.3388 25.9583L66.4208 24.9617ZM65.4177 25.2947C65.4069 25.1751 65.4096 25.0875 65.4184 25.0262C65.4273 24.9648 65.4404 24.9425 65.441 24.9415C65.441 24.9414 65.4404 24.9424 65.4389 24.9443C65.4373 24.9462 65.4352 24.9486 65.4324 24.9512C65.4263 24.9567 65.42 24.9608 65.4151 24.9632C65.4054 24.968 65.4146 24.96 65.4598 24.96V23.96C65.12 23.96 64.789 24.0919 64.5886 24.4185C64.4146 24.7022 64.3917 25.0533 64.4219 25.3853L65.4177 25.2947ZM65.4598 24.96H67.5798V23.96H65.4598V24.96ZM67.1602 24.7319L74.1602 35.5319L74.9995 34.9881L67.9995 24.1881L67.1602 24.7319ZM75.0798 35.26V25.46H74.0798V35.26H75.0798ZM74.6208 24.9617L73.1609 24.8417L73.0788 25.8383L74.5388 25.9583L74.6208 24.9617ZM73.6177 25.2947C73.6069 25.1751 73.6096 25.0875 73.6185 25.0262C73.6273 24.9648 73.6404 24.9425 73.641 24.9415C73.641 24.9414 73.6404 24.9424 73.6389 24.9443C73.6373 24.9462 73.6352 24.9486 73.6324 24.9512C73.6263 24.9567 73.6201 24.9608 73.6152 24.9632C73.6055 24.968 73.6147 24.96 73.6599 24.96V23.96C73.3201 23.96 72.9891 24.0919 72.7887 24.4185C72.6147 24.7022 72.5917 25.0533 72.6219 25.3853L73.6177 25.2947ZM87.5312 28.22L88.0055 28.3781L88.2249 27.72H87.5312V28.22ZM87.5312 28.38L87.0409 28.4781L87.0433 28.4897L87.0462 28.5013L87.5312 28.38ZM87.5112 28.58L87.0369 28.4219L87.027 28.4514L87.021 28.4819L87.5112 28.58ZM87.4512 28.78L87.8984 29.0036L87.9077 28.985L87.9155 28.9657L87.4512 28.78ZM86.6912 29.08L86.6445 28.5822L86.3422 28.6105L86.2281 28.8918L86.6912 29.08ZM83.2712 37.5L82.808 37.3118L82.5285 38H83.2712V37.5ZM83.2912 37.5L83.7594 37.6756L84.0127 37H83.2912V37.5ZM82.1912 39.98L81.7509 39.7429L81.7476 39.7496L82.1912 39.98ZM81.3312 41.4L80.9486 41.0778L80.94 41.0886L81.3312 41.4ZM78.6712 42.06L79.0034 41.6863L78.9974 41.681L78.9913 41.6759L78.6712 42.06ZM78.5312 40.62L78.1638 40.2809L78.1503 40.2955L78.138 40.3111L78.5312 40.62ZM79.4512 40.4L79.939 40.5098L80.0326 40.094L79.6369 39.9358L79.4512 40.4ZM82.2712 37.52L82.7365 37.7033L82.8106 37.5148L82.7328 37.3278L82.2712 37.52ZM78.7912 29.16L79.2528 28.9678L79.1247 28.66H78.7912V29.16ZM78.7712 29.16L78.7104 29.6563L78.7407 29.66H78.7712V29.16ZM77.7912 29.04L77.2936 29.0885L77.3326 29.4876L77.7304 29.5363L77.7912 29.04ZM81.7113 28.22H82.2113V27.72H81.7113V28.22ZM81.4312 28.96L81.2342 28.5004L81.2207 28.5062L81.2076 28.5128L81.4312 28.96ZM80.3312 29.12L80.2888 28.6218L79.6236 28.6784L79.8652 29.3009L80.3312 29.12ZM82.9312 35.82L82.4651 36.0009L82.9334 37.2078L83.3979 35.9994L82.9312 35.82ZM85.4912 29.16L85.9579 29.3394L86.1922 28.7298L85.5427 28.6627L85.4912 29.16ZM84.3312 29.04L83.8336 29.0885L83.8733 29.4953L84.2798 29.5373L84.3312 29.04ZM84.8913 28.72H87.5312V27.72H84.8913V28.72ZM87.0569 28.0619C87.004 28.2203 87.0199 28.373 87.0409 28.4781L88.0215 28.2819C88.0196 28.2726 88.0212 28.2762 88.0212 28.29C88.0212 28.3035 88.0197 28.3357 88.0055 28.3781L87.0569 28.0619ZM87.0462 28.5013C87.0363 28.4614 87.0375 28.4321 87.0387 28.4202C87.0398 28.4087 87.0413 28.4084 87.0369 28.4219L87.9855 28.7381C88.0274 28.6125 88.0619 28.4412 88.0163 28.2587L87.0462 28.5013ZM87.021 28.4819C87.014 28.517 87.0029 28.5544 86.987 28.5943L87.9155 28.9657C87.9529 28.8723 87.9818 28.7763 88.0015 28.6781L87.021 28.4819ZM87.0041 28.5564C87.0418 28.4809 87.0876 28.4823 87.0176 28.5099C86.9524 28.5356 86.8345 28.5644 86.6445 28.5822L86.7379 29.5778C86.9746 29.5556 87.1966 29.5143 87.3848 29.4401C87.5682 29.3677 87.7807 29.2391 87.8984 29.0036L87.0041 28.5564ZM86.2281 28.8918L82.808 37.3118L83.7346 37.6882L87.1545 29.2682L86.2281 28.8918ZM83.2712 38H83.2912V37H83.2712V38ZM82.823 37.3244C82.4687 38.2693 82.1109 39.0742 81.7509 39.7429L82.6314 40.2171C83.0181 39.499 83.3937 38.6507 83.7594 37.6756L82.823 37.3244ZM81.7476 39.7496C81.3879 40.4423 81.1227 40.8711 80.9486 41.0778L81.7137 41.7221C81.9662 41.4222 82.2746 40.9044 82.635 40.2104L81.7476 39.7496ZM80.94 41.0886C80.4543 41.6989 80.0694 41.88 79.7912 41.88V42.88C80.5264 42.88 81.1683 42.4078 81.7225 41.7114L80.94 41.0886ZM79.7912 41.88C79.3397 41.88 79.1117 41.7825 79.0034 41.6863L78.3391 42.4337C78.7109 42.7641 79.2294 42.88 79.7912 42.88V41.88ZM78.9913 41.6759C78.8568 41.5638 78.8112 41.4543 78.8112 41.32H77.8112C77.8112 41.7724 78.0057 42.1562 78.3512 42.4441L78.9913 41.6759ZM78.8112 41.32C78.8112 41.1311 78.8588 41.0123 78.9244 40.9289L78.138 40.3111C77.9103 40.601 77.8112 40.9489 77.8112 41.32H78.8112ZM78.8987 40.9591C78.9907 40.8595 79.039 40.86 79.0512 40.86V39.86C78.6901 39.86 78.3918 40.0338 78.1638 40.2809L78.8987 40.9591ZM79.0512 40.86C79.1418 40.86 79.2072 40.8631 79.2515 40.8675C79.2733 40.8697 79.2857 40.8718 79.2906 40.8728C79.2971 40.8741 79.2862 40.8725 79.2655 40.8642L79.6369 39.9358C79.5374 39.896 79.4314 39.8805 79.351 39.8725C79.2619 39.8636 79.1606 39.86 79.0512 39.86V40.86ZM78.9634 40.2902C78.8953 40.5929 78.8704 40.9494 79.0428 41.2492C79.2416 41.595 79.5967 41.7 79.9112 41.7V40.7C79.8536 40.7 79.8402 40.6906 79.8513 40.6957C79.8694 40.704 79.8942 40.7239 79.9097 40.7508C79.9217 40.7716 79.9138 40.7723 79.912 40.7292C79.9102 40.6857 79.9154 40.6147 79.939 40.5098L78.9634 40.2902ZM79.9112 41.7C80.2782 41.7 80.5838 41.4945 80.8198 41.2586C81.0627 41.0156 81.2972 40.676 81.5276 40.2641L80.6548 39.7759C80.4452 40.1507 80.263 40.4011 80.1127 40.5514C79.9553 40.7088 79.8909 40.7 79.9112 40.7V41.7ZM81.5276 40.2641C81.9791 39.4569 82.382 38.6031 82.7365 37.7033L81.806 37.3367C81.4672 38.1969 81.0833 39.0098 80.6548 39.7759L81.5276 40.2641ZM82.7328 37.3278L79.2528 28.9678L78.3297 29.3521L81.8096 37.7122L82.7328 37.3278ZM78.7912 28.66H78.7712V29.66H78.7912V28.66ZM78.832 28.6637L77.8521 28.5437L77.7304 29.5363L78.7104 29.6563L78.832 28.6637ZM78.2888 28.9914C78.2784 28.8848 78.2818 28.8103 78.2897 28.7615C78.2975 28.7134 78.3079 28.7014 78.3041 28.707C78.2977 28.7163 78.2864 28.725 78.2797 28.728C78.2775 28.7289 78.2964 28.72 78.3512 28.72V27.72C78.026 27.72 77.6913 27.8311 77.4783 28.143C77.2874 28.4225 77.2625 28.7696 77.2936 29.0885L78.2888 28.9914ZM78.3512 28.72H81.7113V27.72H78.3512V28.72ZM81.2113 28.22V28.36H82.2113V28.22H81.2113ZM81.2113 28.36C81.2113 28.4773 81.1932 28.5276 81.1881 28.5386C81.1866 28.5418 81.1895 28.5346 81.2002 28.5239C81.2113 28.5128 81.224 28.5048 81.2342 28.5004L81.6283 29.4196C82.0939 29.22 82.2113 28.7506 82.2113 28.36H81.2113ZM81.2076 28.5128C81.2377 28.4977 81.2442 28.5006 81.1926 28.5122C81.1507 28.5217 81.089 28.5329 81.0042 28.5452C80.8351 28.5698 80.598 28.5955 80.2888 28.6218L80.3736 29.6182C80.691 29.5912 80.9506 29.5635 81.1482 29.5348C81.2467 29.5205 81.336 29.505 81.4124 29.4878C81.4792 29.4727 81.5714 29.4489 81.6548 29.4072L81.2076 28.5128ZM79.8652 29.3009L82.4651 36.0009L83.3973 35.6391L80.7973 28.9391L79.8652 29.3009ZM83.3979 35.9994L85.9579 29.3394L85.0245 28.9806L82.4645 35.6406L83.3979 35.9994ZM85.5427 28.6627L84.3827 28.5427L84.2798 29.5373L85.4398 29.6573L85.5427 28.6627ZM84.8288 28.9914C84.8184 28.8848 84.8219 28.8103 84.8298 28.7615C84.8376 28.7134 84.8479 28.7014 84.8441 28.707C84.8377 28.7163 84.8264 28.725 84.8197 28.728C84.8175 28.7289 84.8365 28.72 84.8913 28.72V27.72C84.5661 27.72 84.2313 27.8311 84.0183 28.143C83.8274 28.4225 83.8025 28.7696 83.8336 29.0885L84.8288 28.9914ZM97.2737 37.38H97.7737V36.9369L97.3337 36.8836L97.2737 37.38ZM94.5937 37.06L95.0874 36.9816L94.9366 36.0316L94.2458 36.7009L94.5937 37.06ZM89.3135 37.6L88.979 37.9718L88.9889 37.9803L89.3135 37.6ZM94.5536 33.04L94.4109 33.5192L95.0536 33.7106V33.04H94.5536ZM93.9736 29.64L93.5831 29.9523L93.5881 29.9585L93.5931 29.9645L93.9736 29.64ZM90.7336 29.54L90.3431 29.2276L90.3419 29.2293L90.7336 29.54ZM90.2136 30.9L90.2551 31.3983L90.6795 31.3629L90.7122 30.9383L90.2136 30.9ZM89.9735 28.5L90.2421 28.9219L90.2487 28.9175L89.9735 28.5ZM94.5735 28.52L94.3341 28.9591L94.3442 28.9643L94.5735 28.52ZM95.9536 37.22H95.4536V37.6631L95.8934 37.7164L95.9536 37.22ZM94.5536 34.24H95.0536V33.9427L94.7924 33.8007L94.5536 34.24ZM90.6136 34.2L90.3028 33.8082L90.2962 33.8136L90.6136 34.2ZM90.5536 36.74L90.2072 37.1008L90.215 37.108L90.5536 36.74ZM94.5536 36.12L94.885 36.4944L95.0536 36.3451V36.12H94.5536ZM96.7737 37.38C96.7737 37.5733 96.717 37.6445 96.6615 37.6865C96.5798 37.7484 96.398 37.82 96.0335 37.82V38.82C96.4958 38.82 96.9339 38.7349 97.2656 38.4835C97.6234 38.2122 97.7737 37.8133 97.7737 37.38H96.7737ZM96.0335 37.82C95.7046 37.82 95.5075 37.7377 95.3829 37.6287C95.2565 37.5181 95.1419 37.3249 95.0874 36.9816L94.0997 37.1384C94.1786 37.6351 94.3707 38.0719 94.7243 38.3813C95.0797 38.6923 95.5358 38.82 96.0335 38.82V37.82ZM94.2458 36.7009C93.4867 37.4362 92.5851 37.8 91.5136 37.8V38.8C92.842 38.8 93.9938 38.3372 94.9414 37.4191L94.2458 36.7009ZM91.5136 37.8C90.6784 37.8 90.0714 37.5895 89.6382 37.2197L88.9889 37.9803C89.649 38.5438 90.5087 38.8 91.5136 38.8V37.8ZM89.648 37.2284C89.2347 36.8563 89.0136 36.3526 89.0136 35.66H88.0136C88.0136 36.5941 88.3256 37.3838 88.979 37.9718L89.648 37.2284ZM89.0136 35.66C89.0136 34.9867 89.255 34.4319 89.7547 33.9655L89.0724 33.2345C88.3721 33.8881 88.0136 34.7066 88.0136 35.66H89.0136ZM89.7547 33.9655C90.2162 33.5348 91.0523 33.26 92.3935 33.26V32.26C90.9615 32.26 89.8109 32.5452 89.0724 33.2345L89.7547 33.9655ZM92.3935 33.26C93.1698 33.26 93.8402 33.3492 94.4109 33.5192L94.6964 32.5608C94.0137 32.3575 93.244 32.26 92.3935 32.26V33.26ZM95.0536 33.04V31.46H94.0536V33.04H95.0536ZM95.0536 31.46C95.0536 30.6147 94.8371 29.882 94.354 29.3155L93.5931 29.9645C93.8833 30.3047 94.0536 30.7853 94.0536 31.46H95.0536ZM94.364 29.3277C93.8743 28.7155 93.1607 28.44 92.3136 28.44V29.44C92.933 29.44 93.3261 29.6311 93.5831 29.9523L94.364 29.3277ZM92.3136 28.44C91.4968 28.44 90.7938 28.6642 90.3431 29.2276L91.124 29.8523C91.3133 29.6157 91.6637 29.44 92.3136 29.44V28.44ZM90.3419 29.2293C89.9697 29.6986 89.7622 30.2482 89.715 30.8617L90.7122 30.9383C90.745 30.5118 90.8843 30.1547 91.1254 29.8507L90.3419 29.2293ZM90.1721 30.4017C89.948 30.4204 89.8098 30.3722 89.7136 30.3L89.1136 31.1C89.444 31.3478 89.8392 31.4329 90.2551 31.3983L90.1721 30.4017ZM89.7136 30.3C89.6671 30.2652 89.5937 30.1821 89.5937 29.92H88.5937C88.5937 30.3779 88.7333 30.8148 89.1136 31.1L89.7136 30.3ZM89.5937 29.92C89.5937 29.5558 89.7642 29.2261 90.2421 28.9219L89.7051 28.0782C89.0097 28.5207 88.5937 29.1375 88.5937 29.92H89.5937ZM90.2487 28.9175C90.7309 28.5997 91.3866 28.42 92.2535 28.42V27.42C91.2539 27.42 90.3896 27.627 89.6984 28.0825L90.2487 28.9175ZM92.2535 28.42C92.9809 28.42 93.6722 28.5981 94.3341 28.9591L94.813 28.0811C94.0083 27.6421 93.1529 27.42 92.2535 27.42V28.42ZM94.3442 28.9643C94.6483 29.1213 94.9136 29.3895 95.1288 29.8084L96.0183 29.3516C95.7268 28.7839 95.3255 28.3454 94.8029 28.0757L94.3442 28.9643ZM95.1288 29.8084C95.3372 30.2144 95.4536 30.7316 95.4536 31.38H96.4536C96.4536 30.6151 96.3165 29.9323 96.0183 29.3516L95.1288 29.8084ZM95.4536 31.38V37.22H96.4536V31.38H95.4536ZM95.8934 37.7164L97.2134 37.8764L97.3337 36.8836L96.0137 36.7236L95.8934 37.7164ZM94.7924 33.8007C94.0945 33.4214 93.2964 33.24 92.4135 33.24V34.24C93.1573 34.24 93.786 34.3919 94.3148 34.6793L94.7924 33.8007ZM92.4135 33.24C91.5547 33.24 90.8191 33.3987 90.3028 33.8082L90.9242 34.5917C91.1813 34.3879 91.6457 34.24 92.4135 34.24V33.24ZM90.2962 33.8136C89.7943 34.2259 89.5536 34.7947 89.5536 35.46H90.5536C90.5536 35.0587 90.6862 34.7874 90.9309 34.5864L90.2962 33.8136ZM89.5536 35.46C89.5536 36.1066 89.7603 36.6717 90.2072 37.1008L90.8998 36.3793C90.6801 36.1684 90.5536 35.8801 90.5536 35.46H89.5536ZM90.215 37.108C90.6653 37.5223 91.2596 37.7 91.9336 37.7V36.7C91.4341 36.7 91.1085 36.5711 90.8922 36.372L90.215 37.108ZM91.9336 37.7C93.0087 37.7 93.9961 37.2812 94.885 36.4944L94.2221 35.7456C93.4843 36.3988 92.7251 36.7 91.9336 36.7V37.7ZM95.0536 36.12V34.24H94.0536V36.12H95.0536ZM100.253 33.18L100.047 33.6357L100.515 33.8468L100.714 33.374L100.253 33.18ZM99.6326 32.9L99.1516 32.764L99.0343 33.1784L99.4268 33.3557L99.6326 32.9ZM100.513 31.5L100.819 31.8954L100.827 31.8892L100.513 31.5ZM105.473 32.02L105.777 32.4172L105.78 32.4147L105.473 32.02ZM105.973 31.3L106.126 30.8241L105.649 30.67L105.496 31.1484L105.973 31.3ZM106.593 31.5L107.081 31.6062L107.178 31.1633L106.746 31.0241L106.593 31.5ZM102.753 32.86L102.475 33.2761L102.482 33.2806L102.753 32.86ZM101.473 32.28L101.449 32.7794L101.45 32.7795L101.473 32.28ZM100.733 32.54L101.048 32.9281L101.055 32.9223L101.062 32.9163L100.733 32.54ZM100.459 32.7243L99.8384 32.4443L99.4268 33.3557L100.047 33.6357L100.459 32.7243ZM100.114 33.036C100.265 32.5025 100.507 32.1366 100.819 31.8954L100.207 31.1046C99.6914 31.5034 99.3475 32.0708 99.1516 32.764L100.114 33.036ZM100.827 31.8892C101.161 31.6199 101.475 31.521 101.783 31.5391L101.842 30.5409C101.244 30.5057 100.692 30.7135 100.199 31.1108L100.827 31.8892ZM101.783 31.5391C102.108 31.5582 102.51 31.7103 102.999 32.0648L103.586 31.2552C103.009 30.8364 102.425 30.5751 101.842 30.5409L101.783 31.5391ZM102.999 32.0648C103.552 32.4653 104.093 32.7404 104.594 32.7596L104.632 31.7604C104.439 31.753 104.101 31.628 103.586 31.2552L102.999 32.0648ZM104.594 32.7596C105.031 32.7764 105.439 32.6756 105.777 32.4172L105.169 31.6228C105.054 31.7111 104.888 31.7702 104.632 31.7604L104.594 32.7596ZM105.78 32.4147C106.101 32.1652 106.326 31.8399 106.449 31.4516L105.496 31.1484C105.433 31.3467 105.325 31.5015 105.166 31.6253L105.78 32.4147ZM105.819 31.7759L106.439 31.9759L106.746 31.0241L106.126 30.8241L105.819 31.7759ZM106.104 31.3938C105.989 31.9223 105.768 32.3096 105.458 32.5884L106.127 33.3323C106.618 32.8911 106.93 32.3044 107.081 31.6062L106.104 31.3938ZM105.459 32.5877C105.176 32.8414 104.84 32.9612 104.417 32.9406L104.368 33.9394C105.039 33.9721 105.636 33.7719 106.127 33.3323L105.459 32.5877ZM104.417 32.9406C103.99 32.9193 103.528 32.7637 103.023 32.4394L102.482 33.2806C103.098 33.6763 103.728 33.9074 104.368 33.9394L104.417 32.9406ZM103.03 32.444C102.736 32.2482 102.465 32.0911 102.219 31.9796C101.978 31.8705 101.732 31.7913 101.496 31.7805L101.45 32.7795C101.507 32.7821 101.621 32.8062 101.806 32.8904C101.987 32.9722 102.209 33.0986 102.475 33.2761L103.03 32.444ZM101.497 31.7806C101.086 31.761 100.713 31.893 100.404 32.1637L101.062 32.9163C101.179 32.8137 101.3 32.7723 101.449 32.7794L101.497 31.7806ZM100.418 32.1519C100.14 32.377 99.9303 32.657 99.7918 32.986L100.714 33.374C100.788 33.1963 100.898 33.0496 101.048 32.9281L100.418 32.1519ZM122.061 25L122.384 24.6178L122.377 24.6124L122.061 25ZM122.321 27.3L122.642 27.6841L122.643 27.6825L122.321 27.3ZM121.441 27.58H120.941V28.0611L121.422 28.0796L121.441 27.58ZM117.101 25.8L116.812 25.3924L116.807 25.3961L117.101 25.8ZM117.461 29.14L117.193 29.5618L117.194 29.5624L117.461 29.14ZM119.641 30.24L119.44 30.6979L119.45 30.7019L119.641 30.24ZM120.901 30.8L120.678 31.2473L120.686 31.2511L120.901 30.8ZM121.901 31.38L121.624 31.7962L121.635 31.8031L121.901 31.38ZM122.701 32.04L123.096 31.7323L123.089 31.7247L122.701 32.04ZM121.981 37.02L121.639 36.6559L121.636 36.6584L121.981 37.02ZM115.641 37.66L115.406 38.1012L115.409 38.1028L115.641 37.66ZM114.741 35.1L114.377 34.7573L114.372 34.7632L114.366 34.7692L114.741 35.1ZM115.601 34.76L116.092 34.6619L116.011 34.26H115.601V34.76ZM121.081 36.46L121.403 36.8427L121.408 36.8384L121.081 36.46ZM121.141 32.7L120.841 33.1L120.846 33.1035L121.141 32.7ZM119.761 31.92L119.558 32.3769L119.566 32.3803L119.574 32.3834L119.761 31.92ZM117.401 30.84L117.159 31.2771L117.168 31.2824L117.178 31.2872L117.401 30.84ZM116.221 30.08L115.928 30.4847L115.93 30.486L116.221 30.08ZM116.161 25.16L116.473 25.5511L116.474 25.5504L116.161 25.16ZM121.739 25.3821C122.073 25.6644 122.201 25.9521 122.201 26.26H123.201C123.201 25.6079 122.903 25.0555 122.384 24.6178L121.739 25.3821ZM122.201 26.26C122.201 26.6608 122.096 26.8358 121.999 26.9175L122.643 27.6825C123.053 27.3375 123.201 26.8192 123.201 26.26H122.201ZM122.001 26.9159C121.867 27.0278 121.699 27.0895 121.461 27.0804L121.422 28.0796C121.878 28.0971 122.297 27.9722 122.642 27.6841L122.001 26.9159ZM121.941 27.58C121.941 26.723 121.715 25.99 121.176 25.4776C120.642 24.9698 119.886 24.76 119.001 24.76V25.76C119.744 25.76 120.208 25.9369 120.487 26.2024C120.761 26.4633 120.941 26.8904 120.941 27.58H121.941ZM119.001 24.76C118.161 24.76 117.42 24.96 116.812 25.3924L117.391 26.2076C117.796 25.92 118.322 25.76 119.001 25.76V24.76ZM116.807 25.3961C116.177 25.8554 115.861 26.5093 115.861 27.3H116.861C116.861 26.8107 117.039 26.4646 117.396 26.2039L116.807 25.3961ZM115.861 27.3C115.861 28.258 116.34 29.0189 117.193 29.5618L117.73 28.7182C117.116 28.3278 116.861 27.862 116.861 27.3H115.861ZM117.194 29.5624C117.601 29.8203 117.947 30.0192 118.227 30.1519L118.655 29.2481C118.429 29.1408 118.122 28.9663 117.729 28.7176L117.194 29.5624ZM118.227 30.1519C118.488 30.2751 118.893 30.4576 119.44 30.6979L119.842 29.7822C119.296 29.5425 118.902 29.3649 118.655 29.2481L118.227 30.1519ZM119.45 30.7019C119.993 30.927 120.4 31.1085 120.678 31.2473L121.125 30.3528C120.816 30.1983 120.383 30.0063 119.833 29.7781L119.45 30.7019ZM120.686 31.2511C120.966 31.3852 121.279 31.566 121.624 31.7962L122.179 30.964C121.804 30.7142 121.45 30.5081 121.117 30.3489L120.686 31.2511ZM121.635 31.8031C121.971 32.0148 122.188 32.2009 122.313 32.3553L123.089 31.7247C122.868 31.4525 122.552 31.1985 122.168 30.9569L121.635 31.8031ZM122.307 32.3476C122.663 32.8029 122.841 33.3269 122.841 33.94H123.841C123.841 33.1131 123.594 32.3704 123.096 31.7323L122.307 32.3476ZM122.841 33.94C122.841 34.9964 122.449 35.8931 121.639 36.6559L122.324 37.3841C123.327 36.4403 123.841 35.2836 123.841 33.94H122.841ZM121.636 36.6584C120.853 37.4066 119.805 37.8 118.441 37.8V38.8C120.011 38.8 121.323 38.34 122.327 37.3816L121.636 36.6584ZM118.441 37.8C117.457 37.8 116.605 37.6011 115.874 37.2172L115.409 38.1028C116.304 38.5722 117.319 38.8 118.441 38.8V37.8ZM115.877 37.2188C115.186 36.8502 114.941 36.4279 114.941 35.96H113.941C113.941 36.9054 114.497 37.6164 115.406 38.1012L115.877 37.2188ZM114.941 35.96C114.941 35.7161 115.009 35.5528 115.116 35.4308L114.366 34.7692C114.074 35.1005 113.941 35.5106 113.941 35.96H114.941ZM115.106 35.4427C115.209 35.3324 115.356 35.26 115.601 35.26V34.26C115.127 34.26 114.7 34.4143 114.377 34.7573L115.106 35.4427ZM115.111 34.8581C115.29 35.7539 115.698 36.4781 116.36 36.9788L116.963 36.1812C116.532 35.8552 116.233 35.3661 116.092 34.6619L115.111 34.8581ZM116.36 36.9788C117.018 37.4762 117.861 37.7 118.841 37.7V36.7C118.009 36.7 117.398 36.5105 116.963 36.1812L116.36 36.9788ZM118.841 37.7C119.843 37.7 120.711 37.4251 121.403 36.8427L120.76 36.0773C120.279 36.4815 119.653 36.7 118.841 36.7V37.7ZM121.408 36.8384C122.113 36.2298 122.461 35.421 122.461 34.46H121.461C121.461 35.1523 121.223 35.6768 120.755 36.0816L121.408 36.8384ZM122.461 34.46C122.461 33.5531 122.132 32.805 121.437 32.2965L120.846 33.1035C121.245 33.395 121.461 33.8202 121.461 34.46H122.461ZM121.441 32.3C120.98 31.9542 120.483 31.6729 119.949 31.4566L119.574 32.3834C120.027 32.5671 120.449 32.8058 120.841 33.1L121.441 32.3ZM119.964 31.4631C119.484 31.2498 119.064 31.0631 118.704 30.9031L118.298 31.8169C118.658 31.9769 119.078 32.1636 119.558 32.3769L119.964 31.4631ZM118.704 30.9031C118.352 30.7463 117.992 30.5763 117.625 30.3928L117.178 31.2872C117.558 31.4771 117.931 31.6537 118.298 31.8169L118.704 30.9031ZM117.644 30.4029C117.305 30.2145 116.928 29.9723 116.513 29.674L115.93 30.486C116.368 30.8011 116.778 31.0655 117.159 31.2771L117.644 30.4029ZM116.515 29.6753C115.819 29.17 115.481 28.5075 115.481 27.64H114.481C114.481 28.8258 114.971 29.7901 115.928 30.4847L116.515 29.6753ZM115.481 27.64C115.481 26.7619 115.808 26.0806 116.473 25.5511L115.85 24.7689C114.941 25.4927 114.481 26.4648 114.481 27.64H115.481ZM116.474 25.5504C117.176 24.9887 118.052 24.6844 119.133 24.6599L119.111 23.6601C117.845 23.6889 116.747 24.0513 115.849 24.7696L116.474 25.5504ZM119.133 24.6599C120.295 24.6349 121.145 24.898 121.746 25.3876L122.377 24.6124C121.538 23.9287 120.429 23.6318 119.111 23.6601L119.133 24.6599ZM131.403 38H130.903V38.5H131.403V38ZM132.043 37.14L132.019 36.6406L132.008 36.6411L131.997 36.6422L132.043 37.14ZM132.863 37.1L132.888 37.5994L133.363 37.5762V37.1H132.863ZM132.243 29.9L131.86 30.2211L131.864 30.2263L132.243 29.9ZM129.003 29.48L128.78 29.0327L128.774 29.0357L129.003 29.48ZM127.663 30.44L127.331 30.0663L127.163 30.2155V30.44H127.663ZM127.663 37.06H127.163V37.5221L127.624 37.5584L127.663 37.06ZM129.183 37.18L129.681 37.1315L129.64 36.7145L129.223 36.6816L129.183 37.18ZM124.823 38H124.323V38.5H124.823V38ZM125.103 37.24L125.3 37.6996L125.327 37.6883L125.351 37.6741L125.103 37.24ZM125.443 37.14L125.419 36.6406L125.406 36.6412L125.394 36.6425L125.443 37.14ZM126.283 37.1L126.307 37.5994L126.783 37.5768V37.1H126.283ZM126.283 25.38H126.783V24.9258L126.331 24.8823L126.283 25.38ZM125.243 25.28L125.181 25.7761L125.188 25.777L125.195 25.7777L125.243 25.28ZM124.763 24.42L124.698 23.9242L124.263 23.9812V24.42H124.763ZM127.663 24.04H128.163V23.4702L127.598 23.5442L127.663 24.04ZM127.663 29.34H127.163V30.5719L128.022 29.6885L127.663 29.34ZM133.203 28.9L132.853 29.2571L132.857 29.2607L133.203 28.9ZM134.223 31.96L134.723 31.958V31.9552L134.223 31.96ZM134.243 37.06L133.743 37.062L133.745 37.5217L134.203 37.5584L134.243 37.06ZM135.743 37.18L136.241 37.1315L136.2 36.715L135.783 36.6816L135.743 37.18ZM135.203 37.5H131.403V38.5H135.203V37.5ZM131.903 38V37.84H130.903V38H131.903ZM131.903 37.84C131.903 37.774 131.912 37.7329 131.919 37.71C131.926 37.689 131.932 37.6829 131.932 37.6824C131.933 37.6818 131.939 37.6751 131.96 37.6661C131.982 37.6563 132.023 37.6441 132.09 37.6378L131.997 36.6422C131.704 36.6696 131.411 36.7709 131.194 37.0076C130.978 37.2446 130.903 37.5461 130.903 37.84H131.903ZM132.068 37.6394L132.888 37.5994L132.839 36.6006L132.019 36.6406L132.068 37.6394ZM133.363 37.1V32.08H132.363V37.1H133.363ZM133.363 32.08C133.363 31.0485 133.146 30.1822 132.622 29.5737L131.864 30.2263C132.167 30.5778 132.363 31.1649 132.363 32.08H133.363ZM132.627 29.5789C132.114 28.9676 131.432 28.66 130.623 28.66V29.66C131.148 29.66 131.546 29.8458 131.86 30.2211L132.627 29.5789ZM130.623 28.66C129.919 28.66 129.297 28.7742 128.78 29.0327L129.227 29.9272C129.563 29.759 130.02 29.66 130.623 29.66V28.66ZM128.774 29.0357C128.312 29.2739 127.831 29.6216 127.331 30.0663L127.995 30.8137C128.455 30.4051 128.867 30.1128 129.233 29.9243L128.774 29.0357ZM127.163 30.44V37.06H128.163V30.44H127.163ZM127.624 37.5584L129.144 37.6784L129.223 36.6816L127.703 36.5616L127.624 37.5584ZM128.686 37.2285C128.696 37.3352 128.693 37.4097 128.685 37.4585C128.677 37.5066 128.667 37.5186 128.67 37.513C128.677 37.5037 128.688 37.495 128.695 37.492C128.697 37.4911 128.678 37.5 128.623 37.5V38.5C128.948 38.5 129.283 38.3889 129.496 38.077C129.687 37.7975 129.712 37.4504 129.681 37.1315L128.686 37.2285ZM128.623 37.5H124.823V38.5H128.623V37.5ZM125.323 38V37.84H124.323V38H125.323ZM125.323 37.84C125.323 37.7227 125.341 37.6724 125.346 37.6614C125.348 37.6582 125.345 37.6654 125.334 37.6761C125.323 37.6872 125.311 37.6952 125.3 37.6996L124.906 36.7804C124.441 36.98 124.323 37.4494 124.323 37.84H125.323ZM125.351 37.6741C125.371 37.6631 125.413 37.6455 125.493 37.6375L125.394 36.6425C125.207 36.6611 125.023 36.7103 124.855 36.8059L125.351 37.6741ZM125.467 37.6394L126.307 37.5994L126.259 36.6006L125.419 36.6406L125.467 37.6394ZM126.783 37.1V25.38H125.783V37.1H126.783ZM126.331 24.8823L125.291 24.7823L125.195 25.7777L126.235 25.8777L126.331 24.8823ZM125.305 24.7839C125.295 24.7826 125.302 24.7819 125.315 24.7904C125.327 24.7987 125.327 24.8041 125.32 24.7913C125.3 24.7552 125.263 24.649 125.263 24.42H124.263C124.263 24.7243 124.307 25.0281 124.447 25.2787C124.603 25.558 124.86 25.736 125.181 25.7761L125.305 24.7839ZM124.828 24.9158L127.728 24.5358L127.598 23.5442L124.698 23.9242L124.828 24.9158ZM127.163 24.04V29.34H128.163V24.04H127.163ZM128.022 29.6885C128.861 28.8254 129.783 28.42 130.803 28.42V27.42C129.477 27.42 128.306 27.9613 127.305 28.9915L128.022 29.6885ZM130.803 28.42C131.606 28.42 132.28 28.6954 132.853 29.2571L133.553 28.5429C132.793 27.798 131.867 27.42 130.803 27.42V28.42ZM132.857 29.2607C133.386 29.769 133.711 30.6309 133.723 31.9648L134.723 31.9552C134.709 30.4891 134.353 29.311 133.55 28.5393L132.857 29.2607ZM133.723 31.962L133.743 37.062L134.743 37.058L134.723 31.958L133.723 31.962ZM134.203 37.5584L135.703 37.6784L135.783 36.6816L134.283 36.5616L134.203 37.5584ZM135.246 37.2285C135.256 37.3362 135.253 37.4121 135.245 37.4624C135.238 37.5123 135.227 37.5254 135.231 37.52C135.237 37.5105 135.249 37.4996 135.26 37.4946C135.267 37.4917 135.253 37.5 135.203 37.5V38.5C135.528 38.5 135.859 38.3843 136.066 38.07C136.249 37.7918 136.272 37.4479 136.241 37.1315L135.246 37.2285ZM141.346 28.96V29.4601L141.353 29.4599L141.346 28.96ZM139.226 36.14L138.801 36.4037L138.803 36.407L139.226 36.14ZM141.306 37.28V37.7801L141.313 37.7799L141.306 37.28ZM143.426 30.16L142.992 30.4089L142.997 30.4172L143.426 30.16ZM144.206 28.88L144.521 28.4919L144.515 28.4871L144.206 28.88ZM145.226 30.4L144.759 30.5776L144.762 30.5857L145.226 30.4ZM145.626 32.8H145.126V32.8081L145.626 32.8ZM144.466 36.8L144.857 37.1124L144.859 37.1098L144.466 36.8ZM137.026 33.32L136.526 33.3241V33.3283L137.026 33.32ZM141.346 28.46C140.262 28.46 139.405 28.9462 138.823 29.8744L139.67 30.4056C140.074 29.7605 140.617 29.4601 141.346 29.4601V28.46ZM138.823 29.8744C138.266 30.7624 138.006 31.8688 138.006 33.16H139.006C139.006 31.9978 139.24 31.091 139.67 30.4056L138.823 29.8744ZM138.006 33.16C138.006 34.4363 138.258 35.5289 138.801 36.4037L139.651 35.8763C139.234 35.2044 139.006 34.3104 139.006 33.16H138.006ZM138.803 36.407C139.376 37.3136 140.23 37.7801 141.306 37.7801V36.78C140.569 36.78 140.036 36.4864 139.649 35.873L138.803 36.407ZM141.313 37.7799C142.387 37.7642 143.241 37.2922 143.825 36.3922L142.987 35.8478C142.584 36.4678 142.039 36.7692 141.299 36.7801L141.313 37.7799ZM143.825 36.3922C144.386 35.5288 144.646 34.4459 144.646 33.18H143.646C143.646 34.3141 143.413 35.1912 142.987 35.8478L143.825 36.3922ZM144.646 33.18C144.646 31.9027 144.393 30.8005 143.855 29.9028L142.997 30.4172C143.419 31.1195 143.646 32.0306 143.646 33.18H144.646ZM143.86 29.9112C143.59 29.4412 143.241 29.0681 142.806 28.8169C142.37 28.5655 141.875 28.4523 141.339 28.4601L141.353 29.4599C141.737 29.4544 142.049 29.5345 142.306 29.6831C142.564 29.8319 142.795 30.0656 142.992 30.4089L143.86 29.9112ZM141.466 28.42C142.365 28.42 143.17 28.7007 143.897 29.2729L144.515 28.4871C143.616 27.7793 142.594 27.42 141.466 27.42V28.42ZM143.891 29.2681C144.232 29.545 144.528 29.9694 144.759 30.5776L145.693 30.2224C145.418 29.4973 145.034 28.9083 144.521 28.4919L143.891 29.2681ZM144.762 30.5857C144.999 31.1785 145.126 31.9121 145.126 32.8H146.126C146.126 31.8212 145.987 30.9548 145.69 30.2143L144.762 30.5857ZM145.126 32.8081C145.151 34.3791 144.784 35.5901 144.074 36.4902L144.859 37.1098C145.748 35.9832 146.154 34.5275 146.126 32.7919L145.126 32.8081ZM144.076 36.4877C143.377 37.3608 142.445 37.8 141.226 37.8V38.8C142.727 38.8 143.955 38.2393 144.857 37.1124L144.076 36.4877ZM141.226 37.8C139.978 37.8 139.101 37.4139 138.511 36.7011L137.741 37.3389C138.564 38.3328 139.754 38.8 141.226 38.8V37.8ZM138.511 36.7011C137.904 35.9674 137.552 34.8617 137.526 33.3117L136.526 33.3283C136.554 35.0049 136.935 36.366 137.741 37.3389L138.511 36.7011ZM137.526 33.3159C137.513 31.7866 137.885 30.6093 138.594 29.7349L137.818 29.1045C136.927 30.2034 136.512 31.6268 136.526 33.3241L137.526 33.3159ZM138.594 29.7349C139.307 28.8588 140.247 28.42 141.466 28.42V27.42C139.965 27.42 138.732 27.9806 137.818 29.1045L138.594 29.7349ZM149.482 29.4L148.992 29.4994L149.172 30.3839L149.826 29.7627L149.482 29.4ZM155.422 29.16L155.048 29.4919L155.054 29.4981L155.422 29.16ZM156.582 32.84L156.082 32.8481V32.8523L156.582 32.84ZM155.382 36.8L155.765 37.1216L155.767 37.1191L155.382 36.8ZM149.522 37.78L149.724 37.3225L149.022 37.0133V37.78H149.522ZM149.522 41.34H149.022V41.8021L149.483 41.8384L149.522 41.34ZM151.042 41.46L151.54 41.4114L151.499 40.9945L151.082 40.9616L151.042 41.46ZM146.682 42.28H146.182V42.78H146.682V42.28ZM146.962 41.52L146.787 41.0518L146.776 41.0559L146.765 41.0604L146.962 41.52ZM148.142 41.38L148.181 41.8785L148.642 41.8423V41.38H148.142ZM148.142 29.26H148.642V28.8134L148.199 28.7632L148.142 29.26ZM147.082 29.14L147.139 28.643L147.126 28.6419L147.082 29.14ZM146.622 28.36L146.557 27.8643L146.122 27.9216V28.36H146.622ZM149.202 28.02L149.692 27.9206L149.6 27.4633L149.137 27.5243L149.202 28.02ZM149.522 36.24H149.022V36.4559L149.179 36.6039L149.522 36.24ZM154.382 36.04L153.955 35.7795L153.952 35.7849L154.382 36.04ZM154.382 30.22L153.958 30.485L153.962 30.4904L154.382 30.22ZM149.522 30.34L149.205 29.9535L149.022 30.1035V30.34H149.522ZM149.826 29.7627C150.803 28.8359 151.753 28.42 152.682 28.42V27.42C151.425 27.42 150.241 27.9907 149.138 29.0373L149.826 29.7627ZM152.682 28.42C153.631 28.42 154.409 28.7709 155.048 29.4919L155.796 28.8282C154.969 27.8959 153.92 27.42 152.682 27.42V28.42ZM155.054 29.4981C155.686 30.1862 156.057 31.2726 156.082 32.8481L157.082 32.8319C157.055 31.1274 156.652 29.7605 155.791 28.8219L155.054 29.4981ZM156.082 32.8523C156.12 34.3879 155.743 35.5811 154.997 36.4809L155.767 37.1191C156.701 35.9923 157.124 34.5455 157.082 32.8277L156.082 32.8523ZM154.999 36.4784C154.271 37.3462 153.242 37.8 151.842 37.8V38.8C153.483 38.8 154.814 38.2538 155.765 37.1216L154.999 36.4784ZM151.842 37.8C151.16 37.8 150.455 37.6448 149.724 37.3225L149.321 38.2375C150.163 38.6085 151.004 38.8 151.842 38.8V37.8ZM149.022 37.78V41.34H150.022V37.78H149.022ZM149.483 41.8384L151.003 41.9584L151.082 40.9616L149.562 40.8416L149.483 41.8384ZM150.545 41.5086C150.555 41.6152 150.552 41.6897 150.544 41.7385C150.536 41.7866 150.526 41.7986 150.529 41.793C150.536 41.7837 150.547 41.775 150.554 41.772C150.556 41.7711 150.537 41.78 150.482 41.78V42.78C150.808 42.78 151.142 42.6689 151.355 42.357C151.546 42.0775 151.571 41.7304 151.54 41.4114L150.545 41.5086ZM150.482 41.78H146.682V42.78H150.482V41.78ZM147.182 42.28V42.12H146.182V42.28H147.182ZM147.182 42.12C147.182 42.0027 147.2 41.9524 147.205 41.9414C147.207 41.9382 147.204 41.9454 147.193 41.9561C147.182 41.9672 147.17 41.9752 147.159 41.9796L146.765 41.0604C146.3 41.26 146.182 41.7294 146.182 42.12H147.182ZM147.138 41.9882C147.117 41.9959 147.122 41.9918 147.181 41.9814C147.232 41.9727 147.302 41.9626 147.396 41.9515C147.583 41.9293 147.844 41.9049 148.181 41.8785L148.103 40.8815C147.761 40.9084 147.485 40.934 147.278 40.9585C147.176 40.9707 147.085 40.9831 147.011 40.9961C146.945 41.0074 146.861 41.0241 146.787 41.0518L147.138 41.9882ZM148.642 41.38V29.26H147.642V41.38H148.642ZM148.199 28.7632L147.139 28.643L147.026 29.6368L148.086 29.7568L148.199 28.7632ZM147.126 28.6419C147.117 28.6411 147.128 28.6407 147.146 28.6519C147.164 28.6633 147.17 28.6747 147.168 28.671C147.164 28.6648 147.152 28.6405 147.141 28.5865C147.13 28.5329 147.122 28.4587 147.122 28.36H146.122C146.122 28.6452 146.164 28.9377 146.307 29.179C146.467 29.4514 146.729 29.6111 147.039 29.6381L147.126 28.6419ZM146.688 28.8557L149.268 28.5157L149.137 27.5243L146.557 27.8643L146.688 28.8557ZM148.712 28.1194L148.992 29.4994L149.972 29.3006L149.692 27.9206L148.712 28.1194ZM149.179 36.6039C149.974 37.353 150.968 37.72 152.122 37.72V36.72C151.197 36.72 150.457 36.4336 149.865 35.8761L149.179 36.6039ZM152.122 37.72C153.31 37.72 154.242 37.2569 154.812 36.2951L153.952 35.7849C153.59 36.3964 153.015 36.72 152.122 36.72V37.72ZM154.809 36.3004C155.348 35.4166 155.602 34.3404 155.602 33.1H154.602C154.602 34.2062 154.375 35.09 153.955 35.7795L154.809 36.3004ZM155.602 33.1C155.602 31.861 155.349 30.7991 154.803 29.9496L153.962 30.4904C154.376 31.1343 154.602 31.9923 154.602 33.1H155.602ZM154.806 29.955C154.236 29.0424 153.337 28.6 152.202 28.6V29.6C153.041 29.6 153.595 29.9043 153.958 30.485L154.806 29.955ZM152.202 28.6C151.64 28.6 151.119 28.7145 150.653 28.9559L151.112 29.8441C151.419 29.6855 151.778 29.6 152.202 29.6V28.6ZM150.653 28.9559C150.223 29.1782 149.739 29.5152 149.205 29.9535L149.84 30.7265C150.345 30.3115 150.768 30.0218 151.112 29.8441L150.653 28.9559ZM149.022 30.34V36.24H150.022V30.34H149.022Z" fill="#262641"/>
</g>
</g>
<defs>
<linearGradient id="paint0_linear_39_7" x1="26.8398" y1="6.7402" x2="26.8398" y2="57.0592" gradientUnits="userSpaceOnUse">
<stop stop-color="#6DC7FF"/>
<stop offset="1" stop-color="#E6ABFF"/>
</linearGradient>
<clipPath id="clip0_39_7">
<rect width="165" height="64" fill="white"/>
</clipPath>
</defs>
</svg>
