<?xml version="1.0" encoding="UTF-8" standalone="no"?>
<svg
   xmlns:dc="http://purl.org/dc/elements/1.1/"
   xmlns:cc="http://creativecommons.org/ns#"
   xmlns:rdf="http://www.w3.org/1999/02/22-rdf-syntax-ns#"
   xmlns:svg="http://www.w3.org/2000/svg"
   xmlns="http://www.w3.org/2000/svg"
   viewBox="0 0 96.012 96.012"
   height="96.012001"
   width="96.012001"
   xml:space="preserve"
   id="svg2"
   version="1.1"><metadata
     id="metadata8"><rdf:RDF><cc:Work
         rdf:about=""><dc:format>image/svg+xml</dc:format><dc:type
           rdf:resource="http://purl.org/dc/dcmitype/StillImage" /><dc:title></dc:title></cc:Work></rdf:RDF></metadata><defs
     id="defs6"><clipPath
       id="clipPath30"
       clipPathUnits="userSpaceOnUse"><path
         id="path28"
         d="M 0,500.003 H 500.003 V 0 H 0 Z" /></clipPath><clipPath
       id="clipPath414"
       clipPathUnits="userSpaceOnUse"><path
         id="path412"
         d="m 211.567,490.858 h 77.161 v -33.894 h -77.161 z" /></clipPath><clipPath
       id="clipPath392"
       clipPathUnits="userSpaceOnUse"><path
         id="path390"
         d="M 0,500 H 500 V 0 H 0 Z" /></clipPath><clipPath
       id="clipPath404"
       clipPathUnits="userSpaceOnUse"><path
         id="path402"
         d="M 48.5122,427.243 H 76.271 V 399.015 H 48.5122 Z" /></clipPath><clipPath
       id="clipPath420"
       clipPathUnits="userSpaceOnUse"><path
         id="path418"
         d="M 51.5342,422.288 H 72.8228 V 402.047 H 51.5342 Z" /></clipPath><clipPath
       id="clipPath436"
       clipPathUnits="userSpaceOnUse"><path
         id="path434"
         d="M 61.9009,439.652 H 88.8652 V 407.491 H 61.9009 Z" /></clipPath><clipPath
       id="clipPath456"
       clipPathUnits="userSpaceOnUse"><path
         id="path454"
         d="m 68.074,439.682 c -11.501,0 -20.822,-9.321 -20.822,-20.822 v 0 c 0,-11.5 9.321,-20.822 20.822,-20.822 v 0 c 11.5,0 20.822,9.322 20.822,20.822 v 0 c 0,11.501 -9.321,20.823 -20.82,20.822 v 0 c 0,0 -0.002,0 -0.002,0" /></clipPath><linearGradient
       id="linearGradient468"
       spreadMethod="pad"
       gradientTransform="matrix(0,-43.162888,-43.162888,0,100.14233,394.85807)"
       gradientUnits="userSpaceOnUse"
       y2="0"
       x2="1"
       y1="0"
       x1="0"><stop
         id="stop462"
         offset="0"
         style="stop-opacity:1;stop-color:#f9ed32" /><stop
         id="stop464"
         offset="0.356781"
         style="stop-opacity:1;stop-color:#f9ed32" /><stop
         id="stop466"
         offset="1"
         style="stop-opacity:1;stop-color:#ebc53b" /></linearGradient><clipPath
       id="clipPath486"
       clipPathUnits="userSpaceOnUse"><path
         id="path484"
         d="m 51.5098,422.292 h 21.3203 v -20.27 H 51.5098 Z" /></clipPath><clipPath
       id="clipPath490"
       clipPathUnits="userSpaceOnUse"><path
         id="path488"
         d="m 59.15,410.494 c -3.725,3.518 -5.087,8.318 -4.451,11.798 -0.595,-0.249 -1.122,-0.602 -1.559,-1.067 -2.798,-2.961 -2.112,-10.155 2.973,-14.96 5.085,-4.805 12.644,-5.398 15.442,-2.438 0.759,0.803 1.172,1.853 1.275,3.052 -3.485,-1.465 -9.441,-0.388 -13.68,3.615" /></clipPath><mask
       id="mask506"
       height="1"
       width="1"
       y="0"
       x="0"
       maskUnits="userSpaceOnUse"><g
         id="g516"><g
           id="g514"
           clip-path="url(#clipPath494)"><g
             id="g512"><g
               id="g510"><path
                 id="path508"
                 style="fill:url(#linearGradient504);stroke:none"
                 d="M -32768,32767 H 32767 V -32767 H -32768 Z" /></g></g></g></g></mask><clipPath
       id="clipPath494"
       clipPathUnits="userSpaceOnUse"><path
         id="path492"
         d="M -32768,32767 H 32767 V -32767 H -32768 Z" /></clipPath><linearGradient
       id="linearGradient504"
       spreadMethod="pad"
       gradientTransform="matrix(-15.616928,-14.893799,-14.893799,15.616943,69.158691,419.02344)"
       gradientUnits="userSpaceOnUse"
       y2="0"
       x2="1"
       y1="0"
       x1="0"><stop
         id="stop496"
         offset="0"
         style="stop-opacity:0;stop-color:#ffffff" /><stop
         id="stop498"
         offset="0.485306"
         style="stop-opacity:0;stop-color:#ffffff" /><stop
         id="stop500"
         offset="0.843933"
         style="stop-opacity:0.73891814;stop-color:#ffffff" /><stop
         id="stop502"
         offset="1"
         style="stop-opacity:0.73891814;stop-color:#ffffff" /></linearGradient><linearGradient
       id="linearGradient526"
       spreadMethod="pad"
       gradientTransform="matrix(-15.616928,-14.893799,-14.893799,15.616943,101.22729,373.88932)"
       gradientUnits="userSpaceOnUse"
       y2="0"
       x2="1"
       y1="0"
       x1="0"><stop
         id="stop518"
         offset="0"
         style="stop-opacity:1;stop-color:#f17442" /><stop
         id="stop520"
         offset="0.485306"
         style="stop-opacity:1;stop-color:#f17442" /><stop
         id="stop522"
         offset="0.843933"
         style="stop-opacity:1;stop-color:#f3a74d" /><stop
         id="stop524"
         offset="1"
         style="stop-opacity:1;stop-color:#f3a74d" /></linearGradient><clipPath
       id="clipPath552"
       clipPathUnits="userSpaceOnUse"><path
         id="path550"
         d="M 61.8916,439.682 H 88.896 V 407.473 H 61.8916 Z" /></clipPath><clipPath
       id="clipPath572"
       clipPathUnits="userSpaceOnUse"><path
         id="path570"
         d="m 63.5166,445.968 h 9.1172 v -2.733 h -9.1172 z" /></clipPath><clipPath
       id="clipPath592"
       clipPathUnits="userSpaceOnUse"><path
         id="path590"
         d="m 63.5166,394.488 h 9.1172 v -2.734 h -9.1172 z" /></clipPath><clipPath
       id="clipPath612"
       clipPathUnits="userSpaceOnUse"><path
         id="path610"
         d="m 92.4468,423.418 h 2.7373 V 414.3 h -2.7373 z" /></clipPath><clipPath
       id="clipPath632"
       clipPathUnits="userSpaceOnUse"><path
         id="path630"
         d="m 40.9663,423.418 h 2.7324 V 414.3 h -2.7324 z" /></clipPath><clipPath
       id="clipPath652"
       clipPathUnits="userSpaceOnUse"><path
         id="path650"
         d="m 82.0854,440.286 h 7.4112 v -7.411 h -7.4112 z" /></clipPath><clipPath
       id="clipPath672"
       clipPathUnits="userSpaceOnUse"><path
         id="path670"
         d="m 46.6489,404.849 h 7.4156 v -7.416 h -7.4156 z" /></clipPath><clipPath
       id="clipPath692"
       clipPathUnits="userSpaceOnUse"><path
         id="path690"
         d="m 46.6489,440.286 h 7.4116 v -7.411 h -7.4116 z" /></clipPath><clipPath
       id="clipPath712"
       clipPathUnits="userSpaceOnUse"><path
         id="path710"
         d="m 82.0854,404.849 h 7.4112 v -7.416 h -7.4112 z" /></clipPath><clipPath
       id="clipPath732"
       clipPathUnits="userSpaceOnUse"><path
         id="path730"
         d="m 63.5166,445.968 h 9.1172 v -2.733 h -9.1172 z" /></clipPath><clipPath
       id="clipPath736"
       clipPathUnits="userSpaceOnUse"><path
         id="path734"
         d="m 72.634,443.235 c -1.478,0.277 -3.002,0.421 -4.561,0.421 -1.555,0 -3.08,-0.144 -4.556,-0.417 0.003,0.195 0.068,0.417 0.207,0.658 0.035,0.066 0.083,0.148 0.134,0.244 0.039,0.064 0.078,0.133 0.118,0.207 0.228,0.411 0.553,0.987 0.909,1.62 0.922,-0.581 2.014,-0.919 3.188,-0.919 1.174,0 2.265,0.338 3.193,0.919 0.116,-0.212 0.234,-0.416 0.342,-0.61 0.069,-0.122 0.134,-0.243 0.199,-0.356 0.277,-0.494 0.498,-0.887 0.619,-1.105 0.139,-0.241 0.204,-0.467 0.208,-0.662" /></clipPath><linearGradient
       id="linearGradient744"
       spreadMethod="pad"
       gradientTransform="matrix(0,-4.2695465,-4.2695465,0,100.1438,401.86686)"
       gradientUnits="userSpaceOnUse"
       y2="0"
       x2="1"
       y1="0"
       x1="0"><stop
         id="stop738"
         offset="0"
         style="stop-opacity:1;stop-color:#f9ed32" /><stop
         id="stop740"
         offset="0.356781"
         style="stop-opacity:1;stop-color:#f9ed32" /><stop
         id="stop742"
         offset="1"
         style="stop-opacity:1;stop-color:#ebc53b" /></linearGradient><clipPath
       id="clipPath770"
       clipPathUnits="userSpaceOnUse"><path
         id="path768"
         d="m 63.5166,394.488 h 9.1172 v -2.734 h -9.1172 z" /></clipPath><clipPath
       id="clipPath774"
       clipPathUnits="userSpaceOnUse"><path
         id="path772"
         d="m 72.634,394.488 c -0.004,-0.196 -0.069,-0.42 -0.208,-0.663 -0.034,-0.061 -0.074,-0.134 -0.121,-0.216 -0.022,-0.039 -0.048,-0.083 -0.069,-0.126 -0.04,-0.069 -0.082,-0.148 -0.126,-0.226 -0.021,-0.039 -0.048,-0.082 -0.07,-0.126 -0.064,-0.112 -0.128,-0.229 -0.199,-0.354 -0.073,-0.13 -0.151,-0.269 -0.233,-0.416 -0.052,-0.087 -0.1,-0.178 -0.151,-0.269 -0.036,-0.06 -0.071,-0.121 -0.101,-0.181 -0.031,-0.052 -0.06,-0.105 -0.09,-0.157 -0.928,0.577 -2.019,0.919 -3.193,0.919 -1.174,0 -2.266,-0.342 -3.188,-0.919 -0.031,0.052 -0.061,0.105 -0.091,0.157 -0.477,0.848 -0.893,1.585 -1.07,1.914 -0.139,0.243 -0.204,0.464 -0.207,0.659 1.476,-0.274 3.001,-0.416 4.556,-0.416 1.559,0 3.083,0.142 4.561,0.42" /></clipPath><linearGradient
       id="linearGradient782"
       spreadMethod="pad"
       gradientTransform="matrix(0,-4.2695465,-4.2695465,0,100.1438,350.38639)"
       gradientUnits="userSpaceOnUse"
       y2="0"
       x2="1"
       y1="0"
       x1="0"><stop
         id="stop776"
         offset="0"
         style="stop-opacity:1;stop-color:#f9ed32" /><stop
         id="stop778"
         offset="0.356781"
         style="stop-opacity:1;stop-color:#f9ed32" /><stop
         id="stop780"
         offset="1"
         style="stop-opacity:1;stop-color:#ebc53b" /></linearGradient><clipPath
       id="clipPath808"
       clipPathUnits="userSpaceOnUse"><path
         id="path806"
         d="m 92.4468,423.418 h 2.7373 V 414.3 h -2.7373 z" /></clipPath><clipPath
       id="clipPath812"
       clipPathUnits="userSpaceOnUse"><path
         id="path810"
         d="m 94.261,418.861 c 0,-1.174 0.343,-2.265 0.918,-3.193 -0.052,-0.03 -0.103,-0.059 -0.155,-0.09 -0.173,-0.095 -0.343,-0.191 -0.507,-0.282 -0.126,-0.069 -0.247,-0.138 -0.36,-0.204 -0.22,-0.125 -0.425,-0.238 -0.593,-0.333 -0.074,-0.038 -0.143,-0.078 -0.208,-0.116 -0.096,-0.053 -0.177,-0.1 -0.242,-0.135 -0.248,-0.138 -0.473,-0.203 -0.667,-0.208 0.277,1.477 0.419,3.002 0.419,4.561 0,1.56 -0.142,3.08 -0.415,4.557 0.195,-0.004 0.415,-0.069 0.663,-0.208 0.216,-0.121 0.61,-0.342 1.103,-0.62 0.114,-0.064 0.235,-0.129 0.356,-0.198 0.195,-0.108 0.398,-0.225 0.611,-0.342 -0.58,-0.924 -0.923,-2.014 -0.923,-3.189" /></clipPath><linearGradient
       id="linearGradient820"
       spreadMethod="pad"
       gradientTransform="matrix(0,-14.242477,-14.242477,0,125.88403,381.72916)"
       gradientUnits="userSpaceOnUse"
       y2="0"
       x2="1"
       y1="0"
       x1="0"><stop
         id="stop814"
         offset="0"
         style="stop-opacity:1;stop-color:#f9ed32" /><stop
         id="stop816"
         offset="0.356781"
         style="stop-opacity:1;stop-color:#f9ed32" /><stop
         id="stop818"
         offset="1"
         style="stop-opacity:1;stop-color:#ebc53b" /></linearGradient><clipPath
       id="clipPath846"
       clipPathUnits="userSpaceOnUse"><path
         id="path844"
         d="m 40.9663,423.418 h 2.7324 V 414.3 h -2.7324 z" /></clipPath><clipPath
       id="clipPath850"
       clipPathUnits="userSpaceOnUse"><path
         id="path848"
         d="m 43.699,414.3 c -0.195,0.005 -0.42,0.07 -0.662,0.208 -0.065,0.035 -0.148,0.082 -0.244,0.135 -0.059,0.034 -0.134,0.073 -0.208,0.116 -0.068,0.039 -0.142,0.078 -0.22,0.126 -0.048,0.026 -0.099,0.057 -0.152,0.082 -0.359,0.203 -0.788,0.442 -1.247,0.701 0.58,0.928 0.918,2.019 0.918,3.193 0,1.175 -0.338,2.265 -0.918,3.189 0.213,0.116 0.416,0.233 0.611,0.342 0.125,0.068 0.242,0.134 0.355,0.198 0.147,0.083 0.286,0.161 0.416,0.235 0.044,0.021 0.082,0.047 0.125,0.069 0.239,0.134 0.433,0.242 0.564,0.316 0.242,0.139 0.463,0.204 0.658,0.208 -0.273,-1.477 -0.416,-2.997 -0.416,-4.557 0,-1.559 0.143,-3.084 0.42,-4.561" /></clipPath><linearGradient
       id="linearGradient858"
       spreadMethod="pad"
       gradientTransform="matrix(0,-14.242477,-14.242477,0,74.40112,381.72916)"
       gradientUnits="userSpaceOnUse"
       y2="0"
       x2="1"
       y1="0"
       x1="0"><stop
         id="stop852"
         offset="0"
         style="stop-opacity:1;stop-color:#f9ed32" /><stop
         id="stop854"
         offset="0.356781"
         style="stop-opacity:1;stop-color:#f9ed32" /><stop
         id="stop856"
         offset="1"
         style="stop-opacity:1;stop-color:#ebc53b" /></linearGradient><clipPath
       id="clipPath884"
       clipPathUnits="userSpaceOnUse"><path
         id="path882"
         d="m 82.0854,440.286 h 7.4112 v -7.411 h -7.4112 z" /></clipPath><clipPath
       id="clipPath888"
       clipPathUnits="userSpaceOnUse"><path
         id="path886"
         d="m 89.497,435.772 c -0.282,-1.014 -0.533,-1.901 -0.641,-2.283 -0.078,-0.269 -0.186,-0.472 -0.33,-0.614 -1.727,2.524 -3.916,4.712 -6.441,6.44 0.144,0.139 0.347,0.247 0.616,0.325 0.048,0.013 0.103,0.03 0.169,0.047 0.06,0.018 0.134,0.035 0.207,0.057 0.373,0.108 0.892,0.256 1.482,0.421 0.138,0.038 0.281,0.081 0.425,0.121 v -0.005 c 0.246,-1.066 0.778,-2.074 1.606,-2.903 0.831,-0.831 1.845,-1.359 2.907,-1.606" /></clipPath><linearGradient
       id="linearGradient896"
       spreadMethod="pad"
       gradientTransform="matrix(0,-11.576111,-11.576111,0,117.85962,397.95133)"
       gradientUnits="userSpaceOnUse"
       y2="0"
       x2="1"
       y1="0"
       x1="0"><stop
         id="stop890"
         offset="0"
         style="stop-opacity:1;stop-color:#f9ed32" /><stop
         id="stop892"
         offset="0.356781"
         style="stop-opacity:1;stop-color:#f9ed32" /><stop
         id="stop894"
         offset="1"
         style="stop-opacity:1;stop-color:#ebc53b" /></linearGradient><clipPath
       id="clipPath922"
       clipPathUnits="userSpaceOnUse"><path
         id="path920"
         d="m 46.6489,404.849 h 7.4156 v -7.416 h -7.4156 z" /></clipPath><clipPath
       id="clipPath926"
       clipPathUnits="userSpaceOnUse"><path
         id="path924"
         d="m 54.064,398.403 c -0.137,-0.134 -0.341,-0.246 -0.614,-0.324 -0.1,-0.026 -0.23,-0.066 -0.39,-0.114 -0.073,-0.015 -0.152,-0.038 -0.238,-0.064 -0.177,-0.048 -0.378,-0.104 -0.594,-0.165 -0.108,-0.03 -0.222,-0.065 -0.338,-0.095 -0.229,-0.069 -0.476,-0.139 -0.727,-0.208 -0.248,1.066 -0.776,2.079 -1.607,2.911 -0.828,0.827 -1.841,1.361 -2.907,1.603 0.048,0.165 0.092,0.321 0.134,0.475 0.108,0.387 0.208,0.746 0.294,1.049 0.092,0.329 0.17,0.594 0.217,0.763 0.079,0.267 0.186,0.472 0.325,0.615 1.734,-2.525 3.92,-4.713 6.445,-6.446" /></clipPath><linearGradient
       id="linearGradient934"
       spreadMethod="pad"
       gradientTransform="matrix(0,-11.58374,-11.58374,0,82.42553,362.51676)"
       gradientUnits="userSpaceOnUse"
       y2="0"
       x2="1"
       y1="0"
       x1="0"><stop
         id="stop928"
         offset="0"
         style="stop-opacity:1;stop-color:#f9ed32" /><stop
         id="stop930"
         offset="0.356781"
         style="stop-opacity:1;stop-color:#f9ed32" /><stop
         id="stop932"
         offset="1"
         style="stop-opacity:1;stop-color:#ebc53b" /></linearGradient><clipPath
       id="clipPath960"
       clipPathUnits="userSpaceOnUse"><path
         id="path958"
         d="m 46.6489,440.286 h 7.4116 v -7.411 h -7.4116 z" /></clipPath><clipPath
       id="clipPath964"
       clipPathUnits="userSpaceOnUse"><path
         id="path962"
         d="m 54.061,439.315 c -2.526,-1.728 -4.714,-3.916 -6.442,-6.44 -0.142,0.142 -0.252,0.345 -0.328,0.614 -0.075,0.26 -0.214,0.762 -0.386,1.378 -0.044,0.151 -0.088,0.311 -0.139,0.48 -0.035,0.139 -0.078,0.281 -0.117,0.425 1.066,0.247 2.079,0.775 2.907,1.606 0.831,0.829 1.359,1.841 1.607,2.908 0.142,-0.04 0.285,-0.083 0.424,-0.121 0.831,-0.235 1.533,-0.434 1.859,-0.525 0.267,-0.078 0.471,-0.186 0.615,-0.325" /></clipPath><linearGradient
       id="linearGradient972"
       spreadMethod="pad"
       gradientTransform="matrix(0,-11.576111,-11.576111,0,82.42358,397.95133)"
       gradientUnits="userSpaceOnUse"
       y2="0"
       x2="1"
       y1="0"
       x1="0"><stop
         id="stop966"
         offset="0"
         style="stop-opacity:1;stop-color:#f9ed32" /><stop
         id="stop968"
         offset="0.356781"
         style="stop-opacity:1;stop-color:#f9ed32" /><stop
         id="stop970"
         offset="1"
         style="stop-opacity:1;stop-color:#ebc53b" /></linearGradient><clipPath
       id="clipPath998"
       clipPathUnits="userSpaceOnUse"><path
         id="path996"
         d="m 82.0854,404.849 h 7.4112 v -7.416 h -7.4112 z" /></clipPath><clipPath
       id="clipPath1002"
       clipPathUnits="userSpaceOnUse"><path
         id="path1000"
         d="m 89.497,401.947 c -1.067,-0.242 -2.076,-0.776 -2.907,-1.603 -0.828,-0.832 -1.36,-1.842 -1.606,-2.906 v -0.005 c -0.144,0.039 -0.287,0.083 -0.425,0.121 -0.542,0.152 -1.023,0.291 -1.386,0.39 -0.074,0.021 -0.144,0.044 -0.203,0.056 -0.109,0.031 -0.197,0.057 -0.269,0.079 -0.269,0.078 -0.472,0.186 -0.616,0.33 2.525,1.727 4.714,3.915 6.441,6.44 0.144,-0.143 0.252,-0.347 0.33,-0.615 0.108,-0.386 0.359,-1.275 0.641,-2.287" /></clipPath><linearGradient
       id="linearGradient1010"
       spreadMethod="pad"
       gradientTransform="matrix(0,-11.58374,-11.58374,0,117.85962,362.51676)"
       gradientUnits="userSpaceOnUse"
       y2="0"
       x2="1"
       y1="0"
       x1="0"><stop
         id="stop1004"
         offset="0"
         style="stop-opacity:1;stop-color:#f9ed32" /><stop
         id="stop1006"
         offset="0.356781"
         style="stop-opacity:1;stop-color:#f9ed32" /><stop
         id="stop1008"
         offset="1"
         style="stop-opacity:1;stop-color:#ebc53b" /></linearGradient></defs><g
     transform="matrix(1.3333333,0,0,-1.3333333,-415.88223,580.22906)"
     id="g10"><g
       id="g5402"
       transform="translate(279.84308,-19.694095)"><g
         id="g4685"><g
           id="g386"><g
             clip-path="url(#clipPath392)"
             id="g388"><g
               transform="translate(88.8652,418.8599)"
               id="g394"><path
                 id="path396"
                 style="fill:#ffffff;fill-opacity:1;fill-rule:nonzero;stroke:none"
                 d="m 0,0 c 0,-11.482 -9.308,-20.791 -20.791,-20.791 -11.483,0 -20.792,9.309 -20.792,20.791 0,11.483 9.309,20.792 20.792,20.792 C -9.308,20.792 0,11.483 0,0" /></g><g
               id="g398"><g
                 id="g400" /><g
                 id="g412"><g
                   style="opacity:0.30000299"
                   id="g410"
                   clip-path="url(#clipPath404)"><g
                     id="g408"
                     transform="translate(66.3535,399.0151)"><path
                       id="path406"
                       style="fill:#ffffff;fill-opacity:1;fill-rule:nonzero;stroke:none"
                       d="m 0,0 c -4.348,0 -8.948,1.893 -12.304,5.064 -5.877,5.552 -7.35,14.716 -3.092,19.225 0.722,0.764 1.594,1.362 2.591,1.78 l 5.156,2.159 -1.003,-5.5 c -0.425,-2.335 0.501,-6.158 3.544,-9.033 2.658,-2.51 5.945,-3.406 8.134,-3.406 0.882,0 1.666,0.135 2.267,0.388 L 9.917,12.622 9.491,7.623 C 9.327,5.712 8.604,4.027 7.401,2.752 5.725,0.977 3.097,0 0,0" /></g></g></g></g><g
               id="g414"><g
                 id="g416" /><g
                 id="g428"><g
                   style="opacity:0.30000299"
                   id="g426"
                   clip-path="url(#clipPath420)"><g
                     id="g424"
                     transform="translate(59.1636,410.5063)"><path
                       id="path422"
                       style="fill:#ffffff;fill-opacity:1;fill-rule:nonzero;stroke:none"
                       d="M 0,0 C -3.719,3.514 -5.079,8.306 -4.445,11.781 -5.039,11.532 -5.564,11.179 -6.002,10.716 -8.794,7.759 -8.11,0.574 -3.032,-4.224 2.045,-9.02 9.594,-9.613 12.387,-6.657 c 0.758,0.803 1.171,1.85 1.272,3.048 C 10.178,-5.073 4.232,-3.998 0,0" /></g></g></g></g><g
               id="g430"><g
                 id="g432" /><g
                 id="g444"><g
                   style="opacity:0.10000598"
                   id="g442"
                   clip-path="url(#clipPath436)"><g
                     id="g440"
                     transform="translate(63.6245,438.7896)"><path
                       id="path438"
                       style="fill:#ffffff;fill-opacity:1;fill-rule:nonzero;stroke:none"
                       d="m 0,0 c 12.854,0 23.274,-10.42 23.274,-23.273 0,-2.822 -0.502,-5.524 -1.42,-8.026 2.138,3.268 3.387,7.172 3.387,11.369 C 25.241,-8.446 15.933,0.862 4.45,0.862 2.3,0.862 0.226,0.536 -1.724,-0.07 -1.153,-0.027 -0.581,0 0,0" /></g></g></g></g><g
               transform="translate(75.4976,393.3599)"
               id="g446"><path
                 id="path448"
                 style="fill:#ffffff;fill-opacity:1;fill-rule:nonzero;stroke:none"
                 d="M 0,0 C 0.042,0.012 0.083,0.022 0.125,0.035 L -0.181,-0.521 C -0.108,-0.349 -0.051,-0.175 0,0 m -14.913,0.018 c 0.024,-0.007 0.049,-0.014 0.073,-0.021 0.027,-0.089 0.054,-0.179 0.085,-0.268 z m 40.268,28.971 -0.219,0.122 c -0.337,0.191 -1.559,0.876 -2.834,1.589 l -1.713,0.959 0.052,0.058 c 0,0 -2.56,1.775 -3.373,4.346 -0.701,2.22 -0.451,4.793 -0.37,5.458 0.007,0.023 0.014,0.046 0.019,0.071 l 1.29,4.574 c 0.26,0.897 0.8,2.761 -0.704,4.264 -0.657,0.657 -1.548,1.018 -2.508,1.018 -0.652,0 -1.195,-0.156 -1.72,-0.307 0,0 -3.571,-1.007 -4.589,-1.295 C 8.539,49.807 8.399,49.768 8.244,49.724 8.042,49.668 7.854,49.615 7.67,49.563 6.583,49.409 5.08,49.354 3.699,49.854 c -2.497,0.905 -4.608,3.073 -4.67,3.137 l -0.064,0.113 c -0.061,0.114 -0.13,0.235 -0.199,0.356 l -0.352,0.629 c -0.895,1.599 -1.981,3.531 -2.223,3.96 l -0.117,0.212 c -0.411,0.746 -1.373,2.495 -3.498,2.495 -2.122,0 -3.057,-1.693 -3.505,-2.506 l -0.107,-0.192 c -0.248,-0.439 -1.327,-2.371 -2.221,-3.965 l -0.681,-1.214 c -0.477,-0.467 -2.369,-2.232 -4.559,-3.025 -1.423,-0.516 -2.981,-0.442 -4.075,-0.277 l -0.613,0.173 c -0.09,0.024 -0.182,0.05 -0.273,0.078 l -1.097,0.309 c -1.468,0.412 -2.925,0.821 -3.338,0.939 l -0.235,0.068 c -0.524,0.149 -1.067,0.304 -1.716,0.304 -0.96,0 -1.85,-0.361 -2.51,-1.019 -1.494,-1.495 -0.966,-3.337 -0.713,-4.222 L -33,45.974 c 0.087,-0.319 0.375,-1.34 0.702,-2.501 l 0.564,-2.003 c 0.087,-0.733 0.31,-3.237 -0.375,-5.407 -0.812,-2.571 -3.373,-4.346 -3.373,-4.346 l 0.051,-0.056 -4.776,-2.675 c -0.74,-0.411 -2.472,-1.374 -2.472,-3.485 0,-2.124 1.747,-3.087 2.494,-3.498 l 0.206,-0.113 c 0.438,-0.247 2.369,-1.332 3.954,-2.22 l 0.573,-0.322 c 0.286,-0.206 2.582,-1.916 3.343,-4.326 0.751,-2.375 0.412,-5.155 0.356,-5.566 -0.006,-0.018 -0.01,-0.033 -0.012,-0.042 C -32.266,7.647 -32.866,5.512 -33,5.033 l -0.064,-0.231 c -0.256,-0.887 -0.786,-2.733 0.694,-4.21 0.66,-0.671 1.558,-1.041 2.529,-1.041 0.659,0 1.208,0.16 1.739,0.315 l 0.21,0.061 4.364,1.223 c 0.257,0.072 0.508,0.143 0.744,0.212 0.037,0.01 0.24,0.068 0.455,0.128 1.075,0.139 2.511,0.17 3.832,-0.309 2.129,-0.772 3.974,-2.459 4.514,-2.982 0.105,-0.189 0.219,-0.392 0.344,-0.615 l 2.706,-4.829 c 0.451,-0.814 1.386,-2.508 3.509,-2.508 2.125,0 3.054,1.687 3.502,2.498 l 0.105,0.191 c 0.256,0.452 1.409,2.503 2.32,4.133 l 0.024,0.041 0.03,0.059 0.521,0.923 c 0.33,0.331 2.309,2.251 4.621,3.089 1.282,0.465 2.673,0.45 3.735,0.322 0.382,-0.107 0.809,-0.228 0.809,-0.228 0,0 0.312,-0.087 0.445,-0.123 L 11.006,0.5 c 0.967,-0.272 1.77,-0.499 2.022,-0.568 l 0.22,-0.064 c 0.532,-0.156 1.083,-0.317 1.744,-0.317 0.971,0 1.87,0.371 2.507,1.019 1.509,1.504 0.968,3.371 0.707,4.268 L 18.15,5.037 c -0.135,0.483 -0.734,2.613 -1.23,4.361 0,0 -0.464,3.052 0.348,5.624 0.811,2.567 3.36,4.338 3.372,4.346 l 0.345,0.193 0.201,0.115 c 1.597,0.892 3.512,1.968 3.94,2.21 L 25.333,22 c 0.81,0.447 2.497,1.376 2.497,3.501 0,2.111 -1.671,3.041 -2.475,3.488" /></g></g></g><g
           id="g450"><g
             clip-path="url(#clipPath456)"
             id="g452"><g
               id="g458"><g
                 id="g460"><path
                   id="path470"
                   style="fill:url(#linearGradient468);stroke:none"
                   d="m 68.074,439.682 c -11.501,0 -20.822,-9.321 -20.822,-20.822 v 0 c 0,-11.5 9.321,-20.822 20.822,-20.822 v 0 c 11.5,0 20.822,9.322 20.822,20.822 v 0 c 0,11.501 -9.321,20.823 -20.82,20.822 v 0 c 0,0 -0.002,0 -0.002,0" /></g></g></g></g></g><g
         id="g480"><g
           id="g482" /><g
           id="g544"><g
             clip-path="url(#clipPath486)"
             id="g542"
             style="opacity:0.30000299"><g
               id="g540"><g
                 clip-path="url(#clipPath490)"
                 id="g538"><g
                   id="g536"><g
                     id="g528" /><g
                     mask="url(#mask506)"
                     id="g534"><g
                       id="g532"><path
                         d="m 59.15,410.494 c -3.725,3.518 -5.087,8.318 -4.451,11.798 -0.595,-0.249 -1.122,-0.602 -1.559,-1.067 -2.798,-2.961 -2.112,-10.155 2.973,-14.96 5.085,-4.805 12.644,-5.398 15.442,-2.438 0.759,0.803 1.172,1.853 1.275,3.052 -3.485,-1.465 -9.441,-0.388 -13.68,3.615"
                         style="fill:url(#linearGradient526);stroke:none"
                         id="path530" /></g></g></g></g></g></g></g></g><g
         id="g546"><g
           id="g548" /><g
           id="g560"><g
             clip-path="url(#clipPath552)"
             id="g558"
             style="opacity:0.10000598"><g
               transform="translate(63.6182,438.8198)"
               id="g556"><path
                 d="m 0,0 c 12.873,0 23.309,-10.437 23.309,-23.31 0,-2.824 -0.503,-5.531 -1.423,-8.037 2.142,3.273 3.392,7.183 3.392,11.387 0,11.501 -9.323,20.823 -20.822,20.822 C 2.303,0.862 0.227,0.536 -1.727,-0.07 -1.156,-0.028 -0.582,0 0,0"
                 style="fill:#d68949;fill-opacity:1;fill-rule:nonzero;stroke:none"
                 id="path554" /></g></g></g></g><g
         id="g562"
         transform="translate(72.6338,443.2349)"><path
           d="m 0,0 c -1.478,0.277 -3.002,0.421 -4.561,0.421 -1.555,0 -3.08,-0.144 -4.556,-0.417 0.003,0.195 0.069,0.417 0.207,0.658 0.035,0.067 0.083,0.149 0.135,0.244 0.038,0.064 0.077,0.133 0.117,0.207 0.228,0.411 0.554,0.988 0.909,1.62 0.892,1.595 1.971,3.522 2.218,3.959 0.385,0.689 0.598,1.157 0.97,1.157 0.377,0 0.585,-0.468 0.971,-1.157 0.246,-0.437 1.329,-2.364 2.222,-3.959 0.117,-0.212 0.234,-0.416 0.342,-0.61 C -0.957,2.001 -0.888,1.88 -0.827,1.768 -0.55,1.273 -0.329,0.88 -0.208,0.662 -0.069,0.421 -0.004,0.195 0,0"
           style="fill:#ffffff;fill-opacity:1;fill-rule:nonzero;stroke:none"
           id="path564" /></g><g
         id="g566"><g
           id="g568" /><g
           id="g580"><g
             clip-path="url(#clipPath572)"
             id="g578"
             style="opacity:0.5"><g
               transform="translate(72.6338,443.2349)"
               id="g576"><path
                 d="m 0,0 c -1.478,0.277 -3.002,0.421 -4.561,0.421 -1.555,0 -3.08,-0.144 -4.556,-0.417 0.003,0.195 0.069,0.417 0.207,0.658 0.035,0.067 0.083,0.149 0.135,0.244 0.038,0.064 0.077,0.133 0.117,0.207 0.228,0.411 0.554,0.988 0.909,1.62 0.922,-0.581 2.015,-0.919 3.188,-0.919 1.174,0 2.266,0.338 3.193,0.919 0.117,-0.212 0.234,-0.416 0.342,-0.61 C -0.957,2.001 -0.892,1.88 -0.827,1.768 -0.55,1.273 -0.329,0.88 -0.208,0.662 -0.069,0.421 -0.004,0.195 0,0"
                 style="fill:#ffffff;fill-opacity:1;fill-rule:nonzero;stroke:none"
                 id="path574" /></g></g></g></g><g
         id="g582"
         transform="translate(72.6338,394.4878)"><path
           d="m 0,0 c -0.004,-0.195 -0.069,-0.42 -0.208,-0.663 -0.034,-0.061 -0.074,-0.134 -0.121,-0.216 -0.022,-0.039 -0.044,-0.083 -0.068,-0.126 -0.041,-0.069 -0.083,-0.147 -0.127,-0.225 -0.021,-0.04 -0.048,-0.083 -0.07,-0.126 -0.064,-0.113 -0.128,-0.23 -0.198,-0.355 -0.074,-0.13 -0.152,-0.268 -0.234,-0.416 -0.052,-0.087 -0.099,-0.178 -0.151,-0.269 -0.036,-0.06 -0.071,-0.121 -0.101,-0.181 -0.91,-1.624 -2.057,-3.669 -2.312,-4.12 -0.386,-0.688 -0.594,-1.152 -0.971,-1.152 -0.372,0 -0.585,0.464 -0.97,1.152 -0.251,0.451 -1.399,2.496 -2.308,4.12 -0.477,0.848 -0.893,1.585 -1.071,1.914 -0.138,0.243 -0.204,0.464 -0.207,0.659 1.476,-0.273 3.001,-0.416 4.556,-0.416 1.559,0 3.083,0.143 4.561,0.42"
           style="fill:#ffffff;fill-opacity:1;fill-rule:nonzero;stroke:none"
           id="path584" /></g><g
         id="g586"><g
           id="g588" /><g
           id="g600"><g
             clip-path="url(#clipPath592)"
             id="g598"
             style="opacity:0.5"><g
               transform="translate(72.6338,394.4878)"
               id="g596"><path
                 d="m 0,0 c -0.004,-0.195 -0.069,-0.42 -0.208,-0.663 -0.034,-0.061 -0.074,-0.134 -0.121,-0.216 -0.022,-0.039 -0.047,-0.083 -0.068,-0.126 -0.041,-0.069 -0.083,-0.147 -0.127,-0.225 -0.021,-0.04 -0.048,-0.083 -0.07,-0.126 -0.064,-0.113 -0.128,-0.23 -0.198,-0.355 -0.074,-0.13 -0.152,-0.268 -0.234,-0.416 -0.052,-0.087 -0.099,-0.178 -0.151,-0.269 -0.036,-0.06 -0.071,-0.121 -0.101,-0.181 -0.031,-0.052 -0.059,-0.105 -0.09,-0.156 -0.927,0.576 -2.019,0.919 -3.193,0.919 -1.173,0 -2.266,-0.343 -3.188,-0.919 -0.031,0.051 -0.061,0.104 -0.09,0.156 -0.477,0.848 -0.893,1.585 -1.071,1.914 -0.138,0.243 -0.204,0.464 -0.207,0.659 1.476,-0.273 3.001,-0.416 4.556,-0.416 1.559,0 3.083,0.143 4.561,0.42"
                 style="fill:#ffffff;fill-opacity:1;fill-rule:nonzero;stroke:none"
                 id="path594" /></g></g></g></g><g
         id="g602"
         transform="translate(100.2954,418.8608)"><path
           d="m 0,0 c 0,-0.376 -0.463,-0.585 -1.152,-0.97 -0.438,-0.247 -2.366,-1.33 -3.964,-2.222 -0.052,-0.031 -0.104,-0.06 -0.155,-0.091 -0.174,-0.095 -0.343,-0.191 -0.507,-0.281 -0.127,-0.07 -0.247,-0.139 -0.36,-0.205 -0.221,-0.125 -0.425,-0.238 -0.593,-0.333 -0.074,-0.038 -0.144,-0.078 -0.208,-0.116 -0.096,-0.053 -0.178,-0.099 -0.243,-0.135 -0.247,-0.138 -0.472,-0.203 -0.667,-0.208 0.277,1.477 0.42,3.002 0.42,4.561 0,1.561 -0.143,3.08 -0.416,4.558 C -7.649,4.553 -7.429,4.488 -7.182,4.35 -6.965,4.229 -6.571,4.007 -6.078,3.729 -5.965,3.665 -5.843,3.601 -5.723,3.531 -5.527,3.423 -5.324,3.306 -5.111,3.189 -3.518,2.296 -1.59,1.218 -1.152,0.971 -0.463,0.581 0,0.373 0,0"
           style="fill:#ffffff;fill-opacity:1;fill-rule:nonzero;stroke:none"
           id="path604" /></g><g
         id="g606"><g
           id="g608" /><g
           id="g620"><g
             clip-path="url(#clipPath612)"
             id="g618"
             style="opacity:0.5"><g
               transform="translate(94.2612,418.8608)"
               id="g616"><path
                 d="M 0,0 C 0,-1.174 0.342,-2.265 0.918,-3.192 0.866,-3.223 0.814,-3.252 0.763,-3.283 0.589,-3.378 0.42,-3.474 0.256,-3.564 0.129,-3.634 0.009,-3.703 -0.104,-3.769 -0.325,-3.894 -0.529,-4.007 -0.697,-4.102 -0.771,-4.14 -0.84,-4.18 -0.905,-4.218 -1.001,-4.271 -1.083,-4.317 -1.147,-4.353 -1.395,-4.491 -1.62,-4.556 -1.814,-4.561 c 0.276,1.477 0.419,3.002 0.419,4.561 0,1.561 -0.143,3.08 -0.416,4.558 0.196,-0.005 0.416,-0.07 0.664,-0.208 0.216,-0.121 0.61,-0.343 1.103,-0.621 C 0.069,3.665 0.191,3.601 0.312,3.531 0.507,3.423 0.71,3.306 0.923,3.189 0.342,2.266 0,1.175 0,0"
                 style="fill:#ffffff;fill-opacity:1;fill-rule:nonzero;stroke:none"
                 id="path614" /></g></g></g></g><g
         id="g622"
         transform="translate(43.6987,414.3003)"><path
           d="m 0,0 c -0.194,0.005 -0.419,0.069 -0.662,0.208 -0.065,0.035 -0.148,0.082 -0.243,0.135 -0.06,0.034 -0.135,0.073 -0.208,0.116 -0.069,0.039 -0.142,0.078 -0.22,0.126 -0.049,0.025 -0.1,0.057 -0.153,0.082 -0.359,0.203 -0.787,0.441 -1.246,0.701 -1.595,0.893 -3.521,1.976 -3.96,2.223 -0.688,0.385 -1.157,0.593 -1.157,0.97 0,0.373 0.469,0.58 1.157,0.97 0.439,0.247 2.365,1.325 3.96,2.219 0.212,0.115 0.415,0.232 0.61,0.342 C -2,8.16 -1.88,8.23 -1.767,8.29 c 0.147,0.083 0.287,0.161 0.416,0.234 0.044,0.022 0.082,0.047 0.125,0.07 0.239,0.134 0.434,0.242 0.564,0.316 0.243,0.139 0.464,0.203 0.658,0.208 C -0.277,7.641 -0.419,6.121 -0.419,4.561 -0.419,3.002 -0.277,1.477 0,0"
           style="fill:#ffffff;fill-opacity:1;fill-rule:nonzero;stroke:none"
           id="path624" /></g><g
         id="g626"><g
           id="g628" /><g
           id="g640"><g
             clip-path="url(#clipPath632)"
             id="g638"
             style="opacity:0.5"><g
               transform="translate(43.6987,414.3003)"
               id="g636"><path
                 d="m 0,0 c -0.194,0.005 -0.419,0.069 -0.662,0.208 -0.065,0.035 -0.148,0.082 -0.243,0.135 -0.06,0.034 -0.135,0.073 -0.208,0.116 -0.069,0.039 -0.142,0.078 -0.22,0.126 -0.049,0.025 -0.1,0.057 -0.153,0.082 -0.359,0.203 -0.787,0.441 -1.246,0.701 0.579,0.928 0.918,2.019 0.918,3.193 0,1.174 -0.339,2.265 -0.918,3.189 0.212,0.115 0.415,0.232 0.61,0.342 0.125,0.068 0.242,0.134 0.355,0.198 0.147,0.083 0.287,0.161 0.416,0.234 0.044,0.022 0.082,0.047 0.125,0.07 0.239,0.134 0.434,0.242 0.564,0.316 0.243,0.139 0.464,0.203 0.658,0.208 C -0.277,7.641 -0.419,6.121 -0.419,4.561 -0.419,3.002 -0.277,1.477 0,0"
                 style="fill:#ffffff;fill-opacity:1;fill-rule:nonzero;stroke:none"
                 id="path634" /></g></g></g></g><g
         id="g642"
         transform="translate(90.7271,440.1421)"><path
           d="m 0,0 c -0.135,-0.485 -0.737,-2.616 -1.23,-4.37 -0.282,-1.014 -0.533,-1.901 -0.641,-2.283 -0.078,-0.269 -0.186,-0.472 -0.33,-0.615 -1.727,2.525 -3.916,4.713 -6.441,6.441 0.143,0.139 0.347,0.247 0.616,0.325 0.047,0.013 0.103,0.03 0.169,0.047 0.06,0.017 0.134,0.035 0.207,0.057 0.373,0.108 0.892,0.255 1.482,0.42 0.138,0.039 0.276,0.078 0.425,0.117 1.758,0.498 3.889,1.096 4.374,1.234 0.759,0.213 1.234,0.395 1.498,0.13 C 0.394,1.238 0.216,0.763 0,0"
           style="fill:#ffffff;fill-opacity:1;fill-rule:nonzero;stroke:none"
           id="path644" /></g><g
         id="g646"><g
           id="g648" /><g
           id="g660"><g
             clip-path="url(#clipPath652)"
             id="g658"
             style="opacity:0.5"><g
               transform="translate(89.4966,435.772)"
               id="g656"><path
                 d="m 0,0 c -0.282,-1.014 -0.533,-1.901 -0.641,-2.283 -0.077,-0.269 -0.186,-0.472 -0.329,-0.614 -1.728,2.524 -3.916,4.712 -6.441,6.44 0.143,0.139 0.346,0.247 0.615,0.325 0.048,0.013 0.104,0.03 0.169,0.047 0.06,0.018 0.135,0.035 0.208,0.057 0.373,0.108 0.892,0.256 1.481,0.421 0.139,0.038 0.282,0.081 0.425,0.121 V 4.509 C -4.267,3.443 -3.735,2.435 -2.907,1.606 -2.075,0.775 -1.062,0.247 0,0"
                 style="fill:#ffffff;fill-opacity:1;fill-rule:nonzero;stroke:none"
                 id="path654" /></g></g></g></g><g
         id="g662"
         transform="translate(54.0645,398.4028)"><path
           d="M 0,0 C -0.138,-0.134 -0.342,-0.246 -0.615,-0.324 -0.715,-0.35 -0.845,-0.39 -1.005,-0.438 -1.078,-0.453 -1.156,-0.476 -1.243,-0.502 -1.42,-0.55 -1.62,-0.605 -1.836,-0.667 -1.945,-0.697 -2.058,-0.731 -2.175,-0.762 -2.404,-0.831 -2.651,-0.9 -2.902,-0.97 c -1.763,-0.493 -3.889,-1.092 -4.37,-1.225 -0.763,-0.217 -1.24,-0.4 -1.503,-0.13 -0.265,0.263 -0.082,0.74 0.129,1.498 0.134,0.485 0.732,2.613 1.23,4.371 0.048,0.165 0.092,0.321 0.134,0.476 0.109,0.386 0.208,0.746 0.295,1.048 0.091,0.329 0.169,0.594 0.217,0.763 0.079,0.268 0.186,0.472 0.325,0.615 C -4.712,3.921 -2.525,1.733 0,0"
           style="fill:#ffffff;fill-opacity:1;fill-rule:nonzero;stroke:none"
           id="path664" /></g><g
         id="g666"><g
           id="g668" /><g
           id="g680"><g
             clip-path="url(#clipPath672)"
             id="g678"
             style="opacity:0.5"><g
               transform="translate(54.0645,398.4028)"
               id="g676"><path
                 d="M 0,0 C -0.138,-0.134 -0.342,-0.246 -0.615,-0.324 -0.715,-0.35 -0.845,-0.39 -1.005,-0.438 -1.078,-0.453 -1.156,-0.476 -1.243,-0.502 -1.42,-0.55 -1.62,-0.605 -1.836,-0.667 -1.945,-0.697 -2.058,-0.731 -2.175,-0.762 -2.404,-0.831 -2.651,-0.9 -2.902,-0.97 c -0.247,1.066 -0.775,2.079 -1.607,2.911 -0.827,0.828 -1.84,1.361 -2.907,1.603 0.048,0.165 0.092,0.321 0.134,0.476 0.109,0.386 0.208,0.746 0.295,1.048 0.091,0.329 0.169,0.594 0.217,0.763 0.079,0.268 0.186,0.472 0.325,0.615 C -4.712,3.921 -2.525,1.733 0,0"
                 style="fill:#ffffff;fill-opacity:1;fill-rule:nonzero;stroke:none"
                 id="path674" /></g></g></g></g><g
         id="g682"
         transform="translate(54.0605,439.3149)"><path
           d="m 0,0 c -2.525,-1.728 -4.714,-3.916 -6.441,-6.44 -0.143,0.142 -0.252,0.345 -0.329,0.614 -0.075,0.26 -0.213,0.763 -0.386,1.378 -0.043,0.151 -0.087,0.311 -0.139,0.48 -0.035,0.139 -0.078,0.281 -0.117,0.425 -0.493,1.754 -1.096,3.885 -1.23,4.37 -0.212,0.763 -0.394,1.238 -0.129,1.503 0.263,0.265 0.74,0.083 1.503,-0.13 0.481,-0.137 2.612,-0.736 4.37,-1.229 C -2.755,0.927 -2.613,0.888 -2.474,0.85 -1.642,0.615 -0.94,0.416 -0.615,0.325 -0.348,0.247 -0.144,0.139 0,0"
           style="fill:#ffffff;fill-opacity:1;fill-rule:nonzero;stroke:none"
           id="path684" /></g><g
         id="g686"><g
           id="g688" /><g
           id="g700"><g
             clip-path="url(#clipPath692)"
             id="g698"
             style="opacity:0.5"><g
               transform="translate(54.0605,439.3149)"
               id="g696"><path
                 d="m 0,0 c -2.525,-1.728 -4.714,-3.916 -6.441,-6.44 -0.143,0.142 -0.252,0.345 -0.329,0.614 -0.075,0.26 -0.213,0.763 -0.386,1.378 -0.043,0.151 -0.087,0.311 -0.139,0.48 -0.035,0.139 -0.078,0.281 -0.117,0.425 1.067,0.247 2.079,0.775 2.907,1.606 0.832,0.829 1.359,1.841 1.607,2.908 C -2.755,0.931 -2.613,0.888 -2.474,0.85 -1.642,0.615 -0.94,0.416 -0.615,0.325 -0.348,0.247 -0.144,0.139 0,0"
                 style="fill:#ffffff;fill-opacity:1;fill-rule:nonzero;stroke:none"
                 id="path694" /></g></g></g></g><g
         id="g702"
         transform="translate(90.8564,396.0776)"><path
           d="m 0,0 c -0.265,-0.27 -0.74,-0.087 -1.499,0.13 -0.484,0.134 -2.615,0.735 -4.374,1.23 -0.148,0.038 -0.286,0.078 -0.425,0.117 -0.541,0.151 -1.022,0.291 -1.385,0.389 -0.075,0.022 -0.144,0.044 -0.203,0.057 -0.11,0.03 -0.197,0.056 -0.27,0.078 -0.269,0.078 -0.472,0.187 -0.615,0.33 2.525,1.728 4.713,3.915 6.441,6.44 C -2.187,8.628 -2.078,8.425 -2,8.156 -1.893,7.771 -1.642,6.882 -1.36,5.869 -0.861,4.111 -0.265,1.983 -0.129,1.503 0.087,0.74 0.264,0.264 0,0"
           style="fill:#ffffff;fill-opacity:1;fill-rule:nonzero;stroke:none"
           id="path704" /></g><g
         id="g706"><g
           id="g708" /><g
           id="g720"><g
             clip-path="url(#clipPath712)"
             id="g718"
             style="opacity:0.5"><g
               transform="translate(89.4966,401.9468)"
               id="g716"><path
                 d="m 0,0 c -1.066,-0.242 -2.075,-0.775 -2.907,-1.603 -0.828,-0.832 -1.36,-1.841 -1.606,-2.906 v -0.005 c -0.143,0.039 -0.286,0.083 -0.425,0.121 -0.541,0.152 -1.022,0.291 -1.385,0.39 -0.075,0.022 -0.144,0.044 -0.203,0.057 -0.11,0.03 -0.197,0.056 -0.27,0.078 -0.269,0.078 -0.472,0.186 -0.615,0.33 2.525,1.727 4.713,3.915 6.441,6.44 C -0.827,2.759 -0.718,2.556 -0.641,2.287 -0.533,1.901 -0.282,1.013 0,0"
                 style="fill:#ffffff;fill-opacity:1;fill-rule:nonzero;stroke:none"
                 id="path714" /></g></g></g></g><g
         id="g722"
         transform="translate(72.6338,443.2349)"><path
           d="m 0,0 c -1.478,0.277 -3.002,0.421 -4.561,0.421 -1.555,0 -3.08,-0.144 -4.556,-0.417 0.003,0.195 0.069,0.417 0.207,0.658 0.035,0.067 0.083,0.149 0.135,0.244 0.038,0.064 0.077,0.133 0.117,0.207 0.228,0.411 0.554,0.988 0.909,1.62 0.892,1.595 1.971,3.522 2.218,3.959 0.385,0.689 0.598,1.157 0.97,1.157 0.377,0 0.585,-0.468 0.971,-1.157 0.246,-0.437 1.329,-2.364 2.222,-3.959 0.117,-0.212 0.234,-0.416 0.342,-0.61 C -0.957,2.001 -0.888,1.88 -0.827,1.768 -0.55,1.273 -0.329,0.88 -0.208,0.662 -0.069,0.421 -0.004,0.195 0,0"
           style="fill:#f9ed32;fill-opacity:1;fill-rule:nonzero;stroke:none"
           id="path724" /></g><g
         id="g726"><g
           id="g728" /><g
           id="g758"><g
             clip-path="url(#clipPath732)"
             id="g756"
             style="opacity:0.5"><g
               id="g754"><g
                 clip-path="url(#clipPath736)"
                 id="g752"><g
                   id="g750"><g
                     id="g748"><path
                       d="m 72.634,443.235 c -1.478,0.277 -3.002,0.421 -4.561,0.421 -1.555,0 -3.08,-0.144 -4.556,-0.417 0.003,0.195 0.068,0.417 0.207,0.658 0.035,0.066 0.083,0.148 0.134,0.244 0.039,0.064 0.078,0.133 0.118,0.207 0.228,0.411 0.553,0.987 0.909,1.62 0.922,-0.581 2.014,-0.919 3.188,-0.919 1.174,0 2.265,0.338 3.193,0.919 0.116,-0.212 0.234,-0.416 0.342,-0.61 0.069,-0.122 0.134,-0.243 0.199,-0.356 0.277,-0.494 0.498,-0.887 0.619,-1.105 0.139,-0.241 0.204,-0.467 0.208,-0.662"
                       style="fill:url(#linearGradient744);stroke:none"
                       id="path746" /></g></g></g></g></g></g></g><g
         id="g760"
         transform="translate(72.6338,394.4878)"><path
           d="m 0,0 c -0.004,-0.195 -0.069,-0.42 -0.208,-0.663 -0.034,-0.061 -0.074,-0.134 -0.121,-0.216 -0.022,-0.039 -0.044,-0.083 -0.068,-0.126 -0.041,-0.069 -0.083,-0.147 -0.127,-0.225 -0.021,-0.04 -0.048,-0.083 -0.07,-0.126 -0.064,-0.113 -0.128,-0.23 -0.198,-0.355 -0.074,-0.13 -0.152,-0.268 -0.234,-0.416 -0.052,-0.087 -0.099,-0.178 -0.151,-0.269 -0.036,-0.06 -0.071,-0.121 -0.101,-0.181 -0.91,-1.624 -2.057,-3.669 -2.312,-4.12 -0.386,-0.688 -0.594,-1.152 -0.971,-1.152 -0.372,0 -0.585,0.464 -0.97,1.152 -0.251,0.451 -1.399,2.496 -2.308,4.12 -0.477,0.848 -0.893,1.585 -1.071,1.914 -0.138,0.243 -0.204,0.464 -0.207,0.659 1.476,-0.273 3.001,-0.416 4.556,-0.416 1.559,0 3.083,0.143 4.561,0.42"
           style="fill:#f9ed32;fill-opacity:1;fill-rule:nonzero;stroke:none"
           id="path762" /></g><g
         id="g764"><g
           id="g766" /><g
           id="g796"><g
             clip-path="url(#clipPath770)"
             id="g794"
             style="opacity:0.5"><g
               id="g792"><g
                 clip-path="url(#clipPath774)"
                 id="g790"><g
                   id="g788"><g
                     id="g786"><path
                       d="m 72.634,394.488 c -0.004,-0.196 -0.069,-0.42 -0.208,-0.663 -0.034,-0.061 -0.074,-0.134 -0.121,-0.216 -0.022,-0.039 -0.048,-0.083 -0.069,-0.126 -0.04,-0.069 -0.082,-0.148 -0.126,-0.226 -0.021,-0.039 -0.048,-0.082 -0.07,-0.126 -0.064,-0.112 -0.128,-0.229 -0.199,-0.354 -0.073,-0.13 -0.151,-0.269 -0.233,-0.416 -0.052,-0.087 -0.1,-0.178 -0.151,-0.269 -0.036,-0.06 -0.071,-0.121 -0.101,-0.181 -0.031,-0.052 -0.06,-0.105 -0.09,-0.157 -0.928,0.577 -2.019,0.919 -3.193,0.919 -1.174,0 -2.266,-0.342 -3.188,-0.919 -0.031,0.052 -0.061,0.105 -0.091,0.157 -0.477,0.848 -0.893,1.585 -1.07,1.914 -0.139,0.243 -0.204,0.464 -0.207,0.659 1.476,-0.274 3.001,-0.416 4.556,-0.416 1.559,0 3.083,0.142 4.561,0.42"
                       style="fill:url(#linearGradient782);stroke:none"
                       id="path784" /></g></g></g></g></g></g></g><g
         id="g798"
         transform="translate(100.2954,418.8608)"><path
           d="m 0,0 c 0,-0.376 -0.463,-0.585 -1.152,-0.97 -0.438,-0.247 -2.366,-1.33 -3.964,-2.222 -0.052,-0.031 -0.104,-0.06 -0.155,-0.091 -0.174,-0.095 -0.343,-0.191 -0.507,-0.281 -0.127,-0.07 -0.247,-0.139 -0.36,-0.205 -0.221,-0.125 -0.425,-0.238 -0.593,-0.333 -0.074,-0.038 -0.144,-0.078 -0.208,-0.116 -0.096,-0.053 -0.178,-0.099 -0.243,-0.135 -0.247,-0.138 -0.472,-0.203 -0.667,-0.208 0.277,1.477 0.42,3.002 0.42,4.561 0,1.561 -0.143,3.08 -0.416,4.558 C -7.649,4.553 -7.429,4.488 -7.182,4.35 -6.965,4.229 -6.571,4.007 -6.078,3.729 -5.965,3.665 -5.843,3.601 -5.723,3.531 -5.527,3.423 -5.324,3.306 -5.111,3.189 -3.518,2.296 -1.59,1.218 -1.152,0.971 -0.463,0.581 0,0.373 0,0"
           style="fill:#f9ed32;fill-opacity:1;fill-rule:nonzero;stroke:none"
           id="path800" /></g><g
         id="g802"><g
           id="g804" /><g
           id="g834"><g
             clip-path="url(#clipPath808)"
             id="g832"
             style="opacity:0.5"><g
               id="g830"><g
                 clip-path="url(#clipPath812)"
                 id="g828"><g
                   id="g826"><g
                     id="g824"><path
                       d="m 94.261,418.861 c 0,-1.174 0.343,-2.265 0.918,-3.193 -0.052,-0.03 -0.103,-0.059 -0.155,-0.09 -0.173,-0.095 -0.343,-0.191 -0.507,-0.282 -0.126,-0.069 -0.247,-0.138 -0.36,-0.204 -0.22,-0.125 -0.425,-0.238 -0.593,-0.333 -0.074,-0.038 -0.143,-0.078 -0.208,-0.116 -0.096,-0.053 -0.177,-0.1 -0.242,-0.135 -0.248,-0.138 -0.473,-0.203 -0.667,-0.208 0.277,1.477 0.419,3.002 0.419,4.561 0,1.56 -0.142,3.08 -0.415,4.557 0.195,-0.004 0.415,-0.069 0.663,-0.208 0.216,-0.121 0.61,-0.342 1.103,-0.62 0.114,-0.064 0.235,-0.129 0.356,-0.198 0.195,-0.108 0.398,-0.225 0.611,-0.342 -0.58,-0.924 -0.923,-2.014 -0.923,-3.189"
                       style="fill:url(#linearGradient820);stroke:none"
                       id="path822" /></g></g></g></g></g></g></g><g
         id="g836"
         transform="translate(43.6987,414.3003)"><path
           d="m 0,0 c -0.194,0.005 -0.419,0.069 -0.662,0.208 -0.065,0.035 -0.148,0.082 -0.243,0.135 -0.06,0.034 -0.135,0.073 -0.208,0.116 -0.069,0.039 -0.142,0.078 -0.22,0.126 -0.049,0.025 -0.1,0.057 -0.153,0.082 -0.359,0.203 -0.787,0.441 -1.246,0.701 -1.595,0.893 -3.521,1.976 -3.96,2.223 -0.688,0.385 -1.157,0.593 -1.157,0.97 0,0.373 0.469,0.58 1.157,0.97 0.439,0.247 2.365,1.325 3.96,2.219 0.212,0.115 0.415,0.232 0.61,0.342 C -2,8.16 -1.88,8.23 -1.767,8.29 c 0.147,0.083 0.287,0.161 0.416,0.234 0.044,0.022 0.082,0.047 0.125,0.07 0.239,0.134 0.434,0.242 0.564,0.316 0.243,0.139 0.464,0.203 0.658,0.208 C -0.277,7.641 -0.419,6.121 -0.419,4.561 -0.419,3.002 -0.277,1.477 0,0"
           style="fill:#f9ed32;fill-opacity:1;fill-rule:nonzero;stroke:none"
           id="path838" /></g><g
         id="g840"><g
           id="g842" /><g
           id="g872"><g
             clip-path="url(#clipPath846)"
             id="g870"
             style="opacity:0.5"><g
               id="g868"><g
                 clip-path="url(#clipPath850)"
                 id="g866"><g
                   id="g864"><g
                     id="g862"><path
                       d="m 43.699,414.3 c -0.195,0.005 -0.42,0.07 -0.662,0.208 -0.065,0.035 -0.148,0.082 -0.244,0.135 -0.059,0.034 -0.134,0.073 -0.208,0.116 -0.068,0.039 -0.142,0.078 -0.22,0.126 -0.048,0.026 -0.099,0.057 -0.152,0.082 -0.359,0.203 -0.788,0.442 -1.247,0.701 0.58,0.928 0.918,2.019 0.918,3.193 0,1.175 -0.338,2.265 -0.918,3.189 0.213,0.116 0.416,0.233 0.611,0.342 0.125,0.068 0.242,0.134 0.355,0.198 0.147,0.083 0.286,0.161 0.416,0.235 0.044,0.021 0.082,0.047 0.125,0.069 0.239,0.134 0.433,0.242 0.564,0.316 0.242,0.139 0.463,0.204 0.658,0.208 -0.273,-1.477 -0.416,-2.997 -0.416,-4.557 0,-1.559 0.143,-3.084 0.42,-4.561"
                       style="fill:url(#linearGradient858);stroke:none"
                       id="path860" /></g></g></g></g></g></g></g><g
         id="g874"
         transform="translate(90.7271,440.1421)"><path
           d="m 0,0 c -0.135,-0.485 -0.737,-2.616 -1.23,-4.37 -0.282,-1.014 -0.533,-1.901 -0.641,-2.283 -0.078,-0.269 -0.186,-0.472 -0.33,-0.615 -1.727,2.525 -3.916,4.713 -6.441,6.441 0.143,0.139 0.347,0.247 0.616,0.325 0.047,0.013 0.103,0.03 0.169,0.047 0.06,0.017 0.134,0.035 0.207,0.057 0.373,0.108 0.892,0.255 1.482,0.42 0.138,0.039 0.276,0.078 0.425,0.117 1.758,0.498 3.889,1.096 4.374,1.234 0.759,0.213 1.234,0.395 1.498,0.13 C 0.394,1.238 0.216,0.763 0,0"
           style="fill:#f9ed32;fill-opacity:1;fill-rule:nonzero;stroke:none"
           id="path876" /></g><g
         id="g878"><g
           id="g880" /><g
           id="g910"><g
             clip-path="url(#clipPath884)"
             id="g908"
             style="opacity:0.5"><g
               id="g906"><g
                 clip-path="url(#clipPath888)"
                 id="g904"><g
                   id="g902"><g
                     id="g900"><path
                       d="m 89.497,435.772 c -0.282,-1.014 -0.533,-1.901 -0.641,-2.283 -0.078,-0.269 -0.186,-0.472 -0.33,-0.614 -1.727,2.524 -3.916,4.712 -6.441,6.44 0.144,0.139 0.347,0.247 0.616,0.325 0.048,0.013 0.103,0.03 0.169,0.047 0.06,0.018 0.134,0.035 0.207,0.057 0.373,0.108 0.892,0.256 1.482,0.421 0.138,0.038 0.281,0.081 0.425,0.121 v -0.005 c 0.246,-1.066 0.778,-2.074 1.606,-2.903 0.831,-0.831 1.845,-1.359 2.907,-1.606"
                       style="fill:url(#linearGradient896);stroke:none"
                       id="path898" /></g></g></g></g></g></g></g><g
         id="g912"
         transform="translate(54.0645,398.4028)"><path
           d="M 0,0 C -0.138,-0.134 -0.342,-0.246 -0.615,-0.324 -0.715,-0.35 -0.845,-0.39 -1.005,-0.438 -1.078,-0.453 -1.156,-0.476 -1.243,-0.502 -1.42,-0.55 -1.62,-0.605 -1.836,-0.667 -1.945,-0.697 -2.058,-0.731 -2.175,-0.762 -2.404,-0.831 -2.651,-0.9 -2.902,-0.97 c -1.763,-0.493 -3.889,-1.092 -4.37,-1.225 -0.763,-0.217 -1.24,-0.4 -1.503,-0.13 -0.265,0.263 -0.082,0.74 0.129,1.498 0.134,0.485 0.732,2.613 1.23,4.371 0.048,0.165 0.092,0.321 0.134,0.476 0.109,0.386 0.208,0.746 0.295,1.048 0.091,0.329 0.169,0.594 0.217,0.763 0.079,0.268 0.186,0.472 0.325,0.615 C -4.712,3.921 -2.525,1.733 0,0"
           style="fill:#f9ed32;fill-opacity:1;fill-rule:nonzero;stroke:none"
           id="path914" /></g><g
         id="g916"><g
           id="g918" /><g
           id="g948"><g
             clip-path="url(#clipPath922)"
             id="g946"
             style="opacity:0.5"><g
               id="g944"><g
                 clip-path="url(#clipPath926)"
                 id="g942"><g
                   id="g940"><g
                     id="g938"><path
                       d="m 54.064,398.403 c -0.137,-0.134 -0.341,-0.246 -0.614,-0.324 -0.1,-0.026 -0.23,-0.066 -0.39,-0.114 -0.073,-0.015 -0.152,-0.038 -0.238,-0.064 -0.177,-0.048 -0.378,-0.104 -0.594,-0.165 -0.108,-0.03 -0.222,-0.065 -0.338,-0.095 -0.229,-0.069 -0.476,-0.139 -0.727,-0.208 -0.248,1.066 -0.776,2.079 -1.607,2.911 -0.828,0.827 -1.841,1.361 -2.907,1.603 0.048,0.165 0.092,0.321 0.134,0.475 0.108,0.387 0.208,0.746 0.294,1.049 0.092,0.329 0.17,0.594 0.217,0.763 0.079,0.267 0.186,0.472 0.325,0.615 1.734,-2.525 3.92,-4.713 6.445,-6.446"
                       style="fill:url(#linearGradient934);stroke:none"
                       id="path936" /></g></g></g></g></g></g></g><g
         id="g950"
         transform="translate(54.0605,439.3149)"><path
           d="m 0,0 c -2.525,-1.728 -4.714,-3.916 -6.441,-6.44 -0.143,0.142 -0.252,0.345 -0.329,0.614 -0.075,0.26 -0.213,0.763 -0.386,1.378 -0.043,0.151 -0.087,0.311 -0.139,0.48 -0.035,0.139 -0.078,0.281 -0.117,0.425 -0.493,1.754 -1.096,3.885 -1.23,4.37 -0.212,0.763 -0.394,1.238 -0.129,1.503 0.263,0.265 0.74,0.083 1.503,-0.13 0.481,-0.137 2.612,-0.736 4.37,-1.229 C -2.755,0.927 -2.613,0.888 -2.474,0.85 -1.642,0.615 -0.94,0.416 -0.615,0.325 -0.348,0.247 -0.144,0.139 0,0"
           style="fill:#f9ed32;fill-opacity:1;fill-rule:nonzero;stroke:none"
           id="path952" /></g><g
         id="g954"><g
           id="g956" /><g
           id="g986"><g
             clip-path="url(#clipPath960)"
             id="g984"
             style="opacity:0.5"><g
               id="g982"><g
                 clip-path="url(#clipPath964)"
                 id="g980"><g
                   id="g978"><g
                     id="g976"><path
                       d="m 54.061,439.315 c -2.526,-1.728 -4.714,-3.916 -6.442,-6.44 -0.142,0.142 -0.252,0.345 -0.328,0.614 -0.075,0.26 -0.214,0.762 -0.386,1.378 -0.044,0.151 -0.088,0.311 -0.139,0.48 -0.035,0.139 -0.078,0.281 -0.117,0.425 1.066,0.247 2.079,0.775 2.907,1.606 0.831,0.829 1.359,1.841 1.607,2.908 0.142,-0.04 0.285,-0.083 0.424,-0.121 0.831,-0.235 1.533,-0.434 1.859,-0.525 0.267,-0.078 0.471,-0.186 0.615,-0.325"
                       style="fill:url(#linearGradient972);stroke:none"
                       id="path974" /></g></g></g></g></g></g></g><g
         id="g988"
         transform="translate(90.8564,396.0776)"><path
           d="m 0,0 c -0.265,-0.27 -0.74,-0.087 -1.499,0.13 -0.484,0.134 -2.615,0.735 -4.374,1.23 -0.148,0.038 -0.286,0.078 -0.425,0.117 -0.541,0.151 -1.022,0.291 -1.385,0.389 -0.075,0.022 -0.144,0.044 -0.203,0.057 -0.11,0.03 -0.197,0.056 -0.27,0.078 -0.269,0.078 -0.472,0.187 -0.615,0.33 2.525,1.728 4.713,3.915 6.441,6.44 C -2.187,8.628 -2.078,8.425 -2,8.156 -1.893,7.771 -1.642,6.882 -1.36,5.869 -0.861,4.111 -0.265,1.983 -0.129,1.503 0.087,0.74 0.264,0.264 0,0"
           style="fill:#f9ed32;fill-opacity:1;fill-rule:nonzero;stroke:none"
           id="path990" /></g><g
         id="g992"><g
           id="g994" /><g
           id="g1024"><g
             clip-path="url(#clipPath998)"
             id="g1022"
             style="opacity:0.5"><g
               id="g1020"><g
                 clip-path="url(#clipPath1002)"
                 id="g1018"><g
                   id="g1016"><g
                     id="g1014"><path
                       d="m 89.497,401.947 c -1.067,-0.242 -2.076,-0.776 -2.907,-1.603 -0.828,-0.832 -1.36,-1.842 -1.606,-2.906 v -0.005 c -0.144,0.039 -0.287,0.083 -0.425,0.121 -0.542,0.152 -1.023,0.291 -1.386,0.39 -0.074,0.021 -0.144,0.044 -0.203,0.056 -0.109,0.031 -0.197,0.057 -0.269,0.079 -0.269,0.078 -0.472,0.186 -0.616,0.33 2.525,1.727 4.714,3.915 6.441,6.44 0.144,-0.143 0.252,-0.347 0.33,-0.615 0.108,-0.386 0.359,-1.275 0.641,-2.287"
                       style="fill:url(#linearGradient1010);stroke:none"
                       id="path1012" /></g></g></g></g></g></g></g></g></g></svg>